<?plantuml 1.2026.2?><svg xmlns="http://www.w3.org/2000/svg" xmlns:xlink="http://www.w3.org/1999/xlink" contentStyleType="text/css" data-diagram-type="ACTIVITY" height="1983px" preserveAspectRatio="none" style="width:566px;height:1983px;background:#333333;" version="1.1" viewBox="0 0 566 1983" width="566px" zoomAndPan="magnify"><title>Fluxograma carrossel.js</title><defs/><g><rect fill="#333333" height="1983" style="stroke:none;stroke-width:1;" width="566" x="0" y="0"/><g class="title" data-source-line="29"><text fill="#F2FF3B" font-family="Arial" font-size="14" font-weight="bold" lengthAdjust="spacing" textLength="165.5634" x="198.883" y="34.9659">Fluxograma carrossel.js</text></g><ellipse cx="285.2297" cy="60.0679" fill="#222222" rx="10" ry="10" style="stroke:#222222;stroke-width:1;"/><rect fill="#333333" height="47.24" rx="12.5" ry="12.5" style="stroke:#FF9F22;stroke-width:0.5;" width="274.9597" x="147.7498" y="90.0679"/><text fill="#75FF7B" font-family="Arial" font-size="20" lengthAdjust="spacing" textLength="254.9597" x="157.7498" y="121.4479">Selecionar Elementos DOM</text><rect fill="#333333" height="47.24" rx="12.5" ry="12.5" style="stroke:#FF9F22;stroke-width:0.5;" width="253.0397" x="158.7098" y="157.3079"/><text fill="#75FF7B" font-family="Arial" font-size="20" lengthAdjust="spacing" textLength="233.0397" x="168.7098" y="188.6879">Chamar criarIndicadores</text><rect fill="#333333" height="47.24" rx="12.5" ry="12.5" style="stroke:#FF9F22;stroke-width:0.5;" width="217.3398" x="176.5598" y="224.5479"/><text fill="#75FF7B" font-family="Arial" font-size="20" lengthAdjust="spacing" textLength="197.3398" x="186.5598" y="255.9278">Chamar irParaSlide 0</text><rect fill="#333333" height="47.24" rx="12.5" ry="12.5" style="stroke:#FF9F22;stroke-width:0.5;" width="239.8597" x="165.2998" y="291.7878"/><text fill="#75FF7B" font-family="Arial" font-size="20" lengthAdjust="spacing" textLength="219.8597" x="175.2998" y="323.1678">Chamar iniciarAutoplay</text><rect fill="#222222" height="333.0799" style="stroke:#FF0000;stroke-width:1.5;" width="520.3295" x="23" y="349.0278"/><path d="M259.6598,349.0278 L259.6598,369.2678 L249.6598,379.2678 L23,379.2678" fill="none" style="stroke:#FF0000;stroke-width:1.5;"/><text fill="#00FFEE" font-family="Arial" font-size="20" lengthAdjust="spacing" textLength="226.6598" x="26" y="371.4078">Fun&#231;&#227;o criarIndicadores</text><rect fill="#333333" height="47.24" rx="12.5" ry="12.5" style="stroke:#FF9F22;stroke-width:0.5;" width="216.6198" x="176.9198" y="466.3877"/><text fill="#75FF7B" font-family="Arial" font-size="20" lengthAdjust="spacing" textLength="196.6198" x="186.9198" y="497.7677">Criar Span .indicador</text><rect fill="#333333" height="47.24" rx="12.5" ry="12.5" style="stroke:#FF9F22;stroke-width:0.5;" width="456.4594" x="57" y="533.6277"/><text fill="#75FF7B" font-family="Arial" font-size="20" lengthAdjust="spacing" textLength="436.4594" x="67" y="565.0077">Add Event Click: irParaSlide + reiniciarAutoplay</text><rect fill="#333333" height="47.24" rx="12.5" ry="12.5" style="stroke:#FF9F22;stroke-width:0.5;" width="235.2598" x="167.5998" y="600.8677"/><text fill="#75FF7B" font-family="Arial" font-size="20" lengthAdjust="spacing" textLength="215.2598" x="177.5998" y="632.2477">Adicionar ao Container</text><polygon fill="#333333" points="229.7098,396.2678,340.7496,396.2678,352.7496,409.8878,340.7496,423.5078,229.7098,423.5078,217.7098,409.8878,229.7098,396.2678" style="stroke:#FF0000;stroke-width:0.5;"/><text fill="#F2FF3B" font-family="Arial" font-size="20" lengthAdjust="spacing" textLength="34.84" x="289.2297" y="444.8877">Sim</text><text fill="#FF7C7C" font-family="Arial" font-size="20" lengthAdjust="spacing" textLength="111.0399" x="229.7098" y="417.6478">Mais slides?</text><text fill="#F2FF3B" font-family="Arial" font-size="20" lengthAdjust="spacing" textLength="38.52" x="179.1898" y="404.0278">N&#227;o</text><rect fill="#222222" height="375.4398" style="stroke:#FF0000;stroke-width:1.5;" width="401.8397" x="84.3099" y="692.1077"/><path d="M268.6297,692.1077 L268.6297,712.3476 L258.6297,722.3476 L84.3099,722.3476" fill="none" style="stroke:#FF0000;stroke-width:1.5;"/><text fill="#00FFEE" font-family="Arial" font-size="20" lengthAdjust="spacing" textLength="174.3198" x="87.3099" y="714.4877">Fun&#231;&#227;o irParaSlide</text><rect fill="#333333" height="47.24" rx="12.5" ry="12.5" style="stroke:#FF9F22;stroke-width:0.5;" width="145.0598" x="212.6998" y="739.3476"/><text fill="#75FF7B" font-family="Arial" font-size="20" lengthAdjust="spacing" textLength="125.0598" x="222.6998" y="770.7276">Recebe index</text><rect fill="#333333" height="47.24" rx="12.5" ry="12.5" style="stroke:#FF9F22;stroke-width:0.5;" width="185.7398" x="192.3598" y="806.5876"/><text fill="#75FF7B" font-family="Arial" font-size="20" lengthAdjust="spacing" textLength="165.7398" x="202.3598" y="837.9676">slideAtual = index</text><rect fill="#333333" height="47.24" rx="12.5" ry="12.5" style="stroke:#FF9F22;stroke-width:0.5;" width="381.8397" x="94.3099" y="873.8276"/><text fill="#75FF7B" font-family="Arial" font-size="20" lengthAdjust="spacing" textLength="361.8397" x="104.3099" y="905.2076">Mover trilha Slides via transform 100%</text><rect fill="#333333" height="47.24" rx="12.5" ry="12.5" style="stroke:#FF9F22;stroke-width:0.5;" width="319.7196" x="125.3699" y="941.0676"/><text fill="#75FF7B" font-family="Arial" font-size="20" lengthAdjust="spacing" textLength="299.7196" x="135.3699" y="972.4476">Atualizar classe .ativo nos Slides</text><rect fill="#333333" height="47.24" rx="12.5" ry="12.5" style="stroke:#FF9F22;stroke-width:0.5;" width="351.0996" x="109.6799" y="1008.3075"/><text fill="#75FF7B" font-family="Arial" font-size="20" lengthAdjust="spacing" textLength="331.0996" x="119.6799" y="1039.6875">Sincronizar classe .ativo nos Bullets</text><rect fill="#222222" height="526.2798" style="stroke:#FF0000;stroke-width:1.5;" width="544.3295" x="11" y="1077.5475"/><path d="M200.9598,1077.5475 L200.9598,1097.7875 L190.9598,1107.7875 L11,1107.7875" fill="none" style="stroke:#FF0000;stroke-width:1.5;"/><text fill="#00FFEE" font-family="Arial" font-size="20" lengthAdjust="spacing" textLength="179.9598" x="14" y="1099.9275">Navega&#231;&#227;o Manual</text><line style="stroke:#FF0000;stroke-width:1.5;" x1="140.6398" x2="407.7396" y1="1124.7875" y2="1124.7875"/><rect fill="#333333" height="47.24" rx="12.5" ry="12.5" style="stroke:#FF9F22;stroke-width:0.5;" width="194.9798" x="43.1499" y="1144.7875"/><text fill="#75FF7B" font-family="Arial" font-size="20" lengthAdjust="spacing" textLength="174.9798" x="53.1499" y="1176.1675">Clique btnProximo</text><rect fill="#333333" height="47.24" rx="12.5" ry="12.5" style="stroke:#FF9F22;stroke-width:0.5;" width="219.0197" x="31.13" y="1212.0275"/><text fill="#75FF7B" font-family="Arial" font-size="20" lengthAdjust="spacing" textLength="199.0197" x="41.13" y="1243.4075">index = slideAtual + 1</text><rect fill="#333333" height="47.24" rx="12.5" ry="12.5" style="stroke:#FF9F22;stroke-width:0.5;" width="104.9599" x="88.1599" y="1346.1074"/><text fill="#75FF7B" font-family="Arial" font-size="20" lengthAdjust="spacing" textLength="84.9599" x="98.1599" y="1377.4874">index = 0</text><polygon fill="#333333" points="45.1299,1287.2474,236.1497,1287.2474,248.1497,1300.8674,236.1497,1314.4874,45.1299,1314.4874,33.1299,1300.8674,45.1299,1287.2474" style="stroke:#FF0000;stroke-width:0.5;"/><text fill="#F2FF3B" font-family="Arial" font-size="20" lengthAdjust="spacing" textLength="34.84" x="144.6398" y="1335.8674">Sim</text><text fill="#FF7C7C" font-family="Arial" font-size="20" lengthAdjust="spacing" textLength="191.0198" x="45.1299" y="1308.6274">index &gt;= totalSlides?</text><text fill="#F2FF3B" font-family="Arial" font-size="20" lengthAdjust="spacing" textLength="38.52" x="248.1497" y="1295.0074">N&#227;o</text><polygon fill="#333333" points="140.6398,1413.3474,152.6398,1425.3474,140.6398,1437.3474,128.6398,1425.3474,140.6398,1413.3474" style="stroke:#FF0000;stroke-width:0.5;"/><rect fill="#333333" height="47.24" rx="12.5" ry="12.5" style="stroke:#FF9F22;stroke-width:0.5;" width="193.3998" x="311.0397" y="1144.7875"/><text fill="#75FF7B" font-family="Arial" font-size="20" lengthAdjust="spacing" textLength="173.3998" x="321.0397" y="1176.1675">Clique btnAnterior</text><rect fill="#333333" height="47.24" rx="12.5" ry="12.5" style="stroke:#FF9F22;stroke-width:0.5;" width="214.0197" x="300.7297" y="1212.0275"/><text fill="#75FF7B" font-family="Arial" font-size="20" lengthAdjust="spacing" textLength="194.0197" x="310.7297" y="1243.4075">index = slideAtual - 1</text><rect fill="#333333" height="47.24" rx="12.5" ry="12.5" style="stroke:#FF9F22;stroke-width:0.5;" width="219.1797" x="298.1497" y="1346.1074"/><text fill="#75FF7B" font-family="Arial" font-size="20" lengthAdjust="spacing" textLength="199.1797" x="308.1497" y="1377.4874">index = totalSlides - 1</text><polygon fill="#333333" points="360.9196,1287.2474,454.5595,1287.2474,466.5595,1300.8674,454.5595,1314.4874,360.9196,1314.4874,348.9196,1300.8674,360.9196,1287.2474" style="stroke:#FF0000;stroke-width:0.5;"/><text fill="#F2FF3B" font-family="Arial" font-size="20" lengthAdjust="spacing" textLength="34.84" x="411.7396" y="1335.8674">Sim</text><text fill="#FF7C7C" font-family="Arial" font-size="20" lengthAdjust="spacing" textLength="93.6399" x="360.9196" y="1308.6274">index &lt; 0?</text><text fill="#F2FF3B" font-family="Arial" font-size="20" lengthAdjust="spacing" textLength="38.52" x="466.5595" y="1295.0074">N&#227;o</text><polygon fill="#333333" points="407.7396,1413.3474,419.7396,1425.3474,407.7396,1437.3474,395.7396,1425.3474,407.7396,1413.3474" style="stroke:#FF0000;stroke-width:0.5;"/><line style="stroke:#FF0000;stroke-width:1.5;" x1="140.6398" x2="407.7396" y1="1457.3474" y2="1457.3474"/><rect fill="#333333" height="47.24" rx="12.5" ry="12.5" style="stroke:#FF9F22;stroke-width:0.5;" width="177.9798" x="196.2398" y="1477.3474"/><text fill="#75FF7B" font-family="Arial" font-size="20" lengthAdjust="spacing" textLength="157.9798" x="206.2398" y="1508.7273">irParaSlide index</text><rect fill="#333333" height="47.24" rx="12.5" ry="12.5" style="stroke:#FF9F22;stroke-width:0.5;" width="259.3997" x="155.5298" y="1544.5873"/><text fill="#75FF7B" font-family="Arial" font-size="20" lengthAdjust="spacing" textLength="239.3997" x="165.5298" y="1575.9673">Chamar reiniciarAutoplay</text><rect fill="#222222" height="316.1799" style="stroke:#FF0000;stroke-width:1.5;" width="437.8196" x="91.7949" y="1613.8273"/><path d="M293.2547,1613.8273 L293.2547,1634.0673 L283.2547,1644.0673 L91.7949,1644.0673" fill="none" style="stroke:#FF0000;stroke-width:1.5;"/><text fill="#00FFEE" font-family="Arial" font-size="20" lengthAdjust="spacing" textLength="191.4598" x="94.7949" y="1636.2073">Sistema de Autoplay</text><rect fill="#333333" height="47.24" rx="12.5" ry="12.5" style="stroke:#FF9F22;stroke-width:0.5;" width="199.7598" x="185.3498" y="1661.0673"/><text fill="#75FF7B" font-family="Arial" font-size="20" lengthAdjust="spacing" textLength="179.7598" x="195.3498" y="1692.4473">setInterval 8000ms</text><rect fill="#333333" height="47.24" rx="12.5" ry="12.5" style="stroke:#FF9F22;stroke-width:0.5;" width="319.2996" x="125.5799" y="1728.3073"/><text fill="#75FF7B" font-family="Arial" font-size="20" lengthAdjust="spacing" textLength="299.2996" x="135.5799" y="1759.6872">Avan&#231;ar Slide Automaticamente</text><polygon fill="#333333" points="235.8698,1803.5272,334.5897,1803.5272,346.5897,1817.1472,334.5897,1830.7672,235.8698,1830.7672,223.8698,1817.1472,235.8698,1803.5272" style="stroke:#FF0000;stroke-width:0.5;"/><text fill="#FF7C7C" font-family="Arial" font-size="20" lengthAdjust="spacing" textLength="98.7199" x="235.8698" y="1824.9072">Intera&#231;&#227;o?</text><text fill="#F2FF3B" font-family="Arial" font-size="20" lengthAdjust="spacing" textLength="113.6999" x="110.1699" y="1811.2872">MouseEnter</text><text fill="#F2FF3B" font-family="Arial" font-size="20" lengthAdjust="spacing" textLength="117.8799" x="346.5897" y="1811.2872">MouseLeave</text><rect fill="#333333" height="47.24" rx="12.5" ry="12.5" style="stroke:#FF9F22;stroke-width:0.5;" width="137.9599" x="111.7949" y="1840.7672"/><text fill="#75FF7B" font-family="Arial" font-size="20" lengthAdjust="spacing" textLength="117.9599" x="121.7949" y="1872.1472">clearInterval</text><rect fill="#333333" height="47.24" rx="12.5" ry="12.5" style="stroke:#FF9F22;stroke-width:0.5;" width="239.8597" x="269.7547" y="1840.7672"/><text fill="#75FF7B" font-family="Arial" font-size="20" lengthAdjust="spacing" textLength="219.8597" x="279.7547" y="1872.1472">Chamar iniciarAutoplay</text><polygon fill="#333333" points="285.2297,1894.0072,297.2297,1906.0072,285.2297,1918.0072,273.2297,1906.0072,285.2297,1894.0072" style="stroke:#FF0000;stroke-width:0.5;"/><ellipse cx="285.2297" cy="1961.0072" fill="none" rx="11" ry="11" style="stroke:#222222;stroke-width:1;"/><ellipse cx="285.2297" cy="1961.0072" fill="#222222" rx="6" ry="6" style="stroke:#222222;stroke-width:1;"/><line style="stroke:#FF0000;stroke-width:2;" x1="285.2297" x2="285.2297" y1="70.0679" y2="90.0679"/><polygon fill="#FF0000" points="281.2297,80.0679,285.2297,90.0679,289.2297,80.0679,285.2297,84.0679" style="stroke:#FF0000;stroke-width:1;"/><line style="stroke:#FF0000;stroke-width:2;" x1="285.2297" x2="285.2297" y1="137.3079" y2="157.3079"/><polygon fill="#FF0000" points="281.2297,147.3079,285.2297,157.3079,289.2297,147.3079,285.2297,151.3079" style="stroke:#FF0000;stroke-width:1;"/><line style="stroke:#FF0000;stroke-width:2;" x1="285.2297" x2="285.2297" y1="204.5479" y2="224.5479"/><polygon fill="#FF0000" points="281.2297,214.5479,285.2297,224.5479,289.2297,214.5479,285.2297,218.5479" style="stroke:#FF0000;stroke-width:1;"/><line style="stroke:#FF0000;stroke-width:2;" x1="285.2297" x2="285.2297" y1="271.7878" y2="291.7878"/><polygon fill="#FF0000" points="281.2297,281.7878,285.2297,291.7878,289.2297,281.7878,285.2297,285.7878" style="stroke:#FF0000;stroke-width:1;"/><line style="stroke:#FF0000;stroke-width:2;" x1="285.2297" x2="285.2297" y1="513.6277" y2="533.6277"/><polygon fill="#FF0000" points="281.2297,523.6277,285.2297,533.6277,289.2297,523.6277,285.2297,527.6277" style="stroke:#FF0000;stroke-width:1;"/><line style="stroke:#FF0000;stroke-width:2;" x1="285.2297" x2="285.2297" y1="580.8677" y2="600.8677"/><polygon fill="#FF0000" points="281.2297,590.8677,285.2297,600.8677,289.2297,590.8677,285.2297,594.8677" style="stroke:#FF0000;stroke-width:1;"/><line style="stroke:#FF0000;stroke-width:2;" x1="285.2297" x2="285.2297" y1="423.5078" y2="466.3877"/><polygon fill="#FF0000" points="281.2297,456.3877,285.2297,466.3877,289.2297,456.3877,285.2297,460.3877" style="stroke:#FF0000;stroke-width:1;"/><line style="stroke:#FF0000;stroke-width:2;" x1="285.2297" x2="285.2297" y1="648.1077" y2="658.1077"/><line style="stroke:#FF0000;stroke-width:2;" x1="285.2297" x2="525.4594" y1="658.1077" y2="658.1077"/><polygon fill="#FF0000" points="521.4594,540.8177,525.4594,530.8177,529.4594,540.8177,525.4594,536.8177" style="stroke:#FF0000;stroke-width:2;"/><line style="stroke:#FF0000;stroke-width:2;" x1="525.4594" x2="525.4594" y1="409.8878" y2="658.1077"/><line style="stroke:#FF0000;stroke-width:2;" x1="525.4594" x2="352.7496" y1="409.8878" y2="409.8878"/><polygon fill="#FF0000" points="362.7496,405.8878,352.7496,409.8878,362.7496,413.8878,358.7496,409.8878" style="stroke:#FF0000;stroke-width:1;"/><line style="stroke:#FF0000;stroke-width:2;" x1="217.7098" x2="45" y1="409.8878" y2="409.8878"/><polygon fill="#FF0000" points="41,526.8177,45,536.8177,49,526.8177,45,530.8177" style="stroke:#FF0000;stroke-width:2;"/><line style="stroke:#FF0000;stroke-width:2;" x1="45" x2="45" y1="409.8878" y2="670.1077"/><line style="stroke:#FF0000;stroke-width:2;" x1="45" x2="285.2297" y1="670.1077" y2="670.1077"/><line style="stroke:#FF0000;stroke-width:2;" x1="285.2297" x2="285.2297" y1="670.1077" y2="739.3476"/><polygon fill="#FF0000" points="281.2297,729.3476,285.2297,739.3476,289.2297,729.3476,285.2297,733.3476" style="stroke:#FF0000;stroke-width:1;"/><line style="stroke:#FF0000;stroke-width:2;" x1="285.2297" x2="285.2297" y1="339.0278" y2="396.2678"/><polygon fill="#FF0000" points="281.2297,386.2678,285.2297,396.2678,289.2297,386.2678,285.2297,390.2678" style="stroke:#FF0000;stroke-width:1;"/><line style="stroke:#FF0000;stroke-width:2;" x1="285.2297" x2="285.2297" y1="786.5876" y2="806.5876"/><polygon fill="#FF0000" points="281.2297,796.5876,285.2297,806.5876,289.2297,796.5876,285.2297,800.5876" style="stroke:#FF0000;stroke-width:1;"/><line style="stroke:#FF0000;stroke-width:2;" x1="285.2297" x2="285.2297" y1="853.8276" y2="873.8276"/><polygon fill="#FF0000" points="281.2297,863.8276,285.2297,873.8276,289.2297,863.8276,285.2297,867.8276" style="stroke:#FF0000;stroke-width:1;"/><line style="stroke:#FF0000;stroke-width:2;" x1="285.2297" x2="285.2297" y1="921.0676" y2="941.0676"/><polygon fill="#FF0000" points="281.2297,931.0676,285.2297,941.0676,289.2297,931.0676,285.2297,935.0676" style="stroke:#FF0000;stroke-width:1;"/><line style="stroke:#FF0000;stroke-width:2;" x1="285.2297" x2="285.2297" y1="988.3075" y2="1008.3075"/><polygon fill="#FF0000" points="281.2297,998.3075,285.2297,1008.3075,289.2297,998.3075,285.2297,1002.3075" style="stroke:#FF0000;stroke-width:1;"/><line style="stroke:#FF0000;stroke-width:2;" x1="140.6398" x2="140.6398" y1="1192.0275" y2="1212.0275"/><polygon fill="#FF0000" points="136.6398,1202.0275,140.6398,1212.0275,144.6398,1202.0275,140.6398,1206.0275" style="stroke:#FF0000;stroke-width:1;"/><line style="stroke:#FF0000;stroke-width:2;" x1="140.6398" x2="140.6398" y1="1314.4874" y2="1346.1074"/><polygon fill="#FF0000" points="136.6398,1336.1074,140.6398,1346.1074,144.6398,1336.1074,140.6398,1340.1074" style="stroke:#FF0000;stroke-width:1;"/><line style="stroke:#FF0000;stroke-width:2;" x1="248.1497" x2="260.1497" y1="1300.8674" y2="1300.8674"/><polygon fill="#FF0000" points="256.1497,1358.9174,260.1497,1368.9174,264.1497,1358.9174,260.1497,1362.9174" style="stroke:#FF0000;stroke-width:2;"/><line style="stroke:#FF0000;stroke-width:2;" x1="260.1497" x2="260.1497" y1="1300.8674" y2="1425.3474"/><line style="stroke:#FF0000;stroke-width:2;" x1="260.1497" x2="152.6398" y1="1425.3474" y2="1425.3474"/><polygon fill="#FF0000" points="162.6398,1421.3474,152.6398,1425.3474,162.6398,1429.3474,158.6398,1425.3474" style="stroke:#FF0000;stroke-width:1;"/><line style="stroke:#FF0000;stroke-width:2;" x1="140.6398" x2="140.6398" y1="1393.3474" y2="1413.3474"/><polygon fill="#FF0000" points="136.6398,1403.3474,140.6398,1413.3474,144.6398,1403.3474,140.6398,1407.3474" style="stroke:#FF0000;stroke-width:1;"/><line style="stroke:#FF0000;stroke-width:2;" x1="140.6398" x2="140.6398" y1="1259.2674" y2="1287.2474"/><polygon fill="#FF0000" points="136.6398,1277.2474,140.6398,1287.2474,144.6398,1277.2474,140.6398,1281.2474" style="stroke:#FF0000;stroke-width:1;"/><line style="stroke:#FF0000;stroke-width:2;" x1="407.7396" x2="407.7396" y1="1192.0275" y2="1212.0275"/><polygon fill="#FF0000" points="403.7396,1202.0275,407.7396,1212.0275,411.7396,1202.0275,407.7396,1206.0275" style="stroke:#FF0000;stroke-width:1;"/><line style="stroke:#FF0000;stroke-width:2;" x1="407.7396" x2="407.7396" y1="1314.4874" y2="1346.1074"/><polygon fill="#FF0000" points="403.7396,1336.1074,407.7396,1346.1074,411.7396,1336.1074,407.7396,1340.1074" style="stroke:#FF0000;stroke-width:1;"/><line style="stroke:#FF0000;stroke-width:2;" x1="466.5595" x2="527.3295" y1="1300.8674" y2="1300.8674"/><polygon fill="#FF0000" points="523.3295,1358.9174,527.3295,1368.9174,531.3295,1358.9174,527.3295,1362.9174" style="stroke:#FF0000;stroke-width:2;"/><line style="stroke:#FF0000;stroke-width:2;" x1="527.3295" x2="527.3295" y1="1300.8674" y2="1425.3474"/><line style="stroke:#FF0000;stroke-width:2;" x1="527.3295" x2="419.7396" y1="1425.3474" y2="1425.3474"/><polygon fill="#FF0000" points="429.7396,1421.3474,419.7396,1425.3474,429.7396,1429.3474,425.7396,1425.3474" style="stroke:#FF0000;stroke-width:1;"/><line style="stroke:#FF0000;stroke-width:2;" x1="407.7396" x2="407.7396" y1="1393.3474" y2="1413.3474"/><polygon fill="#FF0000" points="403.7396,1403.3474,407.7396,1413.3474,411.7396,1403.3474,407.7396,1407.3474" style="stroke:#FF0000;stroke-width:1;"/><line style="stroke:#FF0000;stroke-width:2;" x1="407.7396" x2="407.7396" y1="1259.2674" y2="1287.2474"/><polygon fill="#FF0000" points="403.7396,1277.2474,407.7396,1287.2474,411.7396,1277.2474,407.7396,1281.2474" style="stroke:#FF0000;stroke-width:1;"/><line style="stroke:#FF0000;stroke-width:2;" x1="140.6398" x2="140.6398" y1="1126.2875" y2="1144.7875"/><polygon fill="#FF0000" points="136.6398,1134.7875,140.6398,1144.7875,144.6398,1134.7875,140.6398,1138.7875" style="stroke:#FF0000;stroke-width:1;"/><line style="stroke:#FF0000;stroke-width:2;" x1="407.7396" x2="407.7396" y1="1126.2875" y2="1144.7875"/><polygon fill="#FF0000" points="403.7396,1134.7875,407.7396,1144.7875,411.7396,1134.7875,407.7396,1138.7875" style="stroke:#FF0000;stroke-width:1;"/><line style="stroke:#FF0000;stroke-width:2;" x1="140.6398" x2="140.6398" y1="1437.3474" y2="1457.3474"/><polygon fill="#FF0000" points="136.6398,1447.3474,140.6398,1457.3474,144.6398,1447.3474,140.6398,1451.3474" style="stroke:#FF0000;stroke-width:1;"/><line style="stroke:#FF0000;stroke-width:2;" x1="407.7396" x2="407.7396" y1="1437.3474" y2="1457.3474"/><polygon fill="#FF0000" points="403.7396,1447.3474,407.7396,1457.3474,411.7396,1447.3474,407.7396,1451.3474" style="stroke:#FF0000;stroke-width:1;"/><line style="stroke:#FF0000;stroke-width:2;" x1="285.2297" x2="285.2297" y1="1458.8474" y2="1477.3474"/><polygon fill="#FF0000" points="281.2297,1467.3474,285.2297,1477.3474,289.2297,1467.3474,285.2297,1471.3474" style="stroke:#FF0000;stroke-width:1;"/><line style="stroke:#FF0000;stroke-width:2;" x1="285.2297" x2="285.2297" y1="1524.5873" y2="1544.5873"/><polygon fill="#FF0000" points="281.2297,1534.5873,285.2297,1544.5873,289.2297,1534.5873,285.2297,1538.5873" style="stroke:#FF0000;stroke-width:1;"/><line style="stroke:#FF0000;stroke-width:2;" x1="285.2297" x2="285.2297" y1="1055.5475" y2="1124.7875"/><polygon fill="#FF0000" points="281.2297,1114.7875,285.2297,1124.7875,289.2297,1114.7875,285.2297,1118.7875" style="stroke:#FF0000;stroke-width:1;"/><line style="stroke:#FF0000;stroke-width:2;" x1="285.2297" x2="285.2297" y1="1708.3073" y2="1728.3073"/><polygon fill="#FF0000" points="281.2297,1718.3073,285.2297,1728.3073,289.2297,1718.3073,285.2297,1722.3073" style="stroke:#FF0000;stroke-width:1;"/><line style="stroke:#FF0000;stroke-width:2;" x1="223.8698" x2="180.7748" y1="1817.1472" y2="1817.1472"/><line style="stroke:#FF0000;stroke-width:2;" x1="180.7748" x2="180.7748" y1="1817.1472" y2="1840.7672"/><polygon fill="#FF0000" points="176.7748,1830.7672,180.7748,1840.7672,184.7748,1830.7672,180.7748,1834.7672" style="stroke:#FF0000;stroke-width:1;"/><line style="stroke:#FF0000;stroke-width:2;" x1="346.5897" x2="389.6846" y1="1817.1472" y2="1817.1472"/><line style="stroke:#FF0000;stroke-width:2;" x1="389.6846" x2="389.6846" y1="1817.1472" y2="1840.7672"/><polygon fill="#FF0000" points="385.6846,1830.7672,389.6846,1840.7672,393.6846,1830.7672,389.6846,1834.7672" style="stroke:#FF0000;stroke-width:1;"/><line style="stroke:#FF0000;stroke-width:2;" x1="180.7748" x2="180.7748" y1="1888.0072" y2="1906.0072"/><line style="stroke:#FF0000;stroke-width:2;" x1="180.7748" x2="273.2297" y1="1906.0072" y2="1906.0072"/><polygon fill="#FF0000" points="263.2297,1902.0072,273.2297,1906.0072,263.2297,1910.0072,267.2297,1906.0072" style="stroke:#FF0000;stroke-width:1;"/><line style="stroke:#FF0000;stroke-width:2;" x1="389.6846" x2="389.6846" y1="1888.0072" y2="1906.0072"/><line style="stroke:#FF0000;stroke-width:2;" x1="389.6846" x2="297.2297" y1="1906.0072" y2="1906.0072"/><polygon fill="#FF0000" points="307.2297,1902.0072,297.2297,1906.0072,307.2297,1910.0072,303.2297,1906.0072" style="stroke:#FF0000;stroke-width:1;"/><line style="stroke:#FF0000;stroke-width:2;" x1="285.2297" x2="285.2297" y1="1775.5472" y2="1803.5272"/><polygon fill="#FF0000" points="281.2297,1793.5272,285.2297,1803.5272,289.2297,1793.5272,285.2297,1797.5272" style="stroke:#FF0000;stroke-width:1;"/><line style="stroke:#FF0000;stroke-width:2;" x1="285.2297" x2="285.2297" y1="1591.8273" y2="1661.0673"/><polygon fill="#FF0000" points="281.2297,1651.0673,285.2297,1661.0673,289.2297,1651.0673,285.2297,1655.0673" style="stroke:#FF0000;stroke-width:1;"/><line style="stroke:#FF0000;stroke-width:2;" x1="285.2297" x2="285.2297" y1="1918.0072" y2="1950.0072"/><polygon fill="#FF0000" points="281.2297,1940.0072,285.2297,1950.0072,289.2297,1940.0072,285.2297,1944.0072" style="stroke:#FF0000;stroke-width:1;"/><?plantuml-src ZLHHRjim3FttAOWDGnCKAzmKGxPqtP2coL1WwOfb5s1iEj4gIvaafsc7dcOVEy2m4_HYenmxKTAacBviaNpaUoHr03sjCZ4f33x-VlnB5Zv9FKPX8INeMoUaZkoDK3CqcCCOavk9qOLAUrfg0ozFoXDuf9HX8Tr0ApSIzmIjUBUnYizQMNOotkroXJb1rmYKKNHGrGBU2omvj45GrnXzMo4E1Z6VRUEtgKXk55aBhMsm1CK2Ixhen5oao5yDzVZ7DWCGJBpDtS7F2FYSxz6Xj6cJagdvPU-oLgky3rYttsHPUxowhONo_nS2SwtIvnBKBc6UYdLW3aNEsaaxYHwscKzCCTCM6lpZnBBx8UVosWcjQj9x4WQPuZZBY7PBr2gFhu9H9S505WizuKI-1TmZQqaUVRTHP1qdZgBEY2Gbd1uDz2Nbf1mNU_5bU1frUbCECv3mS9XBbOe4Kst8hYt2N3E7aHJSp3YuLYBXa6xXz4pYtMaKhKc-61IAHVYbdy2-g0IudGgkkp7qss4zjFtO1FvkZ4JUB3tywVHyE8ncgE18r2YdQtitJQ4_PphGapoLdOrY3y7Gaog3K54fWjelhaEXgC8cbLO5NZ69fXTw5xaWMSshyvKI6XEhaz9Y2TOf-NLTWHBEDWn3FIS3pWWvHIXXBCm5yWqgcscJmt4SlwgSIm1nxribaHiCHtx7D2Zkv3AsSXm9bHYjzhYU5rAIOzzDJbSufmakQGrHSQgQaPr9uOAEIF6Z81WxTMtqGkGwaBJanXm3meTml7OG6JIMFX_Em6c7SbIttar9RJL_0p9Uev2qgyQixdWsidMvW1FkvgwYkygH4HipjAFgrxkhVW_nVvGQ4Di4Uhvm_WgqxeI37CvCjNqx9dkpeIDX7V5xmE6rosf6-Ss_z3hCcUfRVdhoUdIwS-JHzXjNvlM1EOzEWlx5eALJL6jIGYn7PgNAK1UM-juGB74YoRy1ouJLWfLIbDwVYKSlNFazpyjQhGV_hkbPz0y0?></g></svg>