<?plantuml 1.2026.2?><svg xmlns="http://www.w3.org/2000/svg" xmlns:xlink="http://www.w3.org/1999/xlink" contentStyleType="text/css" data-diagram-type="ACTIVITY" height="1972px" preserveAspectRatio="none" style="width:800px;height:1972px;background:#333333;" version="1.1" viewBox="0 0 800 1972" width="800px" zoomAndPan="magnify"><title>Fluxograma menu.js</title><defs/><g><rect fill="#333333" height="1972" style="stroke:none;stroke-width:1;" width="800" x="0" y="0"/><g class="title" data-source-line="37"><text fill="#F2FF3B" font-family="Arial" font-size="14" font-weight="bold" lengthAdjust="spacing" textLength="142.3094" x="327.5842" y="34.9659">Fluxograma menu.js</text></g><ellipse cx="258.3297" cy="60.0679" fill="#222222" rx="10" ry="10" style="stroke:#222222;stroke-width:1;"/><rect fill="#222222" height="762.9796" style="stroke:#FF0000;stroke-width:1.5;" width="393.0797" x="73.7898" y="80.0679"/><path d="M408.3495,80.0679 L408.3495,100.3079 L398.3495,110.3079 L73.7898,110.3079" fill="none" style="stroke:#FF0000;stroke-width:1.5;"/><text fill="#00FFEE" font-family="Arial" font-size="20" lengthAdjust="spacing" textLength="324.5596" x="76.7898" y="102.4479">Inicializa&#231;&#227;o (DOMContentLoaded)</text><rect fill="#333333" height="47.24" rx="12.5" ry="12.5" style="stroke:#FF9F22;stroke-width:0.5;" width="338.1396" x="89.2599" y="127.3079"/><text fill="#75FF7B" font-family="Arial" font-size="20" lengthAdjust="spacing" textLength="318.1396" x="99.2599" y="158.6879">Selecionar hamb, nav e btnFechar</text><rect fill="#333333" height="74.4799" rx="12.5" ry="12.5" style="stroke:#FF9F22;stroke-width:0.5;" width="268.6797" x="123.9898" y="253.4078"/><text fill="#75FF7B" font-family="Arial" font-size="20" lengthAdjust="spacing" textLength="243.4797" x="133.9898" y="284.7878">Add Event Click em hamb:</text><text fill="#75FF7B" font-family="Arial" font-size="20" lengthAdjust="spacing" textLength="180.8998" x="133.9898" y="312.0278">Exibir menu (.ativo)</text><rect fill="#333333" height="74.4799" rx="12.5" ry="12.5" style="stroke:#FF9F22;stroke-width:0.5;" width="309.0797" x="103.7898" y="406.7477"/><text fill="#75FF7B" font-family="Arial" font-size="20" lengthAdjust="spacing" textLength="283.8797" x="113.7898" y="438.1277">Add Event Click em btnFechar:</text><text fill="#75FF7B" font-family="Arial" font-size="20" lengthAdjust="spacing" textLength="146.4998" x="113.7898" y="465.3677">Esconder menu</text><polygon fill="#333333" points="176.3498,347.8878,340.3096,347.8878,352.3096,361.5078,340.3096,375.1278,176.3498,375.1278,164.3498,361.5078,176.3498,347.8878" style="stroke:#FF0000;stroke-width:0.5;"/><text fill="#F2FF3B" font-family="Arial" font-size="20" lengthAdjust="spacing" textLength="34.84" x="262.3297" y="396.5077">Sim</text><text fill="#FF7C7C" font-family="Arial" font-size="20" lengthAdjust="spacing" textLength="163.9598" x="176.3498" y="369.2678">btnFechar existe?</text><polygon fill="#333333" points="258.3297,501.2277,270.3297,513.2277,258.3297,525.2277,246.3297,513.2277,258.3297,501.2277" style="stroke:#FF0000;stroke-width:0.5;"/><rect fill="#333333" height="47.24" rx="12.5" ry="12.5" style="stroke:#FF9F22;stroke-width:0.5;" width="306.7197" x="104.9698" y="545.2277"/><text fill="#75FF7B" font-family="Arial" font-size="20" lengthAdjust="spacing" textLength="286.7197" x="114.9698" y="576.6077">Loop: Todos os links (a) do nav</text><rect fill="#333333" height="74.4799" rx="12.5" ry="12.5" style="stroke:#FF9F22;stroke-width:0.5;" width="173.7198" x="171.4698" y="690.5676"/><text fill="#75FF7B" font-family="Arial" font-size="20" lengthAdjust="spacing" textLength="148.5198" x="181.4698" y="721.9476">Add Event Click:</text><text fill="#75FF7B" font-family="Arial" font-size="20" lengthAdjust="spacing" textLength="146.4998" x="181.4698" y="749.1876">Esconder menu</text><polygon fill="#333333" points="207.8697,620.4476,308.7896,620.4476,320.7896,634.0676,308.7896,647.6876,207.8697,647.6876,195.8697,634.0676,207.8697,620.4476" style="stroke:#FF0000;stroke-width:0.5;"/><text fill="#F2FF3B" font-family="Arial" font-size="20" lengthAdjust="spacing" textLength="34.84" x="262.3297" y="669.0676">Sim</text><text fill="#FF7C7C" font-family="Arial" font-size="20" lengthAdjust="spacing" textLength="100.9199" x="207.8697" y="641.8276">Mais links?</text><text fill="#F2FF3B" font-family="Arial" font-size="20" lengthAdjust="spacing" textLength="38.52" x="157.3498" y="628.2076">N&#227;o</text><polygon fill="#333333" points="159.4898,194.5479,357.1696,194.5479,369.1696,208.1679,357.1696,221.7878,159.4898,221.7878,147.4898,208.1679,159.4898,194.5479" style="stroke:#FF0000;stroke-width:0.5;"/><text fill="#F2FF3B" font-family="Arial" font-size="20" lengthAdjust="spacing" textLength="34.84" x="262.3297" y="243.1678">Sim</text><text fill="#FF7C7C" font-family="Arial" font-size="20" lengthAdjust="spacing" textLength="197.6798" x="159.4898" y="215.9278">hamb e nav existem?</text><polygon fill="#333333" points="258.3297,807.0476,270.3297,819.0476,258.3297,831.0476,246.3297,819.0476,258.3297,807.0476" style="stroke:#FF0000;stroke-width:0.5;"/><rect fill="#222222" height="547.7798" style="stroke:#FF0000;stroke-width:1.5;" width="420.2996" x="54.1799" y="853.0476"/><path d="M206.8198,853.0476 L206.8198,873.2875 L196.8198,883.2875 L54.1799,883.2875" fill="none" style="stroke:#FF0000;stroke-width:1.5;"/><text fill="#00FFEE" font-family="Arial" font-size="20" lengthAdjust="spacing" textLength="142.6399" x="57.1799" y="875.4275">L&#243;gica do Logo</text><rect fill="#333333" height="47.24" rx="12.5" ry="12.5" style="stroke:#FF9F22;stroke-width:0.5;" width="215.6598" x="150.4998" y="900.2875"/><text fill="#75FF7B" font-family="Arial" font-size="20" lengthAdjust="spacing" textLength="195.6598" x="160.4998" y="931.6675">Selecionar #logo-svg</text><rect fill="#333333" height="47.24" rx="12.5" ry="12.5" style="stroke:#FF9F22;stroke-width:0.5;" width="214.9798" x="150.8398" y="1026.3875"/><text fill="#75FF7B" font-family="Arial" font-size="20" lengthAdjust="spacing" textLength="194.9798" x="160.8398" y="1057.7674">Definir resetarLogo()</text><rect fill="#333333" height="74.4799" rx="12.5" ry="12.5" style="stroke:#FF9F22;stroke-width:0.5;" width="368.2996" x="74.1799" y="1093.6274"/><text fill="#75FF7B" font-family="Arial" font-size="20" lengthAdjust="spacing" textLength="343.0995" x="84.1799" y="1125.0074">Add Event MouseEnter e TouchStart:</text><text fill="#75FF7B" font-family="Arial" font-size="20" lengthAdjust="spacing" textLength="205.6798" x="84.1799" y="1152.2474">Chamar resetarLogo()</text><rect fill="#333333" height="47.24" rx="12.5" ry="12.5" style="stroke:#FF9F22;stroke-width:0.5;" width="194.0798" x="161.2898" y="1203.1074"/><text fill="#75FF7B" font-family="Arial" font-size="20" lengthAdjust="spacing" textLength="174.0798" x="171.2898" y="1234.4874">Set cursor: pointer</text><rect fill="#333333" height="74.4799" rx="12.5" ry="12.5" style="stroke:#FF9F22;stroke-width:0.5;" width="365.7596" x="75.4499" y="1270.3474"/><text fill="#75FF7B" font-family="Arial" font-size="20" lengthAdjust="spacing" textLength="148.5198" x="85.4499" y="1301.7273">Add Event Click:</text><text fill="#75FF7B" font-family="Arial" font-size="20" lengthAdjust="spacing" textLength="345.7596" x="85.4499" y="1328.9673">window.location.href = '#secao-hero'</text><polygon fill="#333333" points="161.1398,967.5275,355.5196,967.5275,367.5196,981.1475,355.5196,994.7675,161.1398,994.7675,149.1398,981.1475,161.1398,967.5275" style="stroke:#FF0000;stroke-width:0.5;"/><text fill="#F2FF3B" font-family="Arial" font-size="20" lengthAdjust="spacing" textLength="34.84" x="262.3297" y="1016.1475">Sim</text><text fill="#FF7C7C" font-family="Arial" font-size="20" lengthAdjust="spacing" textLength="194.3798" x="161.1398" y="988.9075">logoAnimada existe?</text><polygon fill="#333333" points="258.3297,1364.8273,270.3297,1376.8273,258.3297,1388.8273,246.3297,1376.8273,258.3297,1364.8273" style="stroke:#FF0000;stroke-width:0.5;"/><rect fill="#222222" height="382.9898" style="stroke:#FF0000;stroke-width:1.5;" width="713.9519" x="69.7798" y="1410.8273"/><path d="M375.4995,1410.8273 L375.4995,1431.0673 L365.4995,1441.0673 L69.7798,1441.0673" fill="none" style="stroke:#FF0000;stroke-width:1.5;"/><text fill="#00FFEE" font-family="Arial" font-size="20" lengthAdjust="spacing" textLength="295.7197" x="72.7798" y="1433.2073">Navega&#231;&#227;o do Slide (SVG Reset)</text><rect fill="#333333" height="47.24" rx="12.5" ry="12.5" style="stroke:#FF9F22;stroke-width:0.5;" width="326.2396" x="95.2099" y="1458.0673"/><text fill="#75FF7B" font-family="Arial" font-size="20" lengthAdjust="spacing" textLength="306.2396" x="105.2099" y="1489.4473">Selecionar todos .btn-navegacao</text><rect fill="#333333" height="47.24" rx="12.5" ry="12.5" style="stroke:#FF9F22;stroke-width:0.5;" width="216.9998" x="149.8298" y="1603.4072"/><text fill="#75FF7B" font-family="Arial" font-size="20" lengthAdjust="spacing" textLength="196.9998" x="159.8298" y="1634.7872">Definir resetarAnim()</text><path d="M432.8795,1693.0613 L432.8795,1718.5772 L412.8795,1722.5772 L432.8795,1726.5772 L432.8795,1752.093 A0,0 0 0 0 432.8795,1752.093 L752.7317,1752.093 A0,0 0 0 0 752.7317,1752.093 L752.7317,1703.0613 L742.7317,1693.0613 L432.8795,1693.0613 A0,0 0 0 0 432.8795,1693.0613" fill="#333333" style="stroke:#FF9F22;stroke-width:0.5;"/><path d="M742.7317,1693.0613 L742.7317,1703.0613 L752.7317,1703.0613 L742.7317,1693.0613" fill="#333333" style="stroke:#FF9F22;stroke-width:0.5;"/><text fill="#75FF7B" font-family="Arial" font-size="18" lengthAdjust="spacing" textLength="298.8522" x="438.8795" y="1717.3032">Acessa contentDocument do object</text><text fill="#75FF7B" font-family="Arial" font-size="18" lengthAdjust="spacing" textLength="217.0067" x="438.8795" y="1741.819">e reinicia o tempo do SVG</text><rect fill="#333333" height="74.4799" rx="12.5" ry="12.5" style="stroke:#FF9F22;stroke-width:0.5;" width="309.0997" x="103.7798" y="1685.3372"/><text fill="#75FF7B" font-family="Arial" font-size="20" lengthAdjust="spacing" textLength="283.8997" x="113.7798" y="1716.7172">Add Event MouseEnter e Click:</text><text fill="#75FF7B" font-family="Arial" font-size="20" lengthAdjust="spacing" textLength="207.6998" x="113.7798" y="1743.9571">Chamar resetarAnim()</text><polygon fill="#333333" points="197.0498,1533.2872,319.6096,1533.2872,331.6096,1546.9072,319.6096,1560.5272,197.0498,1560.5272,185.0498,1546.9072,197.0498,1533.2872" style="stroke:#FF0000;stroke-width:0.5;"/><text fill="#F2FF3B" font-family="Arial" font-size="20" lengthAdjust="spacing" textLength="34.84" x="262.3297" y="1581.9072">Sim</text><text fill="#FF7C7C" font-family="Arial" font-size="20" lengthAdjust="spacing" textLength="122.5599" x="197.0498" y="1554.6672">Mais bot&#245;es?</text><text fill="#F2FF3B" font-family="Arial" font-size="20" lengthAdjust="spacing" textLength="38.52" x="146.5298" y="1541.0472">N&#227;o</text><rect fill="#222222" height="115.3758" style="stroke:#FF0000;stroke-width:1.5;" width="778.4778" x="11" y="1803.8171"/><path d="M261.4397,1803.8171 L261.4397,1824.0571 L251.4397,1834.0571 L11,1834.0571" fill="none" style="stroke:#FF0000;stroke-width:1.5;"/><text fill="#00FFEE" font-family="Arial" font-size="20" lengthAdjust="spacing" textLength="240.4397" x="14" y="1826.1971">Scroll Suave Customizado</text><path d="M515.6594,1848.1613 L515.6594,1873.6771 L495.6594,1877.6771 L515.6594,1881.6771 L515.6594,1907.1929 A0,0 0 0 0 515.6594,1907.1929 L779.4778,1907.1929 A0,0 0 0 0 779.4778,1907.1929 L779.4778,1858.1613 L769.4778,1848.1613 L515.6594,1848.1613 A0,0 0 0 0 515.6594,1848.1613" fill="#333333" style="stroke:#FF9F22;stroke-width:0.5;"/><path d="M769.4778,1848.1613 L769.4778,1858.1613 L779.4778,1858.1613 L769.4778,1848.1613" fill="#333333" style="stroke:#FF9F22;stroke-width:0.5;"/><text fill="#75FF7B" font-family="Arial" font-size="18" lengthAdjust="spacing" textLength="242.8185" x="521.6594" y="1872.4031">Usa requestAnimationFrame</text><text fill="#75FF7B" font-family="Arial" font-size="18" lengthAdjust="spacing" textLength="174.0769" x="521.6594" y="1896.919">e easing Quartic Out</text><rect fill="#333333" height="47.24" rx="12.5" ry="12.5" style="stroke:#FF9F22;stroke-width:0.5;" width="474.6594" x="21" y="1854.0571"/><text fill="#75FF7B" font-family="Arial" font-size="20" lengthAdjust="spacing" textLength="454.6594" x="31" y="1885.4371">Definir scrollSuaveCustomizado(target, duracao)</text><ellipse cx="258.3297" cy="1950.1929" fill="none" rx="11" ry="11" style="stroke:#222222;stroke-width:1;"/><ellipse cx="258.3297" cy="1950.1929" fill="#222222" rx="6" ry="6" style="stroke:#222222;stroke-width:1;"/><line style="stroke:#FF0000;stroke-width:2;" x1="258.3297" x2="258.3297" y1="375.1278" y2="406.7477"/><polygon fill="#FF0000" points="254.3297,396.7477,258.3297,406.7477,262.3297,396.7477,258.3297,400.7477" style="stroke:#FF0000;stroke-width:1;"/><line style="stroke:#FF0000;stroke-width:2;" x1="352.3096" x2="422.8695" y1="361.5078" y2="361.5078"/><polygon fill="#FF0000" points="418.8695,433.1777,422.8695,443.1777,426.8695,433.1777,422.8695,437.1777" style="stroke:#FF0000;stroke-width:2;"/><line style="stroke:#FF0000;stroke-width:2;" x1="422.8695" x2="422.8695" y1="361.5078" y2="513.2277"/><line style="stroke:#FF0000;stroke-width:2;" x1="422.8695" x2="270.3297" y1="513.2277" y2="513.2277"/><polygon fill="#FF0000" points="280.3297,509.2277,270.3297,513.2277,280.3297,517.2277,276.3297,513.2277" style="stroke:#FF0000;stroke-width:1;"/><line style="stroke:#FF0000;stroke-width:2;" x1="258.3297" x2="258.3297" y1="481.2277" y2="501.2277"/><polygon fill="#FF0000" points="254.3297,491.2277,258.3297,501.2277,262.3297,491.2277,258.3297,495.2277" style="stroke:#FF0000;stroke-width:1;"/><line style="stroke:#FF0000;stroke-width:2;" x1="258.3297" x2="258.3297" y1="327.8878" y2="347.8878"/><polygon fill="#FF0000" points="254.3297,337.8878,258.3297,347.8878,262.3297,337.8878,258.3297,341.8878" style="stroke:#FF0000;stroke-width:1;"/><line style="stroke:#FF0000;stroke-width:2;" x1="258.3297" x2="258.3297" y1="525.2277" y2="545.2277"/><polygon fill="#FF0000" points="254.3297,535.2277,258.3297,545.2277,262.3297,535.2277,258.3297,539.2277" style="stroke:#FF0000;stroke-width:1;"/><line style="stroke:#FF0000;stroke-width:2;" x1="258.3297" x2="258.3297" y1="647.6876" y2="690.5676"/><polygon fill="#FF0000" points="254.3297,680.5676,258.3297,690.5676,262.3297,680.5676,258.3297,684.5676" style="stroke:#FF0000;stroke-width:1;"/><line style="stroke:#FF0000;stroke-width:2;" x1="258.3297" x2="258.3297" y1="765.0476" y2="775.0476"/><line style="stroke:#FF0000;stroke-width:2;" x1="258.3297" x2="357.1896" y1="775.0476" y2="775.0476"/><polygon fill="#FF0000" points="353.1896,711.3776,357.1896,701.3776,361.1896,711.3776,357.1896,707.3776" style="stroke:#FF0000;stroke-width:2;"/><line style="stroke:#FF0000;stroke-width:2;" x1="357.1896" x2="357.1896" y1="634.0676" y2="775.0476"/><line style="stroke:#FF0000;stroke-width:2;" x1="357.1896" x2="320.7896" y1="634.0676" y2="634.0676"/><polygon fill="#FF0000" points="330.7896,630.0676,320.7896,634.0676,330.7896,638.0676,326.7896,634.0676" style="stroke:#FF0000;stroke-width:1;"/><line style="stroke:#FF0000;stroke-width:2;" x1="195.8697" x2="159.4698" y1="634.0676" y2="634.0676"/><polygon fill="#FF0000" points="155.4698,697.3776,159.4698,707.3776,163.4698,697.3776,159.4698,701.3776" style="stroke:#FF0000;stroke-width:2;"/><line style="stroke:#FF0000;stroke-width:2;" x1="159.4698" x2="159.4698" y1="634.0676" y2="787.0476"/><line style="stroke:#FF0000;stroke-width:2;" x1="159.4698" x2="258.3297" y1="787.0476" y2="787.0476"/><line style="stroke:#FF0000;stroke-width:2;" x1="258.3297" x2="258.3297" y1="787.0476" y2="807.0476"/><polygon fill="#FF0000" points="254.3297,797.0476,258.3297,807.0476,262.3297,797.0476,258.3297,801.0476" style="stroke:#FF0000;stroke-width:1;"/><line style="stroke:#FF0000;stroke-width:2;" x1="258.3297" x2="258.3297" y1="592.4677" y2="620.4476"/><polygon fill="#FF0000" points="254.3297,610.4476,258.3297,620.4476,262.3297,610.4476,258.3297,614.4476" style="stroke:#FF0000;stroke-width:1;"/><line style="stroke:#FF0000;stroke-width:2;" x1="258.3297" x2="258.3297" y1="221.7878" y2="253.4078"/><polygon fill="#FF0000" points="254.3297,243.4078,258.3297,253.4078,262.3297,243.4078,258.3297,247.4078" style="stroke:#FF0000;stroke-width:1;"/><line style="stroke:#FF0000;stroke-width:2;" x1="369.1696" x2="444.8695" y1="208.1679" y2="208.1679"/><polygon fill="#FF0000" points="440.8695,512.2977,444.8695,522.2977,448.8695,512.2977,444.8695,516.2977" style="stroke:#FF0000;stroke-width:2;"/><line style="stroke:#FF0000;stroke-width:2;" x1="444.8695" x2="444.8695" y1="208.1679" y2="819.0476"/><line style="stroke:#FF0000;stroke-width:2;" x1="444.8695" x2="270.3297" y1="819.0476" y2="819.0476"/><polygon fill="#FF0000" points="280.3297,815.0476,270.3297,819.0476,280.3297,823.0476,276.3297,819.0476" style="stroke:#FF0000;stroke-width:1;"/><line style="stroke:#FF0000;stroke-width:2;" x1="258.3297" x2="258.3297" y1="174.5479" y2="194.5479"/><polygon fill="#FF0000" points="254.3297,184.5479,258.3297,194.5479,262.3297,184.5479,258.3297,188.5479" style="stroke:#FF0000;stroke-width:1;"/><line style="stroke:#FF0000;stroke-width:2;" x1="258.3297" x2="258.3297" y1="70.0679" y2="127.3079"/><polygon fill="#FF0000" points="254.3297,117.3079,258.3297,127.3079,262.3297,117.3079,258.3297,121.3079" style="stroke:#FF0000;stroke-width:1;"/><line style="stroke:#FF0000;stroke-width:2;" x1="258.3297" x2="258.3297" y1="1073.6274" y2="1093.6274"/><polygon fill="#FF0000" points="254.3297,1083.6274,258.3297,1093.6274,262.3297,1083.6274,258.3297,1087.6274" style="stroke:#FF0000;stroke-width:1;"/><line style="stroke:#FF0000;stroke-width:2;" x1="258.3297" x2="258.3297" y1="1168.1074" y2="1203.1074"/><polygon fill="#FF0000" points="254.3297,1193.1074,258.3297,1203.1074,262.3297,1193.1074,258.3297,1197.1074" style="stroke:#FF0000;stroke-width:1;"/><line style="stroke:#FF0000;stroke-width:2;" x1="258.3297" x2="258.3297" y1="1250.3474" y2="1270.3474"/><polygon fill="#FF0000" points="254.3297,1260.3474,258.3297,1270.3474,262.3297,1260.3474,258.3297,1264.3474" style="stroke:#FF0000;stroke-width:1;"/><line style="stroke:#FF0000;stroke-width:2;" x1="258.3297" x2="258.3297" y1="994.7675" y2="1026.3875"/><polygon fill="#FF0000" points="254.3297,1016.3875,258.3297,1026.3875,262.3297,1016.3875,258.3297,1020.3875" style="stroke:#FF0000;stroke-width:1;"/><line style="stroke:#FF0000;stroke-width:2;" x1="367.5196" x2="452.4795" y1="981.1475" y2="981.1475"/><polygon fill="#FF0000" points="448.4795,1174.7974,452.4795,1184.7974,456.4795,1174.7974,452.4795,1178.7974" style="stroke:#FF0000;stroke-width:2;"/><line style="stroke:#FF0000;stroke-width:2;" x1="452.4795" x2="452.4795" y1="981.1475" y2="1376.8273"/><line style="stroke:#FF0000;stroke-width:2;" x1="452.4795" x2="270.3297" y1="1376.8273" y2="1376.8273"/><polygon fill="#FF0000" points="280.3297,1372.8273,270.3297,1376.8273,280.3297,1380.8273,276.3297,1376.8273" style="stroke:#FF0000;stroke-width:1;"/><line style="stroke:#FF0000;stroke-width:2;" x1="258.3297" x2="258.3297" y1="1344.8273" y2="1364.8273"/><polygon fill="#FF0000" points="254.3297,1354.8273,258.3297,1364.8273,262.3297,1354.8273,258.3297,1358.8273" style="stroke:#FF0000;stroke-width:1;"/><line style="stroke:#FF0000;stroke-width:2;" x1="258.3297" x2="258.3297" y1="947.5275" y2="967.5275"/><polygon fill="#FF0000" points="254.3297,957.5275,258.3297,967.5275,262.3297,957.5275,258.3297,961.5275" style="stroke:#FF0000;stroke-width:1;"/><line style="stroke:#FF0000;stroke-width:2;" x1="258.3297" x2="258.3297" y1="831.0476" y2="900.2875"/><polygon fill="#FF0000" points="254.3297,890.2875,258.3297,900.2875,262.3297,890.2875,258.3297,894.2875" style="stroke:#FF0000;stroke-width:1;"/><line style="stroke:#FF0000;stroke-width:2;" x1="258.3297" x2="258.3297" y1="1650.6472" y2="1685.3372"/><polygon fill="#FF0000" points="254.3297,1675.3372,258.3297,1685.3372,262.3297,1675.3372,258.3297,1679.3372" style="stroke:#FF0000;stroke-width:1;"/><line style="stroke:#FF0000;stroke-width:2;" x1="258.3297" x2="258.3297" y1="1560.5272" y2="1603.4072"/><polygon fill="#FF0000" points="254.3297,1593.4072,258.3297,1603.4072,262.3297,1593.4072,258.3297,1597.4072" style="stroke:#FF0000;stroke-width:1;"/><line style="stroke:#FF0000;stroke-width:2;" x1="258.3297" x2="258.3297" y1="1759.8171" y2="1769.8171"/><line style="stroke:#FF0000;stroke-width:2;" x1="258.3297" x2="764.7317" y1="1769.8171" y2="1769.8171"/><polygon fill="#FF0000" points="760.7317,1665.3372,764.7317,1655.3372,768.7317,1665.3372,764.7317,1661.3372" style="stroke:#FF0000;stroke-width:2;"/><line style="stroke:#FF0000;stroke-width:2;" x1="764.7317" x2="764.7317" y1="1546.9072" y2="1769.8171"/><line style="stroke:#FF0000;stroke-width:2;" x1="764.7317" x2="331.6096" y1="1546.9072" y2="1546.9072"/><polygon fill="#FF0000" points="341.6096,1542.9072,331.6096,1546.9072,341.6096,1550.9072,337.6096,1546.9072" style="stroke:#FF0000;stroke-width:1;"/><line style="stroke:#FF0000;stroke-width:2;" x1="185.0498" x2="91.7798" y1="1546.9072" y2="1546.9072"/><polygon fill="#FF0000" points="87.7798,1651.3372,91.7798,1661.3372,95.7798,1651.3372,91.7798,1655.3372" style="stroke:#FF0000;stroke-width:2;"/><line style="stroke:#FF0000;stroke-width:2;" x1="91.7798" x2="91.7798" y1="1546.9072" y2="1781.8171"/><line style="stroke:#FF0000;stroke-width:2;" x1="91.7798" x2="258.3297" y1="1781.8171" y2="1781.8171"/><line style="stroke:#FF0000;stroke-width:2;" x1="258.3297" x2="258.3297" y1="1781.8171" y2="1854.0571"/><polygon fill="#FF0000" points="254.3297,1844.0571,258.3297,1854.0571,262.3297,1844.0571,258.3297,1848.0571" style="stroke:#FF0000;stroke-width:1;"/><line style="stroke:#FF0000;stroke-width:2;" x1="258.3297" x2="258.3297" y1="1505.3073" y2="1533.2872"/><polygon fill="#FF0000" points="254.3297,1523.2872,258.3297,1533.2872,262.3297,1523.2872,258.3297,1527.2872" style="stroke:#FF0000;stroke-width:1;"/><line style="stroke:#FF0000;stroke-width:2;" x1="258.3297" x2="258.3297" y1="1388.8273" y2="1458.0673"/><polygon fill="#FF0000" points="254.3297,1448.0673,258.3297,1458.0673,262.3297,1448.0673,258.3297,1452.0673" style="stroke:#FF0000;stroke-width:1;"/><line style="stroke:#FF0000;stroke-width:2;" x1="258.3297" x2="258.3297" y1="1901.2971" y2="1939.1929"/><polygon fill="#FF0000" points="254.3297,1929.1929,258.3297,1939.1929,262.3297,1929.1929,258.3297,1933.1929" style="stroke:#FF0000;stroke-width:1;"/><?plantuml-src jLNDRjiu4BxhAGRD8JBG6AcB8gsDnS9rug10ag9LjwUzKDH8OYrnN99oqXPvcZti0nHzWhnOX_IVxChPlPGm38aSpZVVDpywXWdfN1MD4G__Fln02vSLfK9Po10kh5CLGKALaig9JDZ8pfIU2oDgI8MS5OOQdKse8WD7pyDgMMIOYwPoKz8kKLyH1gVTXwlx-I3FdwVT9ZUYHXWR9QeeEbx7vQt0eji9QsmCtQuyJgUdlFOFFvHApZHQ2uDzPrAeEn6e2wSMAXFy5Ek7xxRNSYAaFtDVu5i4l5uVq26SaSdGhFdbh_B18EotM9-zoFEpTBEx5ig_dojHayuU0rYRj75Mh5l7RP7pCtace_jzveLfvcGXvXUdbfNGvXosdIAz9dq0i8LqUfhdYDqI3SBwDOeRucH2FDca8HULQCUXoU7lq_tPInyI4wqGfbLpHmLZ2gXHD_rFDegiOncYQ2l6apUQEqDKwgllddy8ulEtrznG3hMx8gwUhFTa5UummGebNn86Ib6dJq6B1I2aJazHbiACWbduKpd4teQFWz6TiWxhFtlWIjGG9whk1RlWTvnbSB5WG9Xmcyu0w-1_27_hYpkLAXFYXxZlIvfweytDpOE7suInGki6EmIukHrGhUIQmoNk5Wvrfl9VmOTNHFCXVA2Couz_bT8pBW7HWumy-ws3sr9nNk9hFvo25SV8Z_yTuUD1hTpUSFgMRfQ1tk_a-UhXUw6ay35TKK5TIJsg-E34BehH9eT-PwnLpPFpKLc7vvWhpPaowCUPyH1nArCjGjVKMBpW0kD4iMYDB1DVb9xYXDCk3lj8q85iZ2LEqfoKTp6A7fFiLkcCRliLIU55w9S6S_W3ZeyiIa4d9Hew7XrKx4Oii5Xr1QkMLChFqkJZ9Rpt0NRsXGj5qETgEj7XEkCi4TgvJydvyTIL_NqXlVZ_HyWDvrqDzw-7wMDKKRgTUXjB_fZmnsFPz-SaczeZC6jAFw7SDMO7gCBK00BkwlbIde-NxPeCI55NWUwAd4X3LGL9msh1fB6EQXv5sRO-rthOO1ZiMcOnSopGFOMCF_-izOfg1ys_c9_1pmrQ5mhQmqzvEE8sQa1XbIxWNUFZa_2sST4EdNi_G6aU_GG0?></g></svg>