<?plantuml 1.2026.2?><svg xmlns="http://www.w3.org/2000/svg" xmlns:xlink="http://www.w3.org/1999/xlink" contentStyleType="text/css" data-diagram-type="MINDMAP" height="1971px" preserveAspectRatio="none" style="width:1224px;height:1971px;background:#FFFFFF;" version="1.1" viewBox="0 0 1224 1971" width="1224px" zoomAndPan="magnify"><defs/><g><rect fill="#333333" height="52.6879" rx="12.5" ry="12.5" style="stroke:#FF0000;stroke-width:1.5;" width="219.1514" x="10" y="958.6357"/><text fill="#F2FF3B" font-family="Arial" font-size="24" lengthAdjust="spacing" textLength="199.1514" x="20" y="994.2916">IRM&#195;OS BERRETA</text><rect fill="#333333" height="47.24" rx="12.5" ry="12.5" style="stroke:#FF0000;stroke-width:1.5;" width="225.2798" x="279.1514" y="221.7199"/><text fill="#00FFEE" font-family="Arial" font-size="20" lengthAdjust="spacing" textLength="205.2798" x="289.1514" y="253.0999">index.html (Estrutura)</text><rect fill="#333333" height="47.24" rx="12.5" ry="12.5" style="stroke:#FF9F22;stroke-width:1.5;" width="132.5799" x="554.4312" y="87.24"/><text fill="#75FF7B" font-family="Arial" font-size="20" lengthAdjust="spacing" textLength="112.5799" x="564.4312" y="118.62">Header Fixo</text><rect fill="#333333" height="47.24" rx="12.5" ry="12.5" style="stroke:#FF9F22;stroke-width:1.5;" width="211.5398" x="737.0111" y="20"/><text fill="#75FF7B" font-family="Arial" font-size="20" lengthAdjust="spacing" textLength="191.5398" x="747.0111" y="51.38">Logo Animado (SVG)</text><path d="M687.0111,110.86 L697.0111,110.86 C712.0111,110.86 712.0111,43.62 727.0111,43.62 L737.0111,43.62" fill="none" style="stroke:#FF0000;stroke-width:2;"/><rect fill="#333333" height="47.24" rx="12.5" ry="12.5" style="stroke:#FF9F22;stroke-width:1.5;" width="277.8797" x="737.0111" y="87.24"/><text fill="#75FF7B" font-family="Arial" font-size="20" lengthAdjust="spacing" textLength="257.8797" x="747.0111" y="118.62">Menu de Navega&#231;&#227;o (Links)</text><path d="M687.0111,110.86 L697.0111,110.86 C712.0111,110.86 712.0111,110.86 727.0111,110.86 L737.0111,110.86" fill="none" style="stroke:#FF0000;stroke-width:2;"/><rect fill="#333333" height="47.24" rx="12.5" ry="12.5" style="stroke:#FF9F22;stroke-width:1.5;" width="234.2998" x="737.0111" y="154.4799"/><text fill="#75FF7B" font-family="Arial" font-size="20" lengthAdjust="spacing" textLength="214.2998" x="747.0111" y="185.8599">CTA: Bot&#227;o Or&#231;amento</text><path d="M687.0111,110.86 L697.0111,110.86 C712.0111,110.86 712.0111,178.0999 727.0111,178.0999 L737.0111,178.0999" fill="none" style="stroke:#FF0000;stroke-width:2;"/><path d="M504.4312,245.3399 L514.4312,245.3399 C529.4312,245.3399 529.4312,110.86 544.4312,110.86 L554.4312,110.86" fill="none" style="stroke:#FF0000;stroke-width:2;"/><rect fill="#333333" height="47.24" rx="12.5" ry="12.5" style="stroke:#FF9F22;stroke-width:1.5;" width="126.8399" x="554.4312" y="322.5799"/><text fill="#75FF7B" font-family="Arial" font-size="20" lengthAdjust="spacing" textLength="106.8399" x="564.4312" y="353.9599">Se&#231;&#227;o Hero</text><rect fill="#333333" height="47.24" rx="12.5" ry="12.5" style="stroke:#FF9F22;stroke-width:1.5;" width="235.4798" x="731.2711" y="221.7199"/><text fill="#75FF7B" font-family="Arial" font-size="20" lengthAdjust="spacing" textLength="215.4798" x="741.2711" y="253.0999">Container do Carrossel</text><path d="M681.2711,346.1999 L691.2711,346.1999 C706.2711,346.1999 706.2711,245.3399 721.2711,245.3399 L731.2711,245.3399" fill="none" style="stroke:#FF0000;stroke-width:2;"/><rect fill="#333333" height="47.24" rx="12.5" ry="12.5" style="stroke:#FF9F22;stroke-width:1.5;" width="336.1996" x="731.2711" y="288.9599"/><text fill="#75FF7B" font-family="Arial" font-size="20" lengthAdjust="spacing" textLength="316.1996" x="741.2711" y="320.3399">Slides Individuais (picture/source)</text><path d="M681.2711,346.1999 L691.2711,346.1999 C706.2711,346.1999 706.2711,312.5799 721.2711,312.5799 L731.2711,312.5799" fill="none" style="stroke:#FF0000;stroke-width:2;"/><rect fill="#333333" height="47.24" rx="12.5" ry="12.5" style="stroke:#FF9F22;stroke-width:1.5;" width="344.6796" x="731.2711" y="356.1999"/><text fill="#75FF7B" font-family="Arial" font-size="20" lengthAdjust="spacing" textLength="324.6796" x="741.2711" y="387.5799">Bot&#245;es de Navega&#231;&#227;o (Object SVG)</text><path d="M681.2711,346.1999 L691.2711,346.1999 C706.2711,346.1999 706.2711,379.8199 721.2711,379.8199 L731.2711,379.8199" fill="none" style="stroke:#FF0000;stroke-width:2;"/><rect fill="#333333" height="47.24" rx="12.5" ry="12.5" style="stroke:#FF9F22;stroke-width:1.5;" width="211.8998" x="731.2711" y="423.4398"/><text fill="#75FF7B" font-family="Arial" font-size="20" lengthAdjust="spacing" textLength="191.8998" x="741.2711" y="454.8198">Indicadores (Bullets)</text><path d="M681.2711,346.1999 L691.2711,346.1999 C706.2711,346.1999 706.2711,447.0598 721.2711,447.0598 L731.2711,447.0598" fill="none" style="stroke:#FF0000;stroke-width:2;"/><path d="M504.4312,245.3399 L514.4312,245.3399 C529.4312,245.3399 529.4312,346.1999 544.4312,346.1999 L554.4312,346.1999" fill="none" style="stroke:#FF0000;stroke-width:2;"/><path d="M229.1514,984.9796 L239.1514,984.9796 C254.1514,984.9796 254.1514,245.3399 269.1514,245.3399 L279.1514,245.3399" fill="none" style="stroke:#FF0000;stroke-width:2;"/><rect fill="#333333" height="47.24" rx="12.5" ry="12.5" style="stroke:#FF0000;stroke-width:1.5;" width="250.5397" x="279.1514" y="658.7798"/><text fill="#00FFEE" font-family="Arial" font-size="20" lengthAdjust="spacing" textLength="230.5397" x="289.1514" y="690.1597">carrossel.css (Apar&#234;ncia)</text><rect fill="#333333" height="47.24" rx="12.5" ry="12.5" style="stroke:#FF9F22;stroke-width:1.5;" width="261.0798" x="579.6912" y="490.6798"/><text fill="#75FF7B" font-family="Arial" font-size="20" lengthAdjust="spacing" textLength="241.0798" x="589.6912" y="522.0598">Layout Grid (Header/Fixo)</text><path d="M529.6912,682.3997 L539.6912,682.3997 C554.6912,682.3997 554.6912,514.2998 569.6912,514.2998 L579.6912,514.2998" fill="none" style="stroke:#FF0000;stroke-width:2;"/><rect fill="#333333" height="47.24" rx="12.5" ry="12.5" style="stroke:#FF9F22;stroke-width:1.5;" width="223.1198" x="579.6912" y="557.9198"/><text fill="#75FF7B" font-family="Arial" font-size="20" lengthAdjust="spacing" textLength="203.1198" x="589.6912" y="589.2998">Scroll Suave (Smooth)</text><path d="M529.6912,682.3997 L539.6912,682.3997 C554.6912,682.3997 554.6912,581.5398 569.6912,581.5398 L579.6912,581.5398" fill="none" style="stroke:#FF0000;stroke-width:2;"/><rect fill="#333333" height="47.24" rx="12.5" ry="12.5" style="stroke:#FF9F22;stroke-width:1.5;" width="196.2998" x="579.6912" y="625.1598"/><text fill="#75FF7B" font-family="Arial" font-size="20" lengthAdjust="spacing" textLength="176.2998" x="589.6912" y="656.5398">Estilos Mobile-First</text><path d="M529.6912,682.3997 L539.6912,682.3997 C554.6912,682.3997 554.6912,648.7798 569.6912,648.7798 L579.6912,648.7798" fill="none" style="stroke:#FF0000;stroke-width:2;"/><rect fill="#333333" height="47.24" rx="12.5" ry="12.5" style="stroke:#FF9F22;stroke-width:1.5;" width="449.4994" x="579.6912" y="692.3997"/><text fill="#75FF7B" font-family="Arial" font-size="20" lengthAdjust="spacing" textLength="429.4994" x="589.6912" y="723.7797">Degrad&#234; para contraste para leitura de textos</text><path d="M529.6912,682.3997 L539.6912,682.3997 C554.6912,682.3997 554.6912,716.0197 569.6912,716.0197 L579.6912,716.0197" fill="none" style="stroke:#FF0000;stroke-width:2;"/><rect fill="#333333" height="47.24" rx="12.5" ry="12.5" style="stroke:#FF9F22;stroke-width:1.5;" width="632.6193" x="579.6912" y="759.6397"/><text fill="#75FF7B" font-family="Arial" font-size="20" lengthAdjust="spacing" textLength="612.6193" x="589.6912" y="791.0197">Anima&#231;&#245;es de Entrada dos textos (Controlado por media queries)</text><path d="M529.6912,682.3997 L539.6912,682.3997 C554.6912,682.3997 554.6912,783.2597 569.6912,783.2597 L579.6912,783.2597" fill="none" style="stroke:#FF0000;stroke-width:2;"/><rect fill="#333333" height="47.24" rx="12.5" ry="12.5" style="stroke:#FF9F22;stroke-width:1.5;" width="355.1396" x="579.6912" y="826.8797"/><text fill="#75FF7B" font-family="Arial" font-size="20" lengthAdjust="spacing" textLength="335.1396" x="589.6912" y="858.2597">Estiliza&#231;&#227;o do Carrossel (Flex/Trilha)</text><path d="M529.6912,682.3997 L539.6912,682.3997 C554.6912,682.3997 554.6912,850.4997 569.6912,850.4997 L579.6912,850.4997" fill="none" style="stroke:#FF0000;stroke-width:2;"/><path d="M229.1514,984.9796 L239.1514,984.9796 C254.1514,984.9796 254.1514,682.3997 269.1514,682.3997 L279.1514,682.3997" fill="none" style="stroke:#FF0000;stroke-width:2;"/><rect fill="#333333" height="47.24" rx="12.5" ry="12.5" style="stroke:#FF0000;stroke-width:1.5;" width="270.3197" x="279.1514" y="994.9796"/><text fill="#00FFEE" font-family="Arial" font-size="20" lengthAdjust="spacing" textLength="250.3197" x="289.1514" y="1026.3596">root.css (Vari&#225;veis Globais)</text><rect fill="#333333" height="47.24" rx="12.5" ry="12.5" style="stroke:#FF9F22;stroke-width:1.5;" width="350.9996" x="599.4711" y="894.1197"/><text fill="#75FF7B" font-family="Arial" font-size="20" lengthAdjust="spacing" textLength="330.9996" x="609.4711" y="925.4997">Defini&#231;&#227;o de Cores (Design Tokens)</text><path d="M549.4711,1018.5996 L559.4711,1018.5996 C574.4711,1018.5996 574.4711,917.7397 589.4711,917.7397 L599.4711,917.7397" fill="none" style="stroke:#FF0000;stroke-width:2;"/><rect fill="#333333" height="47.24" rx="12.5" ry="12.5" style="stroke:#FF9F22;stroke-width:1.5;" width="200.3198" x="599.4711" y="961.3596"/><text fill="#75FF7B" font-family="Arial" font-size="20" lengthAdjust="spacing" textLength="180.3198" x="609.4711" y="992.7396">Tipografia e Fontes</text><path d="M549.4711,1018.5996 L559.4711,1018.5996 C574.4711,1018.5996 574.4711,984.9796 589.4711,984.9796 L599.4711,984.9796" fill="none" style="stroke:#FF0000;stroke-width:2;"/><rect fill="#333333" height="47.24" rx="12.5" ry="12.5" style="stroke:#FF9F22;stroke-width:1.5;" width="501.6994" x="599.4711" y="1028.5996"/><text fill="#75FF7B" font-family="Arial" font-size="20" lengthAdjust="spacing" textLength="481.6994" x="609.4711" y="1059.9796">Reset do navegador (Paddings/Margins/Box-Sizing)</text><path d="M549.4711,1018.5996 L559.4711,1018.5996 C574.4711,1018.5996 574.4711,1052.2196 589.4711,1052.2196 L599.4711,1052.2196" fill="none" style="stroke:#FF0000;stroke-width:2;"/><rect fill="#333333" height="47.24" rx="12.5" ry="12.5" style="stroke:#FF9F22;stroke-width:1.5;" width="252.6797" x="599.4711" y="1095.8396"/><text fill="#75FF7B" font-family="Arial" font-size="20" lengthAdjust="spacing" textLength="232.6797" x="609.4711" y="1127.2196">Transi&#231;&#245;es Padronizadas</text><path d="M549.4711,1018.5996 L559.4711,1018.5996 C574.4711,1018.5996 574.4711,1119.4596 589.4711,1119.4596 L599.4711,1119.4596" fill="none" style="stroke:#FF0000;stroke-width:2;"/><path d="M229.1514,984.9796 L239.1514,984.9796 C254.1514,984.9796 254.1514,1018.5996 269.1514,1018.5996 L279.1514,1018.5996" fill="none" style="stroke:#FF0000;stroke-width:2;"/><rect fill="#333333" height="47.24" rx="12.5" ry="12.5" style="stroke:#FF0000;stroke-width:1.5;" width="257.1997" x="279.1514" y="1532.8994"/><text fill="#00FFEE" font-family="Arial" font-size="20" lengthAdjust="spacing" textLength="237.1997" x="289.1514" y="1564.2794">assets/js/ (Interatividade)</text><rect fill="#333333" height="47.24" rx="12.5" ry="12.5" style="stroke:#FF9F22;stroke-width:1.5;" width="94.7999" x="586.3511" y="1263.9395"/><text fill="#75FF7B" font-family="Arial" font-size="20" lengthAdjust="spacing" textLength="74.7999" x="596.3511" y="1295.3195">menu.js</text><rect fill="#333333" height="47.24" rx="12.5" ry="12.5" style="stroke:#FF9F22;stroke-width:1.5;" width="481.1594" x="731.151" y="1163.0796"/><text fill="#75FF7B" font-family="Arial" font-size="20" lengthAdjust="spacing" textLength="461.1594" x="741.151" y="1194.4596">Controle Menu Mobile (menu hamb&#250;rguer/Ativo)</text><path d="M681.151,1287.5595 L691.151,1287.5595 C706.151,1287.5595 706.151,1186.6996 721.151,1186.6996 L731.151,1186.6996" fill="none" style="stroke:#FF0000;stroke-width:2;"/><rect fill="#333333" height="47.24" rx="12.5" ry="12.5" style="stroke:#FF9F22;stroke-width:1.5;" width="363.5596" x="731.151" y="1230.3195"/><text fill="#75FF7B" font-family="Arial" font-size="20" lengthAdjust="spacing" textLength="343.5596" x="741.151" y="1261.6995">Reset de Anima&#231;&#227;o SVG (Logo/Setas)</text><path d="M681.151,1287.5595 L691.151,1287.5595 C706.151,1287.5595 706.151,1253.9395 721.151,1253.9395 L731.151,1253.9395" fill="none" style="stroke:#FF0000;stroke-width:2;"/><rect fill="#333333" height="47.24" rx="12.5" ry="12.5" style="stroke:#FF9F22;stroke-width:1.5;" width="302.7597" x="731.151" y="1297.5595"/><text fill="#75FF7B" font-family="Arial" font-size="20" lengthAdjust="spacing" textLength="282.7597" x="741.151" y="1328.9395">Link de Retorno (#secao-hero)</text><path d="M681.151,1287.5595 L691.151,1287.5595 C706.151,1287.5595 706.151,1321.1795 721.151,1321.1795 L731.151,1321.1795" fill="none" style="stroke:#FF0000;stroke-width:2;"/><rect fill="#333333" height="47.24" rx="12.5" ry="12.5" style="stroke:#FF9F22;stroke-width:1.5;" width="387.4796" x="731.151" y="1364.7995"/><text fill="#75FF7B" font-family="Arial" font-size="20" lengthAdjust="spacing" textLength="367.4796" x="741.151" y="1396.1795">Scroll Suave Customizado (Quartic Out)</text><path d="M681.151,1287.5595 L691.151,1287.5595 C706.151,1287.5595 706.151,1388.4195 721.151,1388.4195 L731.151,1388.4195" fill="none" style="stroke:#FF0000;stroke-width:2;"/><path d="M536.3511,1556.5194 L546.3511,1556.5194 C561.3511,1556.5194 561.3511,1287.5595 576.3511,1287.5595 L586.3511,1287.5595" fill="none" style="stroke:#FF0000;stroke-width:2;"/><rect fill="#333333" height="47.24" rx="12.5" ry="12.5" style="stroke:#FF9F22;stroke-width:1.5;" width="125.1399" x="586.3511" y="1532.8994"/><text fill="#75FF7B" font-family="Arial" font-size="20" lengthAdjust="spacing" textLength="105.1399" x="596.3511" y="1564.2794">carrossel.js</text><rect fill="#333333" height="47.24" rx="12.5" ry="12.5" style="stroke:#FF9F22;stroke-width:1.5;" width="319.1797" x="761.491" y="1432.0395"/><text fill="#75FF7B" font-family="Arial" font-size="20" lengthAdjust="spacing" textLength="299.1797" x="771.491" y="1463.4195">L&#243;gica de Navega&#231;&#227;o (Ant/Prox)</text><path d="M711.491,1556.5194 L721.491,1556.5194 C736.491,1556.5194 736.491,1455.6595 751.491,1455.6595 L761.491,1455.6595" fill="none" style="stroke:#FF0000;stroke-width:2;"/><rect fill="#333333" height="47.24" rx="12.5" ry="12.5" style="stroke:#FF9F22;stroke-width:1.5;" width="338.7997" x="761.491" y="1499.2794"/><text fill="#75FF7B" font-family="Arial" font-size="20" lengthAdjust="spacing" textLength="318.7997" x="771.491" y="1530.6594">Cria&#231;&#227;o de Indicadores Din&#226;micos</text><path d="M711.491,1556.5194 L721.491,1556.5194 C736.491,1556.5194 736.491,1522.8994 751.491,1522.8994 L761.491,1522.8994" fill="none" style="stroke:#FF0000;stroke-width:2;"/><rect fill="#333333" height="47.24" rx="12.5" ry="12.5" style="stroke:#FF9F22;stroke-width:1.5;" width="249.6797" x="761.491" y="1566.5194"/><text fill="#75FF7B" font-family="Arial" font-size="20" lengthAdjust="spacing" textLength="229.6797" x="771.491" y="1597.8994">Sistema de Autoplay (8s)</text><path d="M711.491,1556.5194 L721.491,1556.5194 C736.491,1556.5194 736.491,1590.1394 751.491,1590.1394 L761.491,1590.1394" fill="none" style="stroke:#FF0000;stroke-width:2;"/><rect fill="#333333" height="47.24" rx="12.5" ry="12.5" style="stroke:#FF9F22;stroke-width:1.5;" width="325.0396" x="761.491" y="1633.7594"/><text fill="#75FF7B" font-family="Arial" font-size="20" lengthAdjust="spacing" textLength="305.0396" x="771.491" y="1665.1394">Sincroniza&#231;&#227;o de Estados (.ativo)</text><path d="M711.491,1556.5194 L721.491,1556.5194 C736.491,1556.5194 736.491,1657.3794 751.491,1657.3794 L761.491,1657.3794" fill="none" style="stroke:#FF0000;stroke-width:2;"/><path d="M536.3511,1556.5194 L546.3511,1556.5194 C561.3511,1556.5194 561.3511,1556.5194 576.3511,1556.5194 L586.3511,1556.5194" fill="none" style="stroke:#FF0000;stroke-width:2;"/><rect fill="#333333" height="47.24" rx="12.5" ry="12.5" style="stroke:#FF9F22;stroke-width:1.5;" width="185.6198" x="586.3511" y="1734.6194"/><text fill="#75FF7B" font-family="Arial" font-size="20" lengthAdjust="spacing" textLength="165.6198" x="596.3511" y="1765.9993">swipe-carrossel.js</text><rect fill="#333333" height="47.24" rx="12.5" ry="12.5" style="stroke:#FF9F22;stroke-width:1.5;" width="237.4598" x="821.9709" y="1700.9994"/><text fill="#75FF7B" font-family="Arial" font-size="20" lengthAdjust="spacing" textLength="217.4598" x="831.9709" y="1732.3794">Suporte a Toque/Gesto</text><path d="M771.9709,1758.2393 L781.9709,1758.2393 C796.9709,1758.2393 796.9709,1724.6194 811.9709,1724.6194 L821.9709,1724.6194" fill="none" style="stroke:#FF0000;stroke-width:2;"/><rect fill="#333333" height="47.24" rx="12.5" ry="12.5" style="stroke:#FF9F22;stroke-width:1.5;" width="299.3197" x="821.9709" y="1768.2393"/><text fill="#75FF7B" font-family="Arial" font-size="20" lengthAdjust="spacing" textLength="279.3197" x="831.9709" y="1799.6193">Detec&#231;&#227;o de Swipe Horizontal</text><path d="M771.9709,1758.2393 L781.9709,1758.2393 C796.9709,1758.2393 796.9709,1791.8593 811.9709,1791.8593 L821.9709,1791.8593" fill="none" style="stroke:#FF0000;stroke-width:2;"/><path d="M536.3511,1556.5194 L546.3511,1556.5194 C561.3511,1556.5194 561.3511,1758.2393 576.3511,1758.2393 L586.3511,1758.2393" fill="none" style="stroke:#FF0000;stroke-width:2;"/><rect fill="#333333" height="47.24" rx="12.5" ry="12.5" style="stroke:#FF9F22;stroke-width:1.5;" width="243.6197" x="586.3511" y="1869.0993"/><text fill="#75FF7B" font-family="Arial" font-size="20" lengthAdjust="spacing" textLength="223.6197" x="596.3511" y="1900.4793">carrossel-hero-bridge.js</text><rect fill="#333333" height="47.24" rx="12.5" ry="12.5" style="stroke:#FF9F22;stroke-width:1.5;" width="206.3998" x="879.9709" y="1835.4793"/><text fill="#75FF7B" font-family="Arial" font-size="20" lengthAdjust="spacing" textLength="186.3998" x="889.9709" y="1866.8593">Ponte de API Global</text><path d="M829.9709,1892.7193 L839.9709,1892.7193 C854.9709,1892.7193 854.9709,1859.0993 869.9709,1859.0993 L879.9709,1859.0993" fill="none" style="stroke:#FF0000;stroke-width:2;"/><rect fill="#333333" height="47.24" rx="12.5" ry="12.5" style="stroke:#FF9F22;stroke-width:1.5;" width="289.5997" x="879.9709" y="1902.7193"/><text fill="#75FF7B" font-family="Arial" font-size="20" lengthAdjust="spacing" textLength="269.5997" x="889.9709" y="1934.0993">Comunica&#231;&#227;o entre M&#243;dulos</text><path d="M829.9709,1892.7193 L839.9709,1892.7193 C854.9709,1892.7193 854.9709,1926.3393 869.9709,1926.3393 L879.9709,1926.3393" fill="none" style="stroke:#FF0000;stroke-width:2;"/><path d="M536.3511,1556.5194 L546.3511,1556.5194 C561.3511,1556.5194 561.3511,1892.7193 576.3511,1892.7193 L586.3511,1892.7193" fill="none" style="stroke:#FF0000;stroke-width:2;"/><path d="M229.1514,984.9796 L239.1514,984.9796 C254.1514,984.9796 254.1514,1556.5194 269.1514,1556.5194 L279.1514,1556.5194" fill="none" style="stroke:#FF0000;stroke-width:2;"/><?plantuml-src xLLDRzj64BtpLmoGGsa14XMbQTeWAAmFopRWhuf2xYjoI8rDxggxIqTsaLD_ITj3W5o3Ndhb7-iikPAbEeVcBXu4aJFxPkRDcvrZOuMs9Scq5AlWEnWhcL5UQL5_glz60wU5MWWoa2AS64k5WbWLb90LgJ31EsCV2lmvyESd978jIlWj07wauaFjN_UCH7ANQrN9TAmAfU75g-RPsYz8ehTasK_POB2rJ9MqtlBcTPQzMUnPOdf46FJtlbs94c6eIHJDvu_DxziKLtOPzezsaje9Efts-VbQq6oGPQ--5lJxv-Wllncztyyon1qahPIzskVkMzDiWOJMwiF_Gd6M-PAIEud6mC1ZV0pUHRx1GGVEPvVrxzSnZ4vcivFvCEXqWBkEwzxIbWM4h0vTMHRE4LiwS8OYHGrJMYltte4BbIiOIYf5gY2CtvyUjTylKLPENLVY7dEdkh_OpFdS6UymdW_VmaXPPxZMzITkhRGDACJO-f-Xzb5OlbPmCHeuojWHO0mMhIqkA6L5dykKxYcjdAh35IMSCqP6LJf17z45Szh_RrRNYrjCB3pbxg0IhaUpSpYgYW9japKacyYzXFaCXokXwyyo8K_EXNXGbOLJJIc4BLEHOwgrnebMHG5nnR6PgPBbi6mjxGGQk5GBAh0x9MriOvWWprrQVmOE921X4hGm5jlN0idrnPLZSMsLQOuqhV13xeRR7KdPYU5RBmWTcPoAQzYAHLDYIW9-hL0Jcfs4wD4Jj4ivXDC2rz5SKx5igcvatTBnNcYg_xX7sbulHxwAZ2HvBEHUDhnEq50kOQxkK7h7EQqK5vnnEjXC0BOrpT2WTMd8fctS60XlH9gIp4rqANHEqaGZjUxo-F8t3wQ5DEIPO6-j95VaRZSs2gx5ckZMH12USnmjh1CFTwmzp5giUhVcINpC5xQQRfi4eNE1fIWNzJywP_AY8KCeho2VCMxRmQMpldW2U5oY6AtOZ84R2USuGwkqP3M-C9W8rLsozhtBdd36bR6gT9MmxoyLN_AKm7LbsxoV1Bf9_gB-ahEOdub-A6rqezLwCurygMuxjAl_2Sdwpv8IvV5YOW6M3TwmicfLY0S8VznK4vDCMgAtOAmbuTGNziIM830VQ8NTvzd65IkI1IvO5wp8w1IDzLV012qcMzJO0S2PqlJehePYl_g6lUw2vp37BVQD4rIJzyrvAz1Yqz-oabnm2ywtaEPMrr_IYcSo28wHTw3Vey7ntbezhCd3cZoioSEQFAp9mveyhCcTDVcoD-WFVkWD_WK0?></g></svg>