<?plantuml 1.2026.2?><svg xmlns="http://www.w3.org/2000/svg" xmlns:xlink="http://www.w3.org/1999/xlink" contentStyleType="text/css" data-diagram-type="ACTIVITY" height="1314px" preserveAspectRatio="none" style="width:952px;height:1314px;background:#333333;" version="1.1" viewBox="0 0 952 1314" width="952px" zoomAndPan="magnify"><title>Fluxograma script.js</title><defs/><g><rect fill="#333333" height="1314" style="stroke:none;stroke-width:1;" width="952" x="0" y="0"/><g class="title" data-source-line="29"><text fill="#F2FF3B" font-family="Arial" font-size="14" font-weight="bold" lengthAdjust="spacing" textLength="141.7215" x="403.7787" y="34.9659">Fluxograma script.js</text></g><ellipse cx="476.1394" cy="60.0679" fill="#222222" rx="10" ry="10" style="stroke:#222222;stroke-width:1;"/><rect fill="#222222" height="653.6197" style="stroke:#FF0000;stroke-width:1.5;" width="854.2992" x="50.9698" y="80.0679"/><path d="M301.4296,80.0679 L301.4296,100.3079 L291.4296,110.3079 L50.9698,110.3079" fill="none" style="stroke:#FF0000;stroke-width:1.5;"/><text fill="#00FFEE" font-family="Arial" font-size="20" lengthAdjust="spacing" textLength="240.4598" x="53.9698" y="102.4479">L&#243;gica de FAQ (Acorde&#227;o)</text><rect fill="#333333" height="47.24" rx="12.5" ry="12.5" style="stroke:#FF9F22;stroke-width:0.5;" width="414.3795" x="268.9497" y="127.3079"/><text fill="#75FF7B" font-family="Arial" font-size="20" lengthAdjust="spacing" textLength="394.3795" x="278.9497" y="158.6879">Selecionar todos os elementos .perguntas</text><rect fill="#333333" height="47.24" rx="12.5" ry="12.5" style="stroke:#FF9F22;stroke-width:0.5;" width="340.3796" x="305.9496" y="272.6478"/><text fill="#75FF7B" font-family="Arial" font-size="20" lengthAdjust="spacing" textLength="320.3796" x="315.9496" y="304.0278">Add Event Click em cada pergunta</text><rect fill="#333333" height="47.24" rx="12.5" ry="12.5" style="stroke:#FF9F22;stroke-width:0.5;" width="402.1395" x="275.0697" y="398.7477"/><text fill="#75FF7B" font-family="Arial" font-size="20" lengthAdjust="spacing" textLength="382.1395" x="285.0697" y="430.1277">Identificar resposta (nextElementSibling)</text><polygon fill="#333333" points="304.6696,473.9677,647.6092,473.9677,659.6092,487.5877,647.6092,501.2077,304.6696,501.2077,292.6696,487.5877,304.6696,473.9677" style="stroke:#FF0000;stroke-width:0.5;"/><text fill="#FF7C7C" font-family="Arial" font-size="20" lengthAdjust="spacing" textLength="342.9396" x="304.6696" y="495.3477">Resposta vis&#237;vel (display === 'block')?</text><text fill="#F2FF3B" font-family="Arial" font-size="20" lengthAdjust="spacing" textLength="34.84" x="257.8297" y="481.7277">Sim</text><text fill="#F2FF3B" font-family="Arial" font-size="20" lengthAdjust="spacing" textLength="38.52" x="659.6092" y="481.7277">N&#227;o</text><rect fill="#333333" height="47.24" rx="12.5" ry="12.5" style="stroke:#FF9F22;stroke-width:0.5;" width="355.3997" x="104.9698" y="511.2077"/><text fill="#75FF7B" font-family="Arial" font-size="20" lengthAdjust="spacing" textLength="335.3997" x="114.9698" y="542.5877">Esconder resposta (display = 'none')</text><rect fill="#333333" height="47.24" rx="12.5" ry="12.5" style="stroke:#FF9F22;stroke-width:0.5;" width="267.5197" x="148.9098" y="578.4476"/><text fill="#75FF7B" font-family="Arial" font-size="20" lengthAdjust="spacing" textLength="247.5197" x="158.9098" y="609.8276">Girar &#237;cone de volta (0deg)</text><rect fill="#333333" height="47.24" rx="12.5" ry="12.5" style="stroke:#FF9F22;stroke-width:0.5;" width="345.3196" x="496.9494" y="511.2077"/><text fill="#75FF7B" font-family="Arial" font-size="20" lengthAdjust="spacing" textLength="325.3196" x="506.9494" y="542.5877">Mostrar resposta (display = 'block')</text><rect fill="#333333" height="47.24" rx="12.5" ry="12.5" style="stroke:#FF9F22;stroke-width:0.5;" width="210.5598" x="564.3293" y="578.4476"/><text fill="#75FF7B" font-family="Arial" font-size="20" lengthAdjust="spacing" textLength="190.5598" x="574.3293" y="609.8276">Girar &#237;cone (180deg)</text><polygon fill="#333333" points="476.1394,631.6876,488.1394,643.6876,476.1394,655.6876,464.1394,643.6876,476.1394,631.6876" style="stroke:#FF0000;stroke-width:0.5;"/><polygon fill="#333333" points="404.0395,339.8878,548.2393,339.8878,560.2393,353.5078,548.2393,367.1278,404.0395,367.1278,392.0395,353.5078,404.0395,339.8878" style="stroke:#FF0000;stroke-width:0.5;"/><text fill="#F2FF3B" font-family="Arial" font-size="20" lengthAdjust="spacing" textLength="34.84" x="480.1394" y="388.5077">Sim</text><text fill="#FF7C7C" font-family="Arial" font-size="20" lengthAdjust="spacing" textLength="144.1998" x="404.0395" y="361.2678">Usu&#225;rio Clicou?</text><polygon fill="#333333" points="476.1394,675.6876,488.1394,687.6876,476.1394,699.6876,464.1394,687.6876,476.1394,675.6876" style="stroke:#FF0000;stroke-width:0.5;"/><polygon fill="#333333" points="398.7095,202.5278,553.5693,202.5278,565.5693,216.1478,553.5693,229.7678,398.7095,229.7678,386.7095,216.1478,398.7095,202.5278" style="stroke:#FF0000;stroke-width:0.5;"/><text fill="#F2FF3B" font-family="Arial" font-size="20" lengthAdjust="spacing" textLength="34.84" x="480.1394" y="251.1478">Sim</text><text fill="#FF7C7C" font-family="Arial" font-size="20" lengthAdjust="spacing" textLength="154.8598" x="398.7095" y="223.9078">Mais perguntas?</text><text fill="#F2FF3B" font-family="Arial" font-size="20" lengthAdjust="spacing" textLength="38.52" x="348.1896" y="210.2878">N&#227;o</text><rect fill="#222222" height="276.1799" style="stroke:#FF0000;stroke-width:1.5;" width="930.2789" x="11" y="743.6876"/><path d="M375.9595,743.6876 L375.9595,763.9276 L365.9595,773.9276 L11,773.9276" fill="none" style="stroke:#FF0000;stroke-width:1.5;"/><text fill="#00FFEE" font-family="Arial" font-size="20" lengthAdjust="spacing" textLength="354.9595" x="14" y="766.0676">Fun&#231;&#227;o ajustarTexto (Responsividade)</text><rect fill="#333333" height="47.24" rx="12.5" ry="12.5" style="stroke:#FF9F22;stroke-width:0.5;" width="436.5395" x="257.8697" y="790.9276"/><text fill="#75FF7B" font-family="Arial" font-size="20" lengthAdjust="spacing" textLength="416.5395" x="267.8697" y="822.3076">Selecionar par&#225;grafos de .descricao-servicos</text><polygon fill="#333333" points="349.3896,866.1476,602.8893,866.1476,614.8893,879.7675,602.8893,893.3875,349.3896,893.3875,337.3896,879.7675,349.3896,866.1476" style="stroke:#FF0000;stroke-width:0.5;"/><text fill="#FF7C7C" font-family="Arial" font-size="20" lengthAdjust="spacing" textLength="253.4997" x="349.3896" y="887.5275">Largura da tela &gt;= 1024px?</text><text fill="#F2FF3B" font-family="Arial" font-size="20" lengthAdjust="spacing" textLength="34.84" x="302.5496" y="873.9075">Sim</text><text fill="#F2FF3B" font-family="Arial" font-size="20" lengthAdjust="spacing" textLength="38.52" x="614.8893" y="873.9075">N&#227;o</text><rect fill="#333333" height="74.4799" rx="12.5" ry="12.5" style="stroke:#FF9F22;stroke-width:0.5;" width="443.1394" x="23" y="903.3875"/><text fill="#75FF7B" font-family="Arial" font-size="20" lengthAdjust="spacing" textLength="236.8197" x="33" y="934.7675">Definir textos detalhados</text><text fill="#75FF7B" font-family="Arial" font-size="20" lengthAdjust="spacing" textLength="423.1394" x="33" y="962.0075">(preventiva, embreagens, diferenciais, freios)</text><rect fill="#333333" height="74.4799" rx="12.5" ry="12.5" style="stroke:#FF9F22;stroke-width:0.5;" width="443.1394" x="486.1394" y="903.3875"/><text fill="#75FF7B" font-family="Arial" font-size="20" lengthAdjust="spacing" textLength="231.3997" x="496.1394" y="934.7675">Definir textos resumidos</text><text fill="#75FF7B" font-family="Arial" font-size="20" lengthAdjust="spacing" textLength="423.1394" x="496.1394" y="962.0075">(preventiva, embreagens, diferenciais, freios)</text><polygon fill="#333333" points="476.1394,983.8675,488.1394,995.8675,476.1394,1007.8675,464.1394,995.8675,476.1394,983.8675" style="stroke:#FF0000;stroke-width:0.5;"/><rect fill="#222222" height="228.1999" style="stroke:#FF0000;stroke-width:1.5;" width="267.6398" x="342.3195" y="1033.2275"/><path d="M596.9593,1033.2275 L596.9593,1053.4674 L586.9593,1063.4674 L342.3195,1063.4674" fill="none" style="stroke:#FF0000;stroke-width:1.5;"/><text fill="#00FFEE" font-family="Arial" font-size="20" lengthAdjust="spacing" textLength="244.6397" x="345.3195" y="1055.6075">Eventos de Carregamento</text><rect fill="#333333" height="74.4799" rx="12.5" ry="12.5" style="stroke:#FF9F22;stroke-width:0.5;" width="233.4598" x="359.4095" y="1080.4674"/><text fill="#75FF7B" font-family="Arial" font-size="20" lengthAdjust="spacing" textLength="208.2598" x="369.4095" y="1111.8474">Escutar window 'load':</text><text fill="#75FF7B" font-family="Arial" font-size="20" lengthAdjust="spacing" textLength="208.9198" x="369.4095" y="1139.0874">Chamar ajustarTexto()</text><rect fill="#333333" height="74.4799" rx="12.5" ry="12.5" style="stroke:#FF9F22;stroke-width:0.5;" width="247.6398" x="352.3195" y="1174.9474"/><text fill="#75FF7B" font-family="Arial" font-size="20" lengthAdjust="spacing" textLength="222.4398" x="362.3195" y="1206.3274">Escutar window 'resize':</text><text fill="#75FF7B" font-family="Arial" font-size="20" lengthAdjust="spacing" textLength="208.9198" x="362.3195" y="1233.5674">Chamar ajustarTexto()</text><ellipse cx="476.1394" cy="1292.4273" fill="none" rx="11" ry="11" style="stroke:#222222;stroke-width:1;"/><ellipse cx="476.1394" cy="1292.4273" fill="#222222" rx="6" ry="6" style="stroke:#222222;stroke-width:1;"/><line style="stroke:#FF0000;stroke-width:2;" x1="282.6696" x2="282.6696" y1="558.4476" y2="578.4476"/><polygon fill="#FF0000" points="278.6696,568.4476,282.6696,578.4476,286.6696,568.4476,282.6696,572.4476" style="stroke:#FF0000;stroke-width:1;"/><line style="stroke:#FF0000;stroke-width:2;" x1="669.6092" x2="669.6092" y1="558.4476" y2="578.4476"/><polygon fill="#FF0000" points="665.6092,568.4476,669.6092,578.4476,673.6092,568.4476,669.6092,572.4476" style="stroke:#FF0000;stroke-width:1;"/><line style="stroke:#FF0000;stroke-width:2;" x1="292.6696" x2="282.6696" y1="487.5877" y2="487.5877"/><line style="stroke:#FF0000;stroke-width:2;" x1="282.6696" x2="282.6696" y1="487.5877" y2="511.2077"/><polygon fill="#FF0000" points="278.6696,501.2077,282.6696,511.2077,286.6696,501.2077,282.6696,505.2077" style="stroke:#FF0000;stroke-width:1;"/><line style="stroke:#FF0000;stroke-width:2;" x1="659.6092" x2="669.6092" y1="487.5877" y2="487.5877"/><line style="stroke:#FF0000;stroke-width:2;" x1="669.6092" x2="669.6092" y1="487.5877" y2="511.2077"/><polygon fill="#FF0000" points="665.6092,501.2077,669.6092,511.2077,673.6092,501.2077,669.6092,505.2077" style="stroke:#FF0000;stroke-width:1;"/><line style="stroke:#FF0000;stroke-width:2;" x1="282.6696" x2="282.6696" y1="625.6876" y2="643.6876"/><line style="stroke:#FF0000;stroke-width:2;" x1="282.6696" x2="464.1394" y1="643.6876" y2="643.6876"/><polygon fill="#FF0000" points="454.1394,639.6876,464.1394,643.6876,454.1394,647.6876,458.1394,643.6876" style="stroke:#FF0000;stroke-width:1;"/><line style="stroke:#FF0000;stroke-width:2;" x1="669.6092" x2="669.6092" y1="625.6876" y2="643.6876"/><line style="stroke:#FF0000;stroke-width:2;" x1="669.6092" x2="488.1394" y1="643.6876" y2="643.6876"/><polygon fill="#FF0000" points="498.1394,639.6876,488.1394,643.6876,498.1394,647.6876,494.1394,643.6876" style="stroke:#FF0000;stroke-width:1;"/><line style="stroke:#FF0000;stroke-width:2;" x1="476.1394" x2="476.1394" y1="445.9877" y2="473.9677"/><polygon fill="#FF0000" points="472.1394,463.9677,476.1394,473.9677,480.1394,463.9677,476.1394,467.9677" style="stroke:#FF0000;stroke-width:1;"/><line style="stroke:#FF0000;stroke-width:2;" x1="476.1394" x2="476.1394" y1="367.1278" y2="398.7477"/><polygon fill="#FF0000" points="472.1394,388.7477,476.1394,398.7477,480.1394,388.7477,476.1394,392.7477" style="stroke:#FF0000;stroke-width:1;"/><line style="stroke:#FF0000;stroke-width:2;" x1="560.2393" x2="862.269" y1="353.5078" y2="353.5078"/><polygon fill="#FF0000" points="858.269,520.3977,862.269,530.3977,866.269,520.3977,862.269,524.3977" style="stroke:#FF0000;stroke-width:2;"/><line style="stroke:#FF0000;stroke-width:2;" x1="862.269" x2="862.269" y1="353.5078" y2="687.6876"/><line style="stroke:#FF0000;stroke-width:2;" x1="862.269" x2="488.1394" y1="687.6876" y2="687.6876"/><polygon fill="#FF0000" points="498.1394,683.6876,488.1394,687.6876,498.1394,691.6876,494.1394,687.6876" style="stroke:#FF0000;stroke-width:1;"/><line style="stroke:#FF0000;stroke-width:2;" x1="476.1394" x2="476.1394" y1="655.6876" y2="675.6876"/><polygon fill="#FF0000" points="472.1394,665.6876,476.1394,675.6876,480.1394,665.6876,476.1394,669.6876" style="stroke:#FF0000;stroke-width:1;"/><line style="stroke:#FF0000;stroke-width:2;" x1="476.1394" x2="476.1394" y1="319.8878" y2="339.8878"/><polygon fill="#FF0000" points="472.1394,329.8878,476.1394,339.8878,480.1394,329.8878,476.1394,333.8878" style="stroke:#FF0000;stroke-width:1;"/><line style="stroke:#FF0000;stroke-width:2;" x1="476.1394" x2="476.1394" y1="229.7678" y2="272.6478"/><polygon fill="#FF0000" points="472.1394,262.6478,476.1394,272.6478,480.1394,262.6478,476.1394,266.6478" style="stroke:#FF0000;stroke-width:1;"/><line style="stroke:#FF0000;stroke-width:2;" x1="476.1394" x2="476.1394" y1="699.6876" y2="709.6876"/><line style="stroke:#FF0000;stroke-width:2;" x1="476.1394" x2="886.269" y1="709.6876" y2="709.6876"/><polygon fill="#FF0000" points="882.269,472.0377,886.269,462.0377,890.269,472.0377,886.269,468.0377" style="stroke:#FF0000;stroke-width:2;"/><line style="stroke:#FF0000;stroke-width:2;" x1="886.269" x2="886.269" y1="216.1478" y2="709.6876"/><line style="stroke:#FF0000;stroke-width:2;" x1="886.269" x2="565.5693" y1="216.1478" y2="216.1478"/><polygon fill="#FF0000" points="575.5693,212.1478,565.5693,216.1478,575.5693,220.1478,571.5693,216.1478" style="stroke:#FF0000;stroke-width:1;"/><line style="stroke:#FF0000;stroke-width:2;" x1="386.7095" x2="72.9698" y1="216.1478" y2="216.1478"/><polygon fill="#FF0000" points="68.9698,458.0377,72.9698,468.0377,76.9698,458.0377,72.9698,462.0377" style="stroke:#FF0000;stroke-width:2;"/><line style="stroke:#FF0000;stroke-width:2;" x1="72.9698" x2="72.9698" y1="216.1478" y2="721.6876"/><line style="stroke:#FF0000;stroke-width:2;" x1="72.9698" x2="476.1394" y1="721.6876" y2="721.6876"/><line style="stroke:#FF0000;stroke-width:2;" x1="476.1394" x2="476.1394" y1="721.6876" y2="790.9276"/><polygon fill="#FF0000" points="472.1394,780.9276,476.1394,790.9276,480.1394,780.9276,476.1394,784.9276" style="stroke:#FF0000;stroke-width:1;"/><line style="stroke:#FF0000;stroke-width:2;" x1="476.1394" x2="476.1394" y1="174.5479" y2="202.5278"/><polygon fill="#FF0000" points="472.1394,192.5278,476.1394,202.5278,480.1394,192.5278,476.1394,196.5278" style="stroke:#FF0000;stroke-width:1;"/><line style="stroke:#FF0000;stroke-width:2;" x1="476.1394" x2="476.1394" y1="70.0679" y2="127.3079"/><polygon fill="#FF0000" points="472.1394,117.3079,476.1394,127.3079,480.1394,117.3079,476.1394,121.3079" style="stroke:#FF0000;stroke-width:1;"/><line style="stroke:#FF0000;stroke-width:2;" x1="337.3896" x2="244.5697" y1="879.7675" y2="879.7675"/><line style="stroke:#FF0000;stroke-width:2;" x1="244.5697" x2="244.5697" y1="879.7675" y2="903.3875"/><polygon fill="#FF0000" points="240.5697,893.3875,244.5697,903.3875,248.5697,893.3875,244.5697,897.3875" style="stroke:#FF0000;stroke-width:1;"/><line style="stroke:#FF0000;stroke-width:2;" x1="614.8893" x2="707.7092" y1="879.7675" y2="879.7675"/><line style="stroke:#FF0000;stroke-width:2;" x1="707.7092" x2="707.7092" y1="879.7675" y2="903.3875"/><polygon fill="#FF0000" points="703.7092,893.3875,707.7092,903.3875,711.7092,893.3875,707.7092,897.3875" style="stroke:#FF0000;stroke-width:1;"/><line style="stroke:#FF0000;stroke-width:2;" x1="244.5697" x2="244.5697" y1="977.8675" y2="995.8675"/><line style="stroke:#FF0000;stroke-width:2;" x1="244.5697" x2="464.1394" y1="995.8675" y2="995.8675"/><polygon fill="#FF0000" points="454.1394,991.8675,464.1394,995.8675,454.1394,999.8675,458.1394,995.8675" style="stroke:#FF0000;stroke-width:1;"/><line style="stroke:#FF0000;stroke-width:2;" x1="707.7092" x2="707.7092" y1="977.8675" y2="995.8675"/><line style="stroke:#FF0000;stroke-width:2;" x1="707.7092" x2="488.1394" y1="995.8675" y2="995.8675"/><polygon fill="#FF0000" points="498.1394,991.8675,488.1394,995.8675,498.1394,999.8675,494.1394,995.8675" style="stroke:#FF0000;stroke-width:1;"/><line style="stroke:#FF0000;stroke-width:2;" x1="476.1394" x2="476.1394" y1="838.1676" y2="866.1476"/><polygon fill="#FF0000" points="472.1394,856.1476,476.1394,866.1476,480.1394,856.1476,476.1394,860.1476" style="stroke:#FF0000;stroke-width:1;"/><line style="stroke:#FF0000;stroke-width:2;" x1="476.1394" x2="476.1394" y1="1154.9474" y2="1174.9474"/><polygon fill="#FF0000" points="472.1394,1164.9474,476.1394,1174.9474,480.1394,1164.9474,476.1394,1168.9474" style="stroke:#FF0000;stroke-width:1;"/><line style="stroke:#FF0000;stroke-width:2;" x1="476.1394" x2="476.1394" y1="1007.8675" y2="1080.4674"/><polygon fill="#FF0000" points="472.1394,1070.4674,476.1394,1080.4674,480.1394,1070.4674,476.1394,1074.4674" style="stroke:#FF0000;stroke-width:1;"/><line style="stroke:#FF0000;stroke-width:2;" x1="476.1394" x2="476.1394" y1="1249.4273" y2="1281.4273"/><polygon fill="#FF0000" points="472.1394,1271.4273,476.1394,1281.4273,480.1394,1271.4273,476.1394,1275.4273" style="stroke:#FF0000;stroke-width:1;"/><?plantuml-src dLJDRXCn4BxlKupWa8rKgZG55LeL549J8G4I16vSdFLuCyIn8zkR5b0V1d7Wn0dn1FjYZDrDsAHfaR3siFRCVD_yV7O7XjOeAYidwX_rR_Hmhkr4a0U9SEO3QGjZgwcW8AJmcP-HMGWdvZ0HnQnqjZ9oQBLrSFymhPQ7H2Kg7KRMX35zGUZtTXkRUDLNwd2os-MDc2CC70cTPPrLNj4BF8QDj0REsOi6SJJgyTeslfzICJFeFVItmGf1boALBW8jIGh-oqtzotTR8AA8jl0PlcR0w_ajVKWswoIwLNtgYUhtqtchwgD7IXrDrgUhHiNz2n9pQ-HT12kNDazJTSlSRh8wAewAx6gxyj9L2-iXvqsWQoMqQqx7WQnP5NqBOOkfrrCASNUB-cd5B1XL8unqTMbB9k9v5euMOV-Jpp8Vc3NB_dBVUrN_AgaGSK2ZmLl81qNCe_vkk_UQn8x7gB5WP-4WMCabyST7SpI1__ONwChAi6HEall5b9W-Vnq5lpOzwm9lyp7DkyafuGwaXBCbey2GRyCCSCvgaM8TTR9s9GNv1r_LtnpPv6mhHWnJD5kO2VUbP4nIN9K3Xvw740Hh3Y_3sNNMOvfeCcNtP2CkahnRkI_9rp-Ng26Nv1TQV8RJqrFeJBGjPftkxUGfWJDVi4ImpRv6WOwn1ZjRt2did1ndNF_aO8ppM5eTGtiIjrD5xRd5R-AKRiAyPaOdRY5l2lWNUtxmU1UjaQIocpl-QwP-dTBLXi96bM7rVxSWFbLHV-zv4BPfjV7Dcx1JRGnIVsCDAviUa7s9KSg5i0yykYMhe95SjXhVA-7Yimiiee1QmDDJEEZr7oukTm_i-0KgCiIoZYb5ZY3qLB34FvfyuJ1gavPYZvKvSIXAD7uFk6XqQ0fYWU-1SaZMDttQDPPj3fvADQV_fqXDtsnmkaFNBHeAvx0KwMgkEyfohBZlS456sWleQ2javnW-ck6KdmUtCPUyuRaHn7dpEtfNs5LyNkmY-mC0?></g></svg>