<?xml version="1.0" encoding="UTF-8" standalone="no"?>
<!-- Created with Inkscape (http://www.inkscape.org/) -->

<svg
   width="210mm"
   height="297mm"
   viewBox="0 0 210 297"
   version="1.1"
   id="svg1"
   xml:space="preserve"
   sodipodi:docname="logo.svg"
   inkscape:version="1.4.2 (f4327f4, 2025-05-13)"
   inkscape:export-filename="logo.svg"
   inkscape:export-xdpi="96"
   inkscape:export-ydpi="96"
   xmlns:inkscape="http://www.inkscape.org/namespaces/inkscape"
   xmlns:sodipodi="http://sodipodi.sourceforge.net/DTD/sodipodi-0.dtd"
   xmlns:xlink="http://www.w3.org/1999/xlink"
   xmlns="http://www.w3.org/2000/svg"
   xmlns:svg="http://www.w3.org/2000/svg"
   xmlns:rdf="http://www.w3.org/1999/02/22-rdf-syntax-ns#"
   xmlns:cc="http://creativecommons.org/ns#"
   xmlns:dc="http://purl.org/dc/elements/1.1/"><title
     id="title164">Logo Projeto Integrador FATEC - DSM sem. 1</title><sodipodi:namedview
     id="namedview1"
     pagecolor="#ffffff"
     bordercolor="#000000"
     borderopacity="0.25"
     inkscape:showpageshadow="2"
     inkscape:pageopacity="0.0"
     inkscape:pagecheckerboard="0"
     inkscape:deskcolor="#d1d1d1"
     inkscape:document-units="mm"
     showguides="false"
     inkscape:zoom="1.1477534"
     inkscape:cx="360.26903"
     inkscape:cy="460.02913"
     inkscape:window-width="1366"
     inkscape:window-height="697"
     inkscape:window-x="-8"
     inkscape:window-y="-8"
     inkscape:window-maximized="1"
     inkscape:current-layer="layer6"
     showgrid="false" /><defs
     id="defs1"><linearGradient
       id="linearGradient136"
       inkscape:collect="always"><stop
         style="stop-color:#808080;stop-opacity:1"
         offset="0"
         id="stop136" /><stop
         style="stop-color:#ffffff;stop-opacity:1"
         offset="0.4159292"
         id="stop138" /><stop
         style="stop-color:#ffffff;stop-opacity:1"
         offset="0.63716823"
         id="stop139" /><stop
         style="stop-color:#6a6a6a;stop-opacity:1;"
         offset="1"
         id="stop137" /></linearGradient><inkscape:path-effect
       effect="lattice2"
       gridpoint0="46.069518,147.63315"
       gridpoint1="169.46544,147.63315"
       gridpoint2="46.069518,174.98505"
       gridpoint3="169.46544,175.39257"
       gridpoint4="76.918499,147.63315"
       gridpoint5="138.61646,147.63315"
       gridpoint6="76.918499,167.89437"
       gridpoint7="138.61646,167.89437"
       gridpoint8x9="107.76748,147.63315"
       gridpoint10x11="107.76748,163.49326"
       gridpoint12="46.069518,152.69846"
       gridpoint13="169.46544,152.69846"
       gridpoint14="46.069518,162.82907"
       gridpoint15="169.46544,162.82907"
       gridpoint16="76.918499,152.69846"
       gridpoint17="138.61646,152.69846"
       gridpoint18="76.918499,162.82907"
       gridpoint19="138.61646,162.82907"
       gridpoint20x21="107.76748,152.69846"
       gridpoint22x23="107.76748,162.82907"
       gridpoint24x26="46.069518,157.76376"
       gridpoint25x27="169.46544,157.76376"
       gridpoint28x30="76.918499,157.76376"
       gridpoint29x31="138.61646,157.76376"
       gridpoint32x33x34x35="107.76748,157.76376"
       id="path-effect135"
       is_visible="true"
       lpeversion="1"
       horizontal_mirror="false"
       vertical_mirror="false"
       perimetral="false"
       live_update="true" /><inkscape:path-effect
       effect="skeletal"
       id="path-effect20"
       is_visible="true"
       lpeversion="1"
       pattern="M 0,0 H 1"
       copytype="repeated_stretched"
       prop_scale="1"
       scale_y_rel="false"
       spacing="0"
       normal_offset="0"
       tang_offset="0"
       prop_units="false"
       vertical_pattern="false"
       hide_knot="false"
       fuse_tolerance="0" /><inkscape:path-effect
       effect="lattice2"
       gridpoint0="41.909666,153.94378"
       gridpoint1="164.85,153.94378"
       gridpoint2="41.909666,174.57395"
       gridpoint3="164.85,174.57395"
       gridpoint4="72.64475,153.94378"
       gridpoint5="134.11492,153.94378"
       gridpoint6="72.64475,174.57395"
       gridpoint7="134.11492,174.57395"
       gridpoint8x9="103.37983,153.94378"
       gridpoint10x11="103.37983,174.57395"
       gridpoint12="41.909666,159.10132"
       gridpoint13="164.85,159.10132"
       gridpoint14="41.909666,169.41641"
       gridpoint15="164.85,169.41641"
       gridpoint16="72.64475,159.10132"
       gridpoint17="134.11492,159.10132"
       gridpoint18="72.64475,169.41641"
       gridpoint19="134.11492,169.41641"
       gridpoint20x21="103.37983,159.10132"
       gridpoint22x23="103.37983,169.41641"
       gridpoint24x26="41.909666,164.25887"
       gridpoint25x27="164.85,164.25887"
       gridpoint28x30="72.64475,164.25887"
       gridpoint29x31="134.11492,164.25887"
       gridpoint32x33x34x35="103.37983,164.25887"
       id="path-effect19"
       is_visible="true"
       lpeversion="1"
       horizontal_mirror="false"
       vertical_mirror="false"
       perimetral="false"
       live_update="true" /><inkscape:path-effect
       effect="lattice2"
       gridpoint0="42.387118,142.99076"
       gridpoint1="164.7395,148.41321"
       gridpoint2="42.387118,185.52697"
       gridpoint3="164.7395,180.10452"
       gridpoint4="72.64475,153.94378"
       gridpoint5="134.11492,153.94378"
       gridpoint6="72.64475,174.57395"
       gridpoint7="134.11492,174.57395"
       gridpoint8x9="103.37983,155.08597"
       gridpoint10x11="103.37983,173.43177"
       gridpoint12="41.909666,159.10132"
       gridpoint13="164.85,159.10132"
       gridpoint14="41.909666,169.41641"
       gridpoint15="164.85,169.41641"
       gridpoint16="72.64475,159.10132"
       gridpoint17="134.11492,159.10132"
       gridpoint18="72.64475,169.41641"
       gridpoint19="134.11492,169.41641"
       gridpoint20x21="103.37983,159.10132"
       gridpoint22x23="103.37983,169.41641"
       gridpoint24x26="41.909666,164.25887"
       gridpoint25x27="164.85,164.25887"
       gridpoint28x30="72.64475,164.25887"
       gridpoint29x31="134.11492,164.25887"
       gridpoint32x33x34x35="103.37983,164.25887"
       id="path-effect18"
       is_visible="true"
       lpeversion="1"
       horizontal_mirror="true"
       vertical_mirror="false"
       perimetral="false"
       live_update="true" /><inkscape:path-effect
       effect="lattice2"
       gridpoint0="42.43818,219.91164"
       gridpoint1="158.34248,220.79703"
       gridpoint2="42.442688,246.5777"
       gridpoint3="158.55799,246.50195"
       gridpoint4="71.33682,221.30373"
       gridpoint5="128.80182,219.52604"
       gridpoint6="71.33682,240.77037"
       gridpoint7="129.34059,240.77037"
       gridpoint8x9="100.33871,224.95558"
       gridpoint10x11="100.12771,237.11852"
       gridpoint12="42.334934,226.17039"
       gridpoint13="158.34248,226.17039"
       gridpoint14="42.334934,235.90371"
       gridpoint15="158.34248,235.90371"
       gridpoint16="71.33682,226.17039"
       gridpoint17="129.34059,226.17039"
       gridpoint18="71.33682,235.90371"
       gridpoint19="129.34059,235.90371"
       gridpoint20x21="100.33871,226.17039"
       gridpoint22x23="100.33871,235.90371"
       gridpoint24x26="42.334934,231.03705"
       gridpoint25x27="158.34248,231.03705"
       gridpoint28x30="71.33682,231.03705"
       gridpoint29x31="129.34059,231.03705"
       gridpoint32x33x34x35="100.33871,231.03705"
       id="path-effect17"
       is_visible="true"
       lpeversion="1"
       horizontal_mirror="false"
       vertical_mirror="false"
       perimetral="false"
       live_update="true" /><inkscape:path-effect
       effect="skeletal"
       id="path-effect16"
       is_visible="true"
       lpeversion="1"
       pattern="M 29.80645,6.6676423e-7 C 28.354155,6.6676423e-7 27.316769,1.0003328 27.385925,2.6132793 h 1.452626 c 0,-0.5920888 0.322459,-0.8573119 0.85266,-0.8573119 1.175665,0 1.798066,0.8371534 3.181202,0.8371534 1.728922,0 2.443395,-1.0618336 2.282031,-2.59312013323571 H 33.702337 C 33.748443,0.55126419 33.356624,0.87797931 32.82642,0.87797931 32.019589,0.87797931 31.074326,6.6676429e-7 29.80645,6.6676423e-7 Z M 29.414743,3.2054906 26.394772,18.048508 h 3.365686 l 0.299725,-1.8371 h 2.282029 l 0.299725,1.8371 h 3.365685 L 32.987652,3.2054906 Z M 7.6381594e-7,3.2463346 V 18.048526 H 3.3424328 V 3.2463346 Z m 4.72580943618406,0 V 18.048526 h 3.3424321 v -4.715987 h 0.4382164 l 1.6133373,4.715987 h 3.458187 l -1.752347,-4.715987 c 0.968196,0 1.498616,-0.653552 1.498616,-1.306898 V 5.165593 c 0,-1.1637743 -0.691738,-1.9192584 -2.259294,-1.9192584 z m 10.0278128,0 V 18.048526 h 3.24993 v -6.982514 l 2.098064,5.921086 2.120801,-5.921086 v 6.982514 h 3.250446 V 3.2463346 H 21.922693 L 20.101617,9.4940131 18.280539,3.2463346 Z m 24.435201,0 c -1.567556,0 -2.259293,0.7554841 -2.259293,1.9192584 v 10.780225 c 0,1.12294 0.53055,2.102708 2.397786,2.102708 h 3.87263 c 1.867236,0 2.39727,-0.979768 2.39727,-2.102708 V 5.165593 c 0,-1.1637743 -0.691221,-1.9192584 -2.258777,-1.9192584 z m 10.051066,0 c -1.567556,0 -2.259293,0.7554841 -2.259293,1.9192584 v 5.022431 c 0,1.47003 0.875821,1.674316 1.867069,1.674316 h 1.729092 c 0.461047,0 0.622186,0.02061 0.622186,0.428919 v 2.69492 c 0,0.224586 -0.09203,0.306444 -0.391708,0.306444 h -3.596163 l 0.599448,2.755903 h 4.126362 c 1.913339,0 2.558499,-0.612491 2.558499,-2.24586 v -4.879289 c 0,-1.1025265 -0.59944,-1.5110146 -1.659845,-1.5110146 H 50.73799 c -0.345784,0 -0.506947,-0.081876 -0.506947,-0.388094 V 6.3293485 c 0,-0.224586 0.138334,-0.3265927 0.414962,-0.3265927 h 3.780647 L 53.849945,3.2463346 Z m 9.520348,0 V 18.048526 h 6.062684 c 1.91334,0 2.605003,-0.653307 2.605003,-2.286676 v -3.838009 c 0,-0.653345 -0.392036,-1.266063 -1.31413,-1.306898 0.875988,-0.204173 1.152906,-0.7760093 1.152906,-1.5110242 V 5.0431171 c 0,-1.0820956 -0.668851,-1.7967825 -1.982833,-1.7967825 z m 10.051069,0 V 18.048526 h 6.362403 l 0.576191,-2.755903 h -3.504176 v -3.226157 h 2.766238 V 9.5141621 H 72.245725 V 6.0027558 h 3.642154 L 75.311685,3.2463346 Z m 8.229467,0 V 18.048526 h 3.342431 v -4.715987 h 0.438219 l 1.613342,4.715987 h 3.458189 l -1.752349,-4.715987 c 0.968198,0 1.498616,-0.653552 1.498616,-1.306898 V 5.165593 c 0,-1.1637743 -0.691737,-1.9192584 -2.259293,-1.9192584 z m 10.027817,0 V 18.048526 h 3.342431 v -4.715987 h 0.438219 l 1.613331,4.715987 h 3.458189 l -1.752349,-4.715987 c 0.968198,0 1.498616,-0.653552 1.498616,-1.306898 V 5.165593 c 0,-1.1637743 -0.691737,-1.9192584 -2.259293,-1.9192584 z m 10.027806,0 V 18.048526 h 6.362403 l 0.57619,-2.755903 h -3.50417 v -3.226157 h 2.76623 V 9.5141621 h -2.76623 V 6.0027558 h 3.64267 l -0.57671,-2.7564212 z m 8.644433,0 -0.87591,2.7564212 h 2.23603 V 18.048526 h 3.41168 V 6.0027558 h 2.23605 l -0.82993,-2.7564212 z m 9.1054,0 -3.01947,14.8021914 h 3.3657 l 0.29972,-1.837099 h 2.28203 l 0.29972,1.837099 h 3.36568 L 118.41965,3.2463346 Z M 8.0682423,5.8394547 h 1.6365929 c 0.230523,0 0.3229778,0.1221745 0.3229778,0.3059261 v 4.4917112 c 0,0.224586 -0.069397,0.306444 -0.3229778,0.306444 H 8.0682423 Z m 32.5266967,0 h 1.314132 c 0.230524,0 0.299723,0.1020162 0.299723,0.2857675 V 15.14948 c 0,0.224586 -0.04635,0.306444 -0.322977,0.306444 h -1.267624 c -0.276627,0 -0.322977,-0.08188 -0.322977,-0.306444 V 6.1252222 c 0,-0.1837513 0.06919,-0.2857675 0.299723,-0.2857675 z m 21.484995,0 h 1.682578 c 0.230526,0 0.299733,0.1020162 0.299733,0.2857675 V 9.330712 c 0,0.2654207 -0.184444,0.3880942 -0.414967,0.3880942 h -1.567344 z m 18.303271,0 h 1.636594 c 0.230526,0 0.322979,0.1221745 0.322979,0.3059261 v 4.4917112 c 0,0.224586 -0.06939,0.306444 -0.322979,0.306444 h -1.636594 z m 10.027817,0 h 1.636591 c 0.230526,0 0.322982,0.1221745 0.322982,0.3059261 v 4.4917112 c 0,0.224586 -0.06939,0.306444 -0.322982,0.306444 h -1.636591 z m -59.198457,2.7357451 0.76068,5.2880492 h -1.544093 z m 85.431995,0.040844 0.76068,5.2472242 h -1.54461 z M 62.079934,11.964676 h 1.521354 c 0.299677,0 0.506944,0.101724 0.506944,0.428402 v 2.756421 c 0,0.224586 -0.06907,0.306444 -0.34572,0.306444 h -1.682578 z"
       copytype="repeated_stretched"
       prop_scale="1"
       scale_y_rel="false"
       spacing="0"
       normal_offset="0"
       tang_offset="0"
       prop_units="false"
       vertical_pattern="false"
       hide_knot="false"
       fuse_tolerance="0" /><inkscape:path-effect
       effect="bend_path"
       id="path-effect2"
       is_visible="true"
       lpeversion="1"
       bendpath="m 169.19837,435.15338 c 0,0 94.98171,-10.58495 137.35667,-9.85072 42.37496,0.73424 116.11156,12.37655 116.11156,12.37655"
       prop_scale="1.103"
       scale_y_rel="false"
       vertical="false"
       hide_knot="false"
       bendpath-nodetypes="czc" /><inkscape:path-effect
       effect="perspective-envelope"
       up_left_point="167.84002,404.01132"
       up_right_point="418.59156,404.01132"
       down_left_point="167.84002,446.08884"
       down_right_point="418.59156,446.08884"
       id="path-effect1"
       is_visible="true"
       lpeversion="1"
       deform_type="envelope_deformation"
       horizontal_mirror="false"
       vertical_mirror="false"
       overflow_perspective="true" /><inkscape:path-effect
       effect="envelope"
       id="path-effect15"
       is_visible="true"
       lpeversion="1"
       yy="true"
       xx="true"
       bendpath1="m 48.427654,140.08475 64.610286,-4.40027 65.57148,4.40027"
       bendpath2="m 178.60942,140.08475 -0.24153,34.38601"
       bendpath3="m 48.427654,161.92998 c 0,0 41.68415,-8.99773 63.402606,-9.02055 21.71847,-0.0228 66.77916,9.02055 66.77916,9.02055"
       bendpath4="M 48.427654,140.08475 48.18612,174.69077"
       bendpath4-nodetypes="cc"
       bendpath2-nodetypes="cc"
       bendpath3-nodetypes="czc"
       bendpath1-nodetypes="ccc" /><inkscape:path-effect
       effect="envelope"
       id="path-effect14"
       is_visible="true"
       lpeversion="1"
       yy="true"
       xx="true"
       bendpath1="M 43.843068,154.02078 H 162.4795"
       bendpath2="m 162.4795,154.02078 v 19.90785"
       bendpath3="m 43.182951,179.00026 c 0,0 38.610288,-5.89728 58.034989,-5.79615 20.5233,0.10686 61.26156,6.76217 61.26156,6.76217"
       bendpath4="m 43.843068,154.02078 v 19.90785"
       bendpath3-nodetypes="cac" /><inkscape:path-effect
       effect="bend_path"
       id="path-effect13"
       is_visible="true"
       lpeversion="1"
       bendpath="m 42.302795,167.35579 c 0,0 41.310478,-3.11638 61.998615,-3.13634 19.85224,-0.0191 59.49832,2.89483 59.49832,2.89483"
       prop_scale="1.1940992"
       scale_y_rel="false"
       vertical="false"
       hide_knot="false"
       bendpath-nodetypes="cac" /><inkscape:path-effect
       effect="clone_original"
       css_properties=""
       attributes="style,clip-path,mask"
       linkeditem=""
       is_visible="true"
       method="d"
       allow_transforms="true"
       id="path-effect12"
       lpeversion="1" /><inkscape:path-effect
       effect="lattice2"
       gridpoint0="43.843068,154.02078"
       gridpoint1="162.4795,154.02078"
       gridpoint2="43.843068,173.92863"
       gridpoint3="162.4795,173.92863"
       gridpoint4="73.502176,154.02078"
       gridpoint5="132.82039,154.02078"
       gridpoint6="73.502176,173.92863"
       gridpoint7="132.82039,173.92863"
       gridpoint8x9="103.16128,154.02078"
       gridpoint10x11="103.16128,173.92863"
       gridpoint12="43.843068,158.99774"
       gridpoint13="162.4795,158.99774"
       gridpoint14="43.843068,168.95167"
       gridpoint15="162.4795,168.95167"
       gridpoint16="73.502176,158.99774"
       gridpoint17="132.82039,158.99774"
       gridpoint18="73.502176,168.95167"
       gridpoint19="132.82039,168.95167"
       gridpoint20x21="103.16128,158.99774"
       gridpoint22x23="103.16128,168.95167"
       gridpoint24x26="43.843068,163.9747"
       gridpoint25x27="162.4795,163.9747"
       gridpoint28x30="73.502176,163.9747"
       gridpoint29x31="132.82039,163.9747"
       gridpoint32x33x34x35="103.16128,163.9747"
       id="path-effect11"
       is_visible="true"
       lpeversion="1"
       horizontal_mirror="false"
       vertical_mirror="false"
       perimetral="false"
       live_update="false" /><inkscape:path-effect
       effect="clone_original"
       css_properties=""
       attributes="style,clip-path,mask"
       linkeditem="#text1"
       is_visible="true"
       method="d"
       allow_transforms="true"
       id="path-effect5"
       lpeversion="1" /><linearGradient
       id="linearGradient2"
       inkscape:collect="always"><stop
         style="stop-color:#ffffff;stop-opacity:1"
         offset="0"
         id="stop2" /><stop
         style="stop-color:#333333;stop-opacity:1"
         offset="1"
         id="stop3" /></linearGradient><rect
       x="264.86526"
       y="62.731246"
       width="494.87983"
       height="141.1453"
       id="rect2" /><filter
       inkscape:label="Ridged Border"
       inkscape:menu="Bevels"
       inkscape:menu-tooltip="Ridged border with inner bevel"
       style="color-interpolation-filters:sRGB;"
       id="filter36"
       x="0"
       y="0"
       width="1"
       height="1"><feMorphology
         radius="4.3"
         in="SourceAlpha"
         result="result91"
         id="feMorphology35" /><feComposite
         operator="out"
         in="SourceGraphic"
         in2="result91"
         id="feComposite35" /><feGaussianBlur
         result="result0"
         stdDeviation="1"
         id="feGaussianBlur35" /><feDiffuseLighting
         diffuseConstant="1"
         id="feDiffuseLighting35"><feDistantLight
           elevation="50"
           azimuth="225"
           id="feDistantLight35" /></feDiffuseLighting><feBlend
         mode="multiply"
         in2="SourceGraphic"
         id="feBlend35" /><feGaussianBlur
         result="result10"
         stdDeviation="0.5"
         id="feGaussianBlur36" /><feComposite
         operator="in"
         in="result10"
         in2="SourceAlpha"
         id="feComposite36" /></filter><filter
       inkscape:label="Ridged Border"
       inkscape:menu="Bevels"
       inkscape:menu-tooltip="Ridged border with inner bevel"
       style="color-interpolation-filters:sRGB;"
       id="filter41"
       x="-1.6513126"
       y="0"
       width="4.3026251"
       height="1"><feMorphology
         radius="4.3"
         in="SourceAlpha"
         result="result91"
         id="feMorphology40" /><feComposite
         operator="out"
         in="SourceGraphic"
         in2="result91"
         id="feComposite40" /><feGaussianBlur
         result="result0"
         stdDeviation="1"
         id="feGaussianBlur40" /><feDiffuseLighting
         diffuseConstant="1"
         id="feDiffuseLighting40"><feDistantLight
           elevation="50"
           azimuth="225"
           id="feDistantLight40" /></feDiffuseLighting><feBlend
         mode="multiply"
         in2="SourceGraphic"
         id="feBlend40" /><feGaussianBlur
         result="result10"
         stdDeviation="0.5"
         id="feGaussianBlur41" /><feComposite
         operator="in"
         in="result10"
         in2="SourceAlpha"
         id="feComposite41" /></filter><filter
       inkscape:label="Ridged Border"
       inkscape:menu="Bevels"
       inkscape:menu-tooltip="Ridged border with inner bevel"
       style="color-interpolation-filters:sRGB;"
       id="filter43"
       x="-1.6513087"
       y="0"
       width="4.3026174"
       height="1"><feMorphology
         radius="4.3"
         in="SourceAlpha"
         result="result91"
         id="feMorphology41" /><feComposite
         operator="out"
         in="SourceGraphic"
         in2="result91"
         id="feComposite42" /><feGaussianBlur
         result="result0"
         stdDeviation="1"
         id="feGaussianBlur42" /><feDiffuseLighting
         diffuseConstant="1"
         id="feDiffuseLighting42"><feDistantLight
           elevation="50"
           azimuth="225"
           id="feDistantLight42" /></feDiffuseLighting><feBlend
         mode="multiply"
         in2="SourceGraphic"
         id="feBlend42" /><feGaussianBlur
         result="result10"
         stdDeviation="0.5"
         id="feGaussianBlur43" /><feComposite
         operator="in"
         in="result10"
         in2="SourceAlpha"
         id="feComposite43" /></filter><filter
       inkscape:label="Ridged Border"
       inkscape:menu="Bevels"
       inkscape:menu-tooltip="Ridged border with inner bevel"
       style="color-interpolation-filters:sRGB;"
       id="filter45"
       x="-1.6513087"
       y="0"
       width="4.3026174"
       height="1"><feMorphology
         radius="4.3"
         in="SourceAlpha"
         result="result91"
         id="feMorphology43" /><feComposite
         operator="out"
         in="SourceGraphic"
         in2="result91"
         id="feComposite44" /><feGaussianBlur
         result="result0"
         stdDeviation="1"
         id="feGaussianBlur44" /><feDiffuseLighting
         diffuseConstant="1"
         id="feDiffuseLighting44"><feDistantLight
           elevation="50"
           azimuth="225"
           id="feDistantLight44" /></feDiffuseLighting><feBlend
         mode="multiply"
         in2="SourceGraphic"
         id="feBlend44" /><feGaussianBlur
         result="result10"
         stdDeviation="0.5"
         id="feGaussianBlur45" /><feComposite
         operator="in"
         in="result10"
         in2="SourceAlpha"
         id="feComposite45" /></filter><filter
       inkscape:label="Ridged Border"
       inkscape:menu="Bevels"
       inkscape:menu-tooltip="Ridged border with inner bevel"
       style="color-interpolation-filters:sRGB;"
       id="filter47"
       x="-1.6513087"
       y="0"
       width="4.3026174"
       height="1"><feMorphology
         radius="4.3"
         in="SourceAlpha"
         result="result91"
         id="feMorphology45" /><feComposite
         operator="out"
         in="SourceGraphic"
         in2="result91"
         id="feComposite46" /><feGaussianBlur
         result="result0"
         stdDeviation="1"
         id="feGaussianBlur46" /><feDiffuseLighting
         diffuseConstant="1"
         id="feDiffuseLighting46"><feDistantLight
           elevation="50"
           azimuth="225"
           id="feDistantLight46" /></feDiffuseLighting><feBlend
         mode="multiply"
         in2="SourceGraphic"
         id="feBlend46" /><feGaussianBlur
         result="result10"
         stdDeviation="0.5"
         id="feGaussianBlur47" /><feComposite
         operator="in"
         in="result10"
         in2="SourceAlpha"
         id="feComposite47" /></filter><filter
       inkscape:label="Ridged Border"
       inkscape:menu="Bevels"
       inkscape:menu-tooltip="Ridged border with inner bevel"
       style="color-interpolation-filters:sRGB;"
       id="filter49"
       x="-1.6513087"
       y="0"
       width="4.3026174"
       height="1"><feMorphology
         radius="4.3"
         in="SourceAlpha"
         result="result91"
         id="feMorphology47" /><feComposite
         operator="out"
         in="SourceGraphic"
         in2="result91"
         id="feComposite48" /><feGaussianBlur
         result="result0"
         stdDeviation="1"
         id="feGaussianBlur48" /><feDiffuseLighting
         diffuseConstant="1"
         id="feDiffuseLighting48"><feDistantLight
           elevation="50"
           azimuth="225"
           id="feDistantLight48" /></feDiffuseLighting><feBlend
         mode="multiply"
         in2="SourceGraphic"
         id="feBlend48" /><feGaussianBlur
         result="result10"
         stdDeviation="0.5"
         id="feGaussianBlur49" /><feComposite
         operator="in"
         in="result10"
         in2="SourceAlpha"
         id="feComposite49" /></filter><filter
       inkscape:label="Flex Metal"
       inkscape:menu="Materials"
       inkscape:menu-tooltip="Bright, polished uneven metal casting, colorizable"
       style="color-interpolation-filters:sRGB;"
       id="filter64"
       x="-0.23235154"
       y="-1.6157735"
       width="1.4647031"
       height="4.231547"><feMorphology
         radius="4.3"
         in="SourceAlpha"
         result="result91"
         id="feMorphology63" /><feComposite
         operator="out"
         in="SourceGraphic"
         in2="result91"
         id="feComposite63" /><feGaussianBlur
         result="result0"
         stdDeviation="1"
         id="feGaussianBlur63" /><feDiffuseLighting
         diffuseConstant="1"
         id="feDiffuseLighting63"><feDistantLight
           elevation="50"
           azimuth="225"
           id="feDistantLight63" /></feDiffuseLighting><feBlend
         mode="multiply"
         in2="SourceGraphic"
         id="feBlend63" /><feGaussianBlur
         result="result10"
         stdDeviation="0.5"
         id="feGaussianBlur64" /><feComposite
         operator="in"
         in="result10"
         in2="SourceAlpha"
         id="feComposite64"
         result="fbSourceGraphic" /><feColorMatrix
         result="fbSourceGraphicAlpha"
         in="fbSourceGraphic"
         values="0 0 0 -1 0 0 0 0 -1 0 0 0 0 -1 0 0 0 0 1 0"
         id="feColorMatrix75" /><feGaussianBlur
         id="feGaussianBlur75"
         stdDeviation="5"
         result="result8"
         in="fbSourceGraphic" /><feTurbulence
         id="feTurbulence75"
         seed="25"
         result="result7"
         type="turbulence"
         numOctaves="2"
         baseFrequency="0.03" /><feComposite
         id="feComposite75"
         in2="result8"
         result="result6"
         operator="in"
         in="result8" /><feDisplacementMap
         id="feDisplacementMap75"
         in="result7"
         in2="result6"
         xChannelSelector="A"
         yChannelSelector="A"
         scale="120"
         result="result4" /><feComposite
         id="feComposite76"
         in2="result4"
         result="result2"
         operator="arithmetic"
         in="fbSourceGraphic"
         k1="2"
         k3="2.5"
         k2="0.25" /><feComposite
         id="feComposite77"
         result="fbSourceGraphic"
         in="result2"
         operator="in"
         in2="fbSourceGraphic" /><feBlend
         id="feBlend77"
         mode="screen"
         in2="fbSourceGraphic"
         result="result91" /><feBlend
         id="feBlend78"
         mode="multiply"
         in2="result91" /></filter><filter
       style="color-interpolation-filters:sRGB;"
       inkscape:label="Blur"
       id="filter14"
       x="-0.42892407"
       y="-0.05852734"
       width="1.9526005"
       height="1.1220976"><feGaussianBlur
         stdDeviation="0.41 0.41"
         result="blur"
         id="feGaussianBlur14" /></filter><filter
       style="color-interpolation-filters:sRGB;"
       inkscape:label="Blur"
       id="filter15"
       x="-0.14469694"
       y="-0.24835252"
       width="1.2893939"
       height="1.496705"><feGaussianBlur
         stdDeviation="0.41 0.41"
         result="blur"
         id="feGaussianBlur15" /></filter><filter
       style="color-interpolation-filters:sRGB;"
       inkscape:label="Blur"
       id="filter16"
       x="-0.091617676"
       y="-0.064519597"
       width="1.1832354"
       height="1.1290392"><feGaussianBlur
         stdDeviation="0.11 0.11"
         result="blur"
         id="feGaussianBlur16" /></filter><linearGradient
       inkscape:collect="always"
       xlink:href="#linearGradient2"
       id="linearGradient12"
       gradientUnits="userSpaceOnUse"
       x1="102.53818"
       y1="164.94867"
       x2="102.0981"
       y2="182.57863"
       spreadMethod="reflect" /><filter
       style="color-interpolation-filters:sRGB;"
       inkscape:label="Blur"
       id="filter37"
       x="-0.030495885"
       y="-0.060354302"
       width="1.0609918"
       height="1.1207086"><feGaussianBlur
         stdDeviation="0.3 0.3"
         result="blur"
         id="feGaussianBlur37" /></filter><filter
       style="color-interpolation-filters:sRGB;"
       inkscape:label="Blur"
       id="filter38"
       x="-0.13677069"
       y="-0.19015746"
       width="1.2735414"
       height="1.3803149"><feGaussianBlur
         stdDeviation="0.3 0.3"
         result="fbSourceGraphic"
         id="feGaussianBlur38" /><feColorMatrix
         result="fbSourceGraphicAlpha"
         in="fbSourceGraphic"
         values="0 0 0 -1 0 0 0 0 -1 0 0 0 0 -1 0 0 0 0 1 0"
         id="feColorMatrix39" /><feGaussianBlur
         id="feGaussianBlur39"
         stdDeviation="0.3 0.2"
         result="blur"
         in="fbSourceGraphic" /></filter><filter
       style="color-interpolation-filters:sRGB;"
       inkscape:label="Blur"
       id="filter50"
       x="-0.022453428"
       y="-0.030177186"
       width="1.0449069"
       height="1.0603544"><feGaussianBlur
         stdDeviation="0.1 0.1"
         result="blur"
         id="feGaussianBlur50" /></filter><filter
       style="color-interpolation-filters:sRGB;"
       inkscape:label="Blur"
       id="filter51"
       x="-0.055263472"
       y="-0.1126253"
       width="1.1105269"
       height="1.2252506"><feGaussianBlur
         stdDeviation="0.4 0.4"
         result="blur"
         id="feGaussianBlur51" /></filter><filter
       style="color-interpolation-filters:sRGB;"
       inkscape:label="Blur"
       id="filter119"
       x="-0.027129956"
       y="-0.051893295"
       width="1.0542599"
       height="1.1037866"><feGaussianBlur
         stdDeviation="0.2 0.2"
         result="blur"
         id="feGaussianBlur119" /></filter><linearGradient
       inkscape:collect="always"
       xlink:href="#linearGradient136"
       id="linearGradient137"
       x1="109.21284"
       y1="151.49469"
       x2="109.21284"
       y2="171.06323"
       gradientUnits="userSpaceOnUse" /><filter
       style="color-interpolation-filters:sRGB;"
       inkscape:label="Drop Shadow"
       id="filter162"
       x="-0.054417057"
       y="-0.26285325"
       width="1.1315079"
       height="1.6352287"><feFlood
         result="flood"
         in="SourceGraphic"
         flood-opacity="0.815686"
         flood-color="rgb(0,0,0)"
         id="feFlood161" /><feGaussianBlur
         result="blur"
         in="SourceGraphic"
         stdDeviation="1.000000"
         id="feGaussianBlur161" /><feOffset
         result="offset"
         in="blur"
         dx="1.000000"
         dy="1.000000"
         id="feOffset161" /><feComposite
         result="comp1"
         operator="in"
         in="flood"
         in2="offset"
         id="feComposite161" /><feComposite
         result="comp2"
         operator="over"
         in="SourceGraphic"
         in2="comp1"
         id="feComposite162" /></filter><filter
       style="color-interpolation-filters:sRGB;"
       inkscape:label="Drop Shadow"
       id="filter164"
       x="-0.019449589"
       y="-0.086457169"
       width="1.0470032"
       height="1.2089382"><feFlood
         result="flood"
         in="SourceGraphic"
         flood-opacity="0.815686"
         flood-color="rgb(0,0,0)"
         id="feFlood162" /><feGaussianBlur
         result="blur"
         in="SourceGraphic"
         stdDeviation="1.000000"
         id="feGaussianBlur162" /><feOffset
         result="offset"
         in="blur"
         dx="1.000000"
         dy="1.000000"
         id="feOffset162" /><feComposite
         result="comp1"
         operator="in"
         in="flood"
         in2="offset"
         id="feComposite163" /><feComposite
         result="comp2"
         operator="over"
         in="SourceGraphic"
         in2="comp1"
         id="feComposite164" /></filter></defs><g
     inkscape:groupmode="layer"
     id="layer5"
     inkscape:label="Brasão"
     style="display:none"
     transform="translate(-1.3450554e-6)"><path
       style="display:inline;fill:#2f302a;fill-opacity:1;fill-rule:evenodd;stroke:#ffffff;stroke-width:1.48309;stroke-dasharray:none;stroke-opacity:1"
       d="m 52.185034,99.903745 c 0,0 -3.052462,35.889495 2.142341,53.277125 2.916115,9.76063 6.586737,18.92698 15.487701,26.55176 8.900968,7.62479 38.252214,19.65439 38.252214,19.65439 0,0 29.56796,-12.21424 38.55073,-20.8326 8.98273,-8.61838 11.83467,-18.52828 14.4631,-28.35687 4.47913,-16.74899 1.50996,-49.67923 1.50996,-49.67923 L 108.15832,83.027725 Z"
       id="path12"
       sodipodi:nodetypes="cszczsccc"
       inkscape:label="brasão2" /><path
       style="display:inline;fill:#872a23;fill-opacity:1;fill-rule:evenodd;stroke:#ffffff;stroke-width:1.36963;stroke-dasharray:none;stroke-opacity:1"
       d="m 57.423143,106.97657 c 0,0 -2.763015,33.81505 1.939195,50.19766 2.639597,9.19645 5.962155,17.83298 14.019092,25.01704 8.056939,7.18407 34.62499,18.51834 34.62499,18.51834 0,0 26.7642,-11.50824 34.89517,-19.62844 8.13095,-8.12023 10.71246,-17.45733 13.09165,-26.71782 4.05439,-15.78088 1.36678,-46.80771 1.36678,-46.80771 L 108.0888,91.075991 Z"
       id="path37"
       sodipodi:nodetypes="cszczsccc"
       inkscape:label="brasão1" /><path
       d="m 87.496513,178.49201 c 0.125939,0 0.163721,0.063 0.163721,0.17632 v 5.5665 c 0,0.13853 -0.02519,0.18891 -0.176315,0.18891 h -0.856385 v -5.93173 z m 1.977242,-0.49116 c 0,-0.66748 -0.365223,-1.10826 -1.083075,-1.10826 h -3.576668 v 9.13057 h 3.236633 c 1.045293,0 1.42311,-0.403 1.42311,-1.41051 z m 0.755638,8.02231 h 3.475917 l 0.314847,-1.70017 h -1.914273 v -1.98984 h 1.511268 v -1.57424 h -1.511268 v -2.16615 h 1.989837 l -0.314848,-1.70017 h -3.55148 z m 7.203715,0 c 1.045294,0 1.397923,-0.37781 1.397923,-1.38533 v -3.00994 c 0,-0.68007 -0.327441,-0.93195 -0.906761,-0.93195 h -1.146045 c -0.188908,0 -0.277065,-0.0504 -0.277065,-0.23928 v -1.6624 c 0,-0.13853 0.07556,-0.2015 0.22669,-0.2015 h 2.065399 l -0.314847,-1.70017 h -2.51878 c -0.856385,0 -1.234202,0.46597 -1.234202,1.18382 v 3.0981 c 0,0.90676 0.478568,1.0327 1.020106,1.0327 h 0.944542 c 0.251878,0 0.340035,0.0126 0.340035,0.26447 v 1.6624 c 0,0.13853 -0.05038,0.18891 -0.214096,0.18891 h -1.964648 l 0.327441,1.70017 z m 4.836052,-7.53115 c 0.12594,0 0.16372,0.063 0.16372,0.17632 v 5.5665 c 0,0.13853 -0.0252,0.18891 -0.17631,0.18891 h -0.85639 v -5.93173 z m 1.97724,-0.49116 c 0,-0.66748 -0.36522,-1.10826 -1.08307,-1.10826 h -3.576669 v 9.13057 h 3.236629 c 1.0453,0 1.42311,-0.403 1.42311,-1.41051 z m 0.75564,8.02231 h 3.47592 l 0.31485,-1.70017 h -1.91428 v -1.98984 h 1.51127 v -1.57424 h -1.51127 v -2.16615 h 1.98984 l -0.31485,-1.70017 h -3.55148 z m 5.90654,-7.4304 h 0.75564 v 5.73023 h -0.59191 v 1.70017 h 3.0855 v -1.70017 h -0.6171 v -7.4304 h -1.95205 z m 6.34732,2.87141 h -0.90676 c -0.0756,0 -0.11335,-0.0504 -0.11335,-0.12594 v -2.69509 c 0,-0.11335 0.0504,-0.15113 0.13854,-0.15113 h 0.74304 c 0.10075,0 0.13853,0.0504 0.13853,0.15113 z m 1.83871,-3.45073 c 0,-0.71785 -0.46597,-1.12085 -1.07048,-1.12085 h -2.49359 c -0.60451,0 -1.07049,0.403 -1.07049,1.12085 v 3.84114 c 0,0.66748 0.40301,0.99492 0.95714,0.99492 h 1.83871 v 1.29717 c 0,0.10075 -0.0504,0.17632 -0.15113,0.17632 h -2.36765 l 0.31485,1.70017 h 2.61953 c 1.04529,0 1.42311,-0.403 1.42311,-1.41051 z m 0.50375,0.57932 h 2.25431 l -2.01503,7.4304 h 1.90168 l 2.05281,-7.99712 0.34003,-1.13345 h -4.21895 z m 4.78567,0 h 2.25431 l -2.01503,7.4304 h 1.90168 l 2.05281,-7.99712 0.34003,-1.13345 h -4.21895 z"
       id="text37"
       style="font-size:12.5939px;font-family:'American Captain';-inkscape-font-specification:'American Captain';fill:#ffffff;fill-rule:evenodd;stroke-width:1.5;filter:url(#filter162)"
       inkscape:label="1977"
       aria-label="DESDE 1977" /></g><g
     id="g56"
     transform="matrix(0.27606882,0,0,0.27606882,50.883891,55.976636)"
     style="display:inline"><path
       d="m 350,200 -2.88221,29.26355 -45.49104,12.83163 -10.16509,19.01755 14.60436,44.95329 -22.73049,18.65442 -41.24035,-23.09369 -20.63524,6.25963 L 200,350 170.73645,347.11779 157.90482,301.62675 138.88727,291.46166 93.933983,306.06602 75.279558,283.33553 98.373251,242.09518 92.113619,221.45994 50,200 52.882208,170.73645 98.373251,157.90482 108.53834,138.88727 93.933983,93.933983 116.66447,75.279558 157.90482,98.373251 178.54006,92.113619 200,50 l 29.26355,2.882208 12.83163,45.491043 19.01755,10.165089 44.95329,-14.604357 18.65442,22.730487 -23.09369,41.24035 6.25963,20.63524 z"
       fill="#1a202c"
       stroke="#1a202c"
       stroke-width="1"
       stroke-linejoin="miter"
       id="path1-5"
       style="display:none" /><circle
       cx="200"
       cy="200"
       r="44"
       fill="#ffffff"
       id="circle1"
       style="display:none" /></g><path
     d="m 135.8077,111.85994 7.78898,3.86102 -2.50052,8.8447 -8.78232,-0.34737 -0.75686,1.24246 4.70856,7.03485 -6.83153,6.47476 -7.42245,-4.46266 -1.31092,0.71733 0.3665,8.32369 -9.33203,2.36993 -4.07377,-7.38222 h -1.51371 l -4.07377,7.38222 -9.332036,-2.36993 0.366504,-8.32369 -1.310916,-0.71733 -7.422465,4.46266 -6.831526,-6.47476 4.708565,-7.03485 -0.756858,-1.24246 -8.782326,0.34737 -2.500511,-8.8447 7.788968,-3.86102 v -1.43467 l -7.788968,-3.86102 2.500511,-8.844687 8.782326,0.347364 0.756858,-1.242456 -4.708565,-7.034847 6.831526,-6.474768 7.422465,4.462673 1.310916,-0.717334 -0.366504,-8.323691 9.332036,-2.369929 4.07377,7.382209 h 1.51371 l 4.07377,-7.382209 9.33203,2.369929 -0.3665,8.323691 1.31092,0.717334 7.42245,-4.462673 6.83153,6.474768 -4.70856,7.034847 0.75686,1.242456 8.78232,-0.347364 2.50052,8.844687 -7.78898,3.86102 z"
     fill="#24292e"
     stroke="#24292e"
     stroke-width="0.225184"
     stroke-linejoin="miter"
     id="path1-0"
     style="display:inline;stroke:#ffffff;stroke-width:1.5;stroke-dasharray:none;stroke-opacity:1"
     inkscape:label="roda-dentada-python" /><g
     inkscape:groupmode="layer"
     id="layer3"
     inkscape:label="engrenagem"
     style="display:inline"><circle
       style="display:inline;fill:#ffffff;fill-opacity:1;stroke:#8a2b25;stroke-width:3;stroke-dasharray:none;stroke-opacity:1"
       id="path30"
       cx="106.94282"
       cy="113.63956"
       r="25.011724"
       inkscape:label="circulo" /><g
       inkscape:groupmode="layer"
       id="layer4"
       inkscape:label="chaves"
       style="display:inline"><path
         id="path32"
         style="display:inline;fill:#2a2a2a;fill-opacity:1;stroke:none;stroke-width:2;stroke-linecap:round;stroke-linejoin:round;stroke-dasharray:none;stroke-opacity:1;paint-order:normal"
         d="m 66.086405,83.961283 c -0.324538,0.0038 -0.647977,0.02657 -0.966349,0.0677 -1.131534,0.146175 -3.194003,1.209284 -3.218925,1.222148 0.0264,0.01416 2.338908,1.25513 3.42253,1.997294 0.988887,0.67728 2.812232,2.24069 2.812232,2.24069 0,0 -0.36483,2.506764 -1.036113,3.534668 -0.626522,0.959364 -2.631364,2.211235 -2.631364,2.211235 0,0 -2.006972,-1.102092 -2.968294,-1.721859 -1.194297,-0.769968 -3.470589,-2.475301 -3.470589,-2.475301 0,0 -0.523379,2.730199 -0.163298,4.02301 0.376915,1.353251 2.322856,3.516065 2.322856,3.516065 0,0 2.232072,2.021187 3.626652,2.447387 1.455158,0.44471 4.564579,-0.002 4.564579,-0.002 0,0 1.541866,-0.51965 2.324406,-0.42788 0.672746,0.0789 1.859318,0.8201 1.859318,0.8201 l 11.502141,7.16029 c 0,0 33.407733,17.39634 50.439303,26.75599 0.86322,0.47437 2.56435,1.22423 3.52536,2.2288 0.69664,0.72821 1.50068,2.62413 1.50068,2.62413 0,0 0.82201,1.58919 1.40147,2.25981 0.68779,0.796 1.43595,1.47036 2.41226,1.86213 0.76273,0.30606 1.64042,0.375 2.46083,0.32637 0.76063,-0.0451 1.54172,-0.12597 2.24844,-0.41083 0.77169,-0.31105 1.45349,-0.83231 2.08049,-1.37924 0.61666,-0.53791 1.24999,-1.11399 1.62213,-1.84278 0.36854,-0.72172 0.49411,-1.56217 0.5364,-2.37144 0.051,-0.9763 0.0195,-2.0056 -0.34572,-2.91248 -0.44276,-1.09959 -1.19674,-2.12535 -2.14509,-2.83652 -1.00053,-0.7503 -2.27903,-1.09355 -3.50624,-1.33428 -1.12001,-0.21969 -3.19257,0.1204 -3.19257,0.1204 l -9.5219,-6.31434 -56.399661,-30.726288 c 0,0 -1.432759,-2.104597 -1.978174,-3.249414 -0.547414,-1.149015 -0.500528,-2.591761 -1.281575,-3.596679 -1.225346,-1.576566 -3.095327,-2.659333 -4.97179,-3.341915 -0.905035,-0.329216 -1.890808,-0.486309 -2.864425,-0.474907 z m 79.586745,51.428827 0.32557,-0.43223 0.19208,0.50136 0.48216,-0.36308 0.0648,0.52397 0.47926,-0.33619 -0.0168,0.63825 0.59556,-0.17339 -0.183,0.54271 0.56862,-0.10857 -0.30873,0.56111 0.71398,-0.0851 -0.47249,0.53877 0.59932,0.0605 -0.49465,0.40002 0.59601,0.13398 -0.57011,0.31837 0.62724,0.194 -0.72088,0.21612 0.59791,0.41203 -0.77941,0.0216 0.46964,0.61803 -0.81834,-0.0739 0.45919,0.59021 -0.81882,-0.28384 0.28384,0.70307 -0.63774,-0.38422 0.0822,0.66946 -0.54985,-0.46586 -0.007,0.67186 -0.34527,-0.5811 -0.1465,0.77029 -0.35247,-0.67375 -0.30161,0.62148 -0.25543,-0.68916 -0.47255,0.5139 -0.0216,-0.68867 -0.55472,0.46875 0.16859,-0.63255 -0.63823,0.36551 0.29777,-0.62814 -0.65076,0.20891 0.3828,-0.45914 -0.57921,0.0682 0.34628,-0.40052 -0.63923,-0.036 0.4068,-0.38902 -0.67815,-0.0648 0.58315,-0.26836 -0.68301,-0.18687 0.64207,-0.13424 -0.71174,-0.22977 0.66514,-0.13583 -0.60081,-0.30976 0.66518,-0.12919 -0.58161,-0.37938 0.72569,-0.0451 -0.45965,-0.47014 0.7377,-0.0259 -0.27766,-0.49942 0.73531,0.0533 -0.0682,-0.5619 0.5787,0.1763 0.0158,-0.54028 0.58352,0.33426 0.30877,-0.53837 z"
         inkscape:label="sombra"
         sodipodi:nodetypes="cscscscscscscsccsscssssssscsscccsssccccccccccccccccccccccccccccccccccccccccccccccccccccccccccccccccccccc" /><path
         style="display:inline;fill:#ebece6;fill-opacity:1;stroke:none;stroke-width:2;stroke-linecap:round;stroke-linejoin:round;stroke-dasharray:none;stroke-opacity:1;paint-order:normal"
         d="m 64.920983,86.013821 4.005335,2.852719 c 0,0 0.30979,1.412075 0.188949,2.106691 -0.143139,0.822793 -0.58508,1.581761 -1.053409,2.273242 -0.479255,0.707612 -1.076682,1.351173 -1.76018,1.864232 -0.577636,0.433594 -1.928185,0.988488 -1.928185,0.988488 l -5.359655,-3.457843 -0.08645,1.066168 c 0,0 0.559263,1.521978 0.991911,2.200231 0.3524,0.552451 1.284503,1.488134 1.284503,1.488134 0,0 1.061352,0.961817 1.682064,1.306354 0.793236,0.4403 1.656652,0.806229 2.553791,0.941245 1.398295,0.210439 4.235857,-0.230522 4.235857,-0.230522 0,0 1.275762,-0.06727 1.899256,0.04346 0.600402,0.106632 1.181133,0.32785 1.731478,0.59048 3.17659,1.5159 6.003453,4.35838 9.772969,6.83479 4.30157,2.82594 9.360423,5.21002 9.360423,5.21002 l -0.547491,-8.12592 -15.761998,-9.163288 -2.420487,-4.956241 c 0,0 -0.657384,-1.895326 -2.069083,-3.147902 -1.07088,-0.950174 -2.490889,-1.532412 -3.895694,-1.808339 -1.00958,-0.198299 -3.083245,0.144077 -3.083245,0.144077 z"
         id="path33"
         sodipodi:nodetypes="ccaaacccacaacassccccsacc"
         inkscape:label="brilho" /><path
         style="display:inline;fill:#4d4d4d;fill-opacity:1;stroke:none;stroke-width:2;stroke-linecap:round;stroke-linejoin:round;stroke-dasharray:none;stroke-opacity:1;paint-order:normal;filter:url(#filter50)"
         d="m 84.169637,105.98285 -8.35645,-5.79187 c 0,0 -0.203458,-1.26763 0.165741,-1.701868 0.387741,-0.456047 1.736072,-0.45929 1.736072,-0.45929 l 8.73105,5.532548 z"
         id="path34"
         sodipodi:nodetypes="ccaccc"
         inkscape:label="relevo-1" /><path
         style="display:inline;fill:#333333;fill-opacity:1;stroke:none;stroke-width:2;stroke-linecap:round;stroke-linejoin:round;stroke-dasharray:none;stroke-opacity:1;paint-order:normal;filter:url(#filter38)"
         d="m 85.379883,104.16749 -7.895406,-5.532546 -1.267875,1.29669 -0.432232,0.489866 -0.259336,-0.95091 c 0,0 -0.08645,-1.61366 1.35432,-1.61366 1.440767,0 9.163282,5.41729 9.163282,5.41729 0,0 0.144076,0.778 -0.662753,0.89327 z"
         id="path35"
         inkscape:label="relevo-2"
         sodipodi:nodetypes="cccccscc" /><path
         style="display:inline;fill:#666666;fill-opacity:1;stroke:none;stroke-width:2;stroke-linecap:round;stroke-linejoin:round;stroke-dasharray:none;stroke-opacity:1;paint-order:normal"
         d="m 84.515422,105.60826 -8.327636,-5.50373 -0.230524,0.3746 8.010668,5.24439 z"
         id="path38"
         inkscape:label="relevo-3" /><path
         style="display:inline;fill:#878882;fill-opacity:1;stroke:none;stroke-width:2;stroke-linecap:round;stroke-linejoin:round;stroke-dasharray:none;stroke-opacity:1;paint-order:normal;filter:url(#filter37)"
         d="m 61.030913,94.226196 c 0,0 1.094983,4.495194 6.224114,4.322302 5.129133,-0.172892 5.446454,-2.530455 5.446454,-2.530455 0,0 1.319132,3.060471 3.632407,4.547937 3.407044,2.19077 6.48143,4.72531 6.48143,4.72531 0,0 -4.547827,-2.56332 -8.498483,-5.02786 -1.525921,-0.951908 -3.08529,-1.196256 -5.448149,-1.023364 -2.362859,0.172892 -4.62903,0.582099 -7.643905,-2.173086 -2.987047,-2.729753 -1.776667,-3.705246 -1.776667,-3.705246 z"
         id="path39"
         sodipodi:nodetypes="cscscssscc"
         inkscape:label="sombra-relevo-chave" /><path
         style="display:inline;fill:#3f403d;fill-opacity:1;stroke:none;stroke-width:2;stroke-linecap:round;stroke-linejoin:round;stroke-dasharray:none;stroke-opacity:1;paint-order:normal"
         d="m 73.363883,92.612537 c 0,0 -0.473699,2.802546 -1.426411,4.019341 -0.92105,1.176357 -3.501016,2.824303 -3.501016,2.824303 l 0.331376,0.08645 c 0,0 2.753916,-1.301494 3.601272,-2.489649 0.817213,-1.145888 1.138854,-4.065843 1.138854,-4.065843 z"
         id="path40"
         sodipodi:nodetypes="csccacc"
         inkscape:label="relevo-chave" /><path
         id="path41"
         style="display:inline;fill:#898a85;fill-opacity:0.522588;stroke:none;stroke-width:2;stroke-linecap:round;stroke-linejoin:round;stroke-dasharray:none;stroke-opacity:1;paint-order:normal"
         d="m 132.44101,127.63252 0.0408,3.91191 c 0,0 0.55059,0.77755 0.89658,1.10019 1.86041,1.73485 4.68108,2.38455 6.23766,4.39648 0.85231,1.10164 0.60187,2.80988 1.47247,3.9105 0.76811,0.97106 1.7321,1.96002 2.92592,2.28824 1.27826,0.35144 2.75525,0.0815 3.94446,-0.50437 1.26496,-0.62319 2.37944,-1.72567 2.98276,-3.00033 0.28023,-0.59205 0.26792,-1.30333 0.19947,-1.95492 -0.0969,-0.92256 -0.35588,-1.86544 -0.85111,-2.64997 -0.46846,-0.74213 -1.16877,-1.34574 -1.91668,-1.80505 -0.77475,-0.47579 -1.65794,-0.88524 -2.56625,-0.92501 -0.78916,-0.0345 -1.55453,0.31956 -2.29082,0.60564 -0.7402,0.2876 -1.51588,0.57891 -2.10994,1.10588 -0.39461,0.35004 -0.89659,1.30431 -0.89659,1.30431 L 137.6572,131.3 l -5.17539,-3.66748 z m 12.5007,7.30887 0.39569,0.46374 0.29753,-0.54358 0.31685,0.57516 0.38401,-0.55954 0.15549,0.68961 0.47463,-0.49625 0.0291,0.71725 0.55648,-0.35314 -0.15065,0.687 0.6191,-0.23954 -0.22064,0.62245 0.63716,-0.1725 -0.42513,0.63985 0.6536,-0.0361 -0.48823,0.48207 0.75139,0.10558 -0.6812,0.38897 0.68459,0.1488 -0.74727,0.24228 0.65732,0.24559 -0.77455,0.26536 0.53506,0.49577 -0.81109,-0.0182 0.54412,0.58221 -0.82148,-0.19974 0.35837,0.73878 -0.75817,-0.41199 0.16031,0.74931 -0.5967,-0.52724 0.0667,0.72367 -0.5151,-0.54165 -0.0219,0.69363 -0.4415,-0.60781 -0.12421,0.6221 -0.33858,-0.63274 -0.4177,0.55434 -0.0685,-0.67601 -0.53416,0.46201 0.0508,-0.65704 -0.61404,0.44586 0.27905,-0.62605 -0.60147,0.34756 0.28906,-0.59232 -0.72464,0.2277 0.49462,-0.48767 -0.72709,-0.0247 0.50042,-0.42693 -0.69648,-0.0582 0.50705,-0.33881 -0.68383,-0.10998 0.56752,-0.21486 -0.66069,-0.11174 0.63734,-0.22237 -0.65665,-0.29769 0.69953,-0.1028 -0.71591,-0.34918 0.77275,-0.0198 -0.45909,-0.40304 c 0,0 0.76318,-0.0604 0.74878,-0.0644 l -0.42353,-0.47409 0.64316,0.004 -0.0837,-0.52348 0.58653,0.10335 0.13178,-0.57309 0.44202,0.29768 0.3697,-0.63701 z"
         sodipodi:nodetypes="ccssssssssscsscccccccccccccccccccccccccccccccccccccccccccccccccccccccccccccccccccccccc" /><path
         style="fill:#ffffff;fill-opacity:1;stroke:none;stroke-width:2;stroke-linecap:round;stroke-linejoin:round;stroke-dasharray:none;stroke-opacity:1;paint-order:normal;filter:url(#filter119)"
         d="m 132.7235,127.76726 c 3.36684,1.96217 1.55603,3.05443 1.55603,3.05443 0,0 2.69725,-0.0787 3.60192,0.7492 0.3183,0.29131 0.3746,1.23905 0.3746,1.23905 0,0 0.86038,0.61803 1.20368,1.01503 0.47905,0.55399 1.15918,1.86651 1.15918,1.86651 0,0 1.11046,-2.1976 2.9968,-2.30522 0.8247,-0.047 1.77742,-0.41804 2.65101,-0.25934 0.5842,0.10613 1.09485,0.47148 1.59855,0.78587 0.76811,0.47942 2.14744,1.66344 2.14744,1.66344 0,0 -0.59463,-0.87998 -0.97972,-1.23907 -0.69756,-0.65045 -1.457,-1.31519 -2.36286,-1.61366 -2.26637,-0.74673 -3.24178,0.53058 -4.75453,0.0576 -2.53105,-0.7913 -6.48345,-4.61045 -6.48345,-4.61045 l -3.11206,-1.72892 c 0,0 0.004,1.09295 0.40341,1.3255 z"
         id="path42"
         sodipodi:nodetypes="scacacsaacasaccs" /><ellipse
         style="display:none;fill:#3d3d37;fill-opacity:1;fill-rule:evenodd;stroke:#bdbf16;stroke-width:1.27389;stroke-dasharray:none;stroke-opacity:0.497127"
         id="ellipse119"
         cx="145.56075"
         cy="137.93187"
         rx="2.0097935"
         ry="1.9017363"
         sodipodi:insensitive="true" /></g><g
       inkscape:groupmode="layer"
       id="g135"
       inkscape:label="chaves copiar"
       style="display:inline"
       transform="matrix(-1,0,0,1,210.05238,0)"><path
         id="path127"
         style="display:inline;fill:#2a2a2a;fill-opacity:1;stroke:none;stroke-width:2;stroke-linecap:round;stroke-linejoin:round;stroke-dasharray:none;stroke-opacity:1;paint-order:normal"
         d="m 66.086405,83.961283 c -0.324538,0.0038 -0.647977,0.02657 -0.966349,0.0677 -1.131534,0.146175 -3.194003,1.209284 -3.218925,1.222148 0.0264,0.01416 2.338908,1.25513 3.42253,1.997294 0.988887,0.67728 2.812232,2.24069 2.812232,2.24069 0,0 -0.36483,2.506764 -1.036113,3.534668 -0.626522,0.959364 -2.631364,2.211235 -2.631364,2.211235 0,0 -2.006972,-1.102092 -2.968294,-1.721859 -1.194297,-0.769968 -3.470589,-2.475301 -3.470589,-2.475301 0,0 -0.523379,2.730199 -0.163298,4.02301 0.376915,1.353251 2.322856,3.516065 2.322856,3.516065 0,0 2.232072,2.021187 3.626652,2.447387 1.455158,0.44471 4.564579,-0.002 4.564579,-0.002 0,0 1.541866,-0.51965 2.324406,-0.42788 0.672746,0.0789 1.859318,0.8201 1.859318,0.8201 l 11.502141,7.16029 c 0,0 33.407733,17.39634 50.439303,26.75599 0.86322,0.47437 2.56435,1.22423 3.52536,2.2288 0.69664,0.72821 1.50068,2.62413 1.50068,2.62413 0,0 0.82201,1.58919 1.40147,2.25981 0.68779,0.796 1.43595,1.47036 2.41226,1.86213 0.76273,0.30606 1.64042,0.375 2.46083,0.32637 0.76063,-0.0451 1.54172,-0.12597 2.24844,-0.41083 0.77169,-0.31105 1.45349,-0.83231 2.08049,-1.37924 0.61666,-0.53791 1.24999,-1.11399 1.62213,-1.84278 0.36854,-0.72172 0.49411,-1.56217 0.5364,-2.37144 0.051,-0.9763 0.0195,-2.0056 -0.34572,-2.91248 -0.44276,-1.09959 -1.19674,-2.12535 -2.14509,-2.83652 -1.00053,-0.7503 -2.27903,-1.09355 -3.50624,-1.33428 -1.12001,-0.21969 -3.19257,0.1204 -3.19257,0.1204 l -9.5219,-6.31434 -56.399661,-30.726288 c 0,0 -1.432759,-2.104597 -1.978174,-3.249414 -0.547414,-1.149015 -0.500528,-2.591761 -1.281575,-3.596679 -1.225346,-1.576566 -3.095327,-2.659333 -4.97179,-3.341915 -0.905035,-0.329216 -1.890808,-0.486309 -2.864425,-0.474907 z m 79.586745,51.428827 0.32557,-0.43223 0.19208,0.50136 0.48216,-0.36308 0.0648,0.52397 0.47926,-0.33619 -0.0168,0.63825 0.59556,-0.17339 -0.183,0.54271 0.56862,-0.10857 -0.30873,0.56111 0.71398,-0.0851 -0.47249,0.53877 0.59932,0.0605 -0.49465,0.40002 0.59601,0.13398 -0.57011,0.31837 0.62724,0.194 -0.72088,0.21612 0.59791,0.41203 -0.77941,0.0216 0.46964,0.61803 -0.81834,-0.0739 0.45919,0.59021 -0.81882,-0.28384 0.28384,0.70307 -0.63774,-0.38422 0.0822,0.66946 -0.54985,-0.46586 -0.007,0.67186 -0.34527,-0.5811 -0.1465,0.77029 -0.35247,-0.67375 -0.30161,0.62148 -0.25543,-0.68916 -0.47255,0.5139 -0.0216,-0.68867 -0.55472,0.46875 0.16859,-0.63255 -0.63823,0.36551 0.29777,-0.62814 -0.65076,0.20891 0.3828,-0.45914 -0.57921,0.0682 0.34628,-0.40052 -0.63923,-0.036 0.4068,-0.38902 -0.67815,-0.0648 0.58315,-0.26836 -0.68301,-0.18687 0.64207,-0.13424 -0.71174,-0.22977 0.66514,-0.13583 -0.60081,-0.30976 0.66518,-0.12919 -0.58161,-0.37938 0.72569,-0.0451 -0.45965,-0.47014 0.7377,-0.0259 -0.27766,-0.49942 0.73531,0.0533 -0.0682,-0.5619 0.5787,0.1763 0.0158,-0.54028 0.58352,0.33426 0.30877,-0.53837 z"
         inkscape:label="sombra"
         sodipodi:nodetypes="cscscscscscscsccsscssssssscsscccsssccccccccccccccccccccccccccccccccccccccccccccccccccccccccccccccccccccc" /><path
         style="display:inline;fill:#ebece6;fill-opacity:1;stroke:none;stroke-width:2;stroke-linecap:round;stroke-linejoin:round;stroke-dasharray:none;stroke-opacity:1;paint-order:normal"
         d="m 64.920983,86.013821 4.005335,2.852719 c 0,0 0.30979,1.412075 0.188949,2.106691 -0.143139,0.822793 -0.58508,1.581761 -1.053409,2.273242 -0.479255,0.707612 -1.076682,1.351173 -1.76018,1.864232 -0.577636,0.433594 -1.928185,0.988488 -1.928185,0.988488 l -5.359655,-3.457843 -0.08645,1.066168 c 0,0 0.559263,1.521978 0.991911,2.200231 0.3524,0.552451 1.284503,1.488134 1.284503,1.488134 0,0 1.061352,0.961817 1.682064,1.306354 0.793236,0.4403 1.656652,0.806229 2.553791,0.941245 1.398295,0.210439 4.235857,-0.230522 4.235857,-0.230522 0,0 1.275762,-0.06727 1.899256,0.04346 0.600402,0.106632 1.186443,0.317002 1.731478,0.59048 1.707419,0.85672 3.836164,2.66622 5.938775,4.10162 4.436708,3.02883 8.757053,5.98375 8.757053,5.98375 l 0.835646,-7.54962 -12.707571,-7.780148 -2.420487,-4.956241 c 0,0 -0.657384,-1.895326 -2.069083,-3.147902 -1.07088,-0.950174 -2.490889,-1.532412 -3.895694,-1.808339 -1.00958,-0.198299 -3.083245,0.144077 -3.083245,0.144077 z"
         id="path128"
         sodipodi:nodetypes="ccaaacccacaacassccccsacc"
         inkscape:label="brilho" /><path
         style="display:inline;fill:#4d4d4d;fill-opacity:1;stroke:none;stroke-width:2;stroke-linecap:round;stroke-linejoin:round;stroke-dasharray:none;stroke-opacity:1;paint-order:normal;filter:url(#filter50)"
         d="m 84.169637,105.98285 -8.35645,-5.79187 c 0,0 -0.203458,-1.26763 0.165741,-1.701868 0.387741,-0.456047 1.736072,-0.45929 1.736072,-0.45929 l 8.73105,5.532548 z"
         id="path129"
         sodipodi:nodetypes="ccaccc"
         inkscape:label="relevo-1" /><path
         style="display:inline;fill:#333333;fill-opacity:1;stroke:none;stroke-width:2;stroke-linecap:round;stroke-linejoin:round;stroke-dasharray:none;stroke-opacity:1;paint-order:normal;filter:url(#filter38)"
         d="m 85.379883,104.16749 -7.895406,-5.532546 -1.267875,1.29669 -0.432232,0.489866 -0.259336,-0.95091 c 0,0 -0.08645,-1.61366 1.35432,-1.61366 1.440767,0 9.163282,5.41729 9.163282,5.41729 0,0 0.144076,0.778 -0.662753,0.89327 z"
         id="path130"
         inkscape:label="relevo-2"
         sodipodi:nodetypes="cccccscc" /><path
         style="display:inline;fill:#666666;fill-opacity:1;stroke:none;stroke-width:2;stroke-linecap:round;stroke-linejoin:round;stroke-dasharray:none;stroke-opacity:1;paint-order:normal"
         d="m 84.515422,105.60826 -8.327636,-5.50373 -0.230524,0.3746 8.010668,5.24439 z"
         id="path131"
         inkscape:label="relevo-3" /><path
         style="display:inline;fill:#878882;fill-opacity:1;stroke:none;stroke-width:2;stroke-linecap:round;stroke-linejoin:round;stroke-dasharray:none;stroke-opacity:1;paint-order:normal;filter:url(#filter37)"
         d="m 61.030913,94.226196 c 0,0 1.094983,4.495194 6.224114,4.322302 5.129133,-0.172892 5.446454,-2.530455 5.446454,-2.530455 0,0 1.319132,3.060471 3.632407,4.547937 3.407044,2.19077 6.48143,4.72531 6.48143,4.72531 0,0 -4.547827,-2.56332 -8.498483,-5.02786 -1.525921,-0.951908 -3.08529,-1.196256 -5.448149,-1.023364 -2.362859,0.172892 -4.62903,0.582099 -7.643905,-2.173086 -2.987047,-2.729753 -1.776667,-3.705246 -1.776667,-3.705246 z"
         id="path132"
         sodipodi:nodetypes="cscscssscc"
         inkscape:label="sombra-relevo-chave" /><path
         style="display:inline;fill:#3f403d;fill-opacity:1;stroke:none;stroke-width:2;stroke-linecap:round;stroke-linejoin:round;stroke-dasharray:none;stroke-opacity:1;paint-order:normal"
         d="m 73.363883,92.612537 c 0,0 -0.473699,2.802546 -1.426411,4.019341 -0.92105,1.176357 -3.501016,2.824303 -3.501016,2.824303 l 0.331376,0.08645 c 0,0 2.753916,-1.301494 3.601272,-2.489649 0.817213,-1.145888 1.138854,-4.065843 1.138854,-4.065843 z"
         id="path133"
         sodipodi:nodetypes="csccacc"
         inkscape:label="relevo-chave" /><path
         id="path134"
         style="display:inline;fill:#898a85;fill-opacity:0.522588;stroke:none;stroke-width:2;stroke-linecap:round;stroke-linejoin:round;stroke-dasharray:none;stroke-opacity:1;paint-order:normal"
         d="m 132.44101,127.63252 0.0408,3.91191 c 0,0 0.55059,0.77755 0.89658,1.10019 1.86041,1.73485 4.68108,2.38455 6.23766,4.39648 0.85231,1.10164 0.60187,2.80988 1.47247,3.9105 0.76811,0.97106 1.7321,1.96002 2.92592,2.28824 1.27826,0.35144 2.75525,0.0815 3.94446,-0.50437 1.26496,-0.62319 2.37944,-1.72567 2.98276,-3.00033 0.28023,-0.59205 0.26792,-1.30333 0.19947,-1.95492 -0.0969,-0.92256 -0.35588,-1.86544 -0.85111,-2.64997 -0.46846,-0.74213 -1.16877,-1.34574 -1.91668,-1.80505 -0.77475,-0.47579 -1.65794,-0.88524 -2.56625,-0.92501 -0.78916,-0.0345 -1.55453,0.31956 -2.29082,0.60564 -0.7402,0.2876 -1.51588,0.57891 -2.10994,1.10588 -0.39461,0.35004 -0.89659,1.30431 -0.89659,1.30431 L 137.6572,131.3 l -5.17539,-3.66748 z m 12.5007,7.30887 0.39569,0.46374 0.29753,-0.54358 0.31685,0.57516 0.38401,-0.55954 0.15549,0.68961 0.47463,-0.49625 0.0291,0.71725 0.55648,-0.35314 -0.15065,0.687 0.6191,-0.23954 -0.22064,0.62245 0.63716,-0.1725 -0.42513,0.63985 0.6536,-0.0361 -0.48823,0.48207 0.75139,0.10558 -0.6812,0.38897 0.68459,0.1488 -0.74727,0.24228 0.65732,0.24559 -0.77455,0.26536 0.53506,0.49577 -0.81109,-0.0182 0.54412,0.58221 -0.82148,-0.19974 0.35837,0.73878 -0.75817,-0.41199 0.16031,0.74931 -0.5967,-0.52724 0.0667,0.72367 -0.5151,-0.54165 -0.0219,0.69363 -0.4415,-0.60781 -0.12421,0.6221 -0.33858,-0.63274 -0.4177,0.55434 -0.0685,-0.67601 -0.53416,0.46201 0.0508,-0.65704 -0.61404,0.44586 0.27905,-0.62605 -0.60147,0.34756 0.28906,-0.59232 -0.72464,0.2277 0.49462,-0.48767 -0.72709,-0.0247 0.50042,-0.42693 -0.69648,-0.0582 0.50705,-0.33881 -0.68383,-0.10998 0.56752,-0.21486 -0.66069,-0.11174 0.63734,-0.22237 -0.65665,-0.29769 0.69953,-0.1028 -0.71591,-0.34918 0.77275,-0.0198 -0.45909,-0.40304 c 0,0 0.76318,-0.0604 0.74878,-0.0644 l -0.42353,-0.47409 0.64316,0.004 -0.0837,-0.52348 0.58653,0.10335 0.13178,-0.57309 0.44202,0.29768 0.3697,-0.63701 z"
         sodipodi:nodetypes="ccssssssssscsscccccccccccccccccccccccccccccccccccccccccccccccccccccccccccccccccccccccc" /><path
         style="fill:#ffffff;fill-opacity:1;stroke:none;stroke-width:2;stroke-linecap:round;stroke-linejoin:round;stroke-dasharray:none;stroke-opacity:1;paint-order:normal;filter:url(#filter119)"
         d="m 132.7235,127.76726 c 3.36684,1.96217 1.55603,3.05443 1.55603,3.05443 0,0 2.69725,-0.0787 3.60192,0.7492 0.3183,0.29131 0.3746,1.23905 0.3746,1.23905 0,0 0.86038,0.61803 1.20368,1.01503 0.47905,0.55399 1.15918,1.86651 1.15918,1.86651 0,0 1.11046,-2.1976 2.9968,-2.30522 0.8247,-0.047 1.77742,-0.41804 2.65101,-0.25934 0.5842,0.10613 1.09485,0.47148 1.59855,0.78587 0.76811,0.47942 2.14744,1.66344 2.14744,1.66344 0,0 -0.59463,-0.87998 -0.97972,-1.23907 -0.69756,-0.65045 -1.457,-1.31519 -2.36286,-1.61366 -2.26637,-0.74673 -3.24178,0.53058 -4.75453,0.0576 -2.53105,-0.7913 -6.48345,-4.61045 -6.48345,-4.61045 l -3.11206,-1.72892 c 0,0 0.004,1.09295 0.40341,1.3255 z"
         id="path135"
         sodipodi:nodetypes="scacacsaacasaccs" /><ellipse
         style="display:none;fill:#3d3d37;fill-opacity:1;fill-rule:evenodd;stroke:#bdbf16;stroke-width:1.27389;stroke-dasharray:none;stroke-opacity:0.497127"
         id="ellipse135"
         cx="145.56075"
         cy="137.93187"
         rx="2.0097935"
         ry="1.9017363"
         sodipodi:insensitive="true" /></g></g><g
     inkscape:groupmode="layer"
     id="layer2"
     inkscape:label="caminhão"
     style="display:inline"><path
       id="path16"
       style="display:inline;fill:#000000;fill-opacity:1;stroke:none;stroke-width:0.499999;stroke-opacity:1"
       d="m 122.86847,91.719466 c 0,0 -2.07809,1.038406 -2.15749,2.020549 -0.18669,2.309214 0.0447,5.773521 -0.43977,6.056994 -0.50649,0.296391 -1.26191,-1.623556 -2.17454,-1.668632 -7.10271,-0.350813 -14.7173,-0.316686 -21.842597,0.08165 -0.889612,0.04973 -1.534369,1.502958 -2.221053,1.487248 -0.892628,-0.02042 -0.02707,-3.291665 -0.224276,-4.910295 -0.07621,-0.625537 -0.507307,-1.171562 -0.906921,-1.658813 -0.446631,-0.544577 -1.619539,-1.356507 -1.619539,-1.356507 0,0 -0.58029,0.268933 -0.77308,0.510047 -0.27642,0.345706 -0.469739,1.241784 -0.469739,1.241784 0,0 1.357048,0.764941 1.568897,1.42627 0.306776,0.95766 -0.142344,4.413309 -0.338481,6.610969 -0.106859,1.19732 0.260691,3.52468 -0.456303,3.57704 l -3.626652,0.2651 c 0,0 0.01362,0.81564 -0.244429,1.07952 -0.313268,0.32033 -1.241926,-0.11761 -1.304313,0.32608 -0.337506,2.40035 -0.231002,3.36237 0.02015,6.72413 0.03191,0.42713 0.952067,0.0121 1.243335,0.32608 0.281737,0.30376 -0.07098,0.93099 0.223759,1.22215 0.401941,0.39706 1.671216,0.28525 1.671216,0.28525 0,0 1.459067,-0.30984 1.58905,0.20413 0.522041,2.06423 0.287402,4.46724 -0.04082,6.09213 -0.209184,1.03556 -5.657947,-0.009 -6.56084,1.81333 -0.417639,0.84317 -0.318794,4.48223 -0.855762,8.72091 -0.08572,0.67662 -1.372729,0.78717 -1.426269,1.4671 -0.162852,2.06812 -0.06079,3.93201 0.08165,5.62343 0.03126,0.37127 2.852539,1.22266 2.852539,1.22266 l 0.06459,5.78363 8.630481,0.0884 0.115239,-4.1491 27.893388,0.23048 -0.11524,3.68815 8.66563,-0.014 0.34571,-6.12262 2.2841,-0.66353 0.31212,-5.61412 -1.18649,-0.48525 -0.63097,-7.46104 c 0,0 -0.16145,-1.63662 -0.64027,-2.25361 -0.54113,-0.69726 -2.28771,-1.33325 -2.28771,-1.33325 l -4.41524,-0.81959 0.0481,-5.64772 c 0,0 1.50937,-0.002 2.22054,-0.22065 0.30078,-0.0923 0.59316,-0.24291 0.82992,-0.45011 0.44488,-0.38934 0.57516,-1.11052 0.57516,-1.11052 0,0 1.11192,0.15899 1.3193,-0.23668 0.45043,-0.85941 0.50963,-1.99518 0.55094,-2.9993 0.0511,-1.24063 -0.13029,-2.381 -0.3174,-3.72432 -0.0426,-0.30606 -0.83458,-0.40359 -0.83458,-0.40359 0,0 -0.51498,0.005 -0.67282,-0.1633 -0.18986,-0.20237 0.10955,-0.70608 -0.14366,-0.81959 l -0.85628,-0.28319 -3.09749,-0.1235 -0.0806,-9.044928 c 0,0 -0.17641,-1.245184 0.10645,-1.760616 0.13304,-0.24244 0.67128,-0.486792 0.67128,-0.486792 0,0 0.15981,-0.926649 -0.0186,-1.333768 -0.16656,-0.380077 -0.9033,-0.856279 -0.9033,-0.856279 z m 1.07487,14.261144 c 0.0221,6.5e-4 0.0346,0.002 0.0346,0.002 0,0 1.18151,0.058 1.82986,0.0868 0.55666,0.0247 0.0726,0.49563 0.0796,0.54622 v 5.2e-4 5.2e-4 l 5.1e-4,5.1e-4 v 5.2e-4 l 5.2e-4,5.2e-4 5.2e-4,5.2e-4 h 5.1e-4 l 5.2e-4,5.1e-4 h 5.2e-4 c 0.004,0.001 0.0137,-7.8e-4 0.0269,-0.007 -0.11798,0.0619 -0.32599,0.17041 -0.61392,0.32091 -0.63394,0.33138 -0.48989,1.45521 -0.48989,1.45521 l 0.0145,0.90796 0.0863,3.01118 c 0,0 0.0143,0.43224 -0.0145,0.96532 -0.0288,0.53309 0.15865,0.5333 0.15865,0.5333 l 1.16685,-0.0579 c 0,0 0.0293,0.31725 -0.0139,0.54777 -0.0432,0.23052 -0.36019,0.44649 -0.36019,0.44649 0,0 -1.28234,0.0433 -1.9451,0.0145 -0.66276,-0.0288 -0.67748,-0.59067 -0.67748,-0.59067 0,0 -0.0574,-6.12364 -0.0574,-7.20421 0,-0.9455 0.61762,-0.98638 0.77205,-0.98185 z m -35.921323,0.0537 2.864942,0.0264 c 0,0 0.0416,6.10367 -0.05271,8.4491 -0.02377,0.59114 -2.320636,0.27205 -2.768823,-0.009 -0.1422,-0.0891 -0.108193,-0.37727 0.0026,-0.50333 0.160584,-0.18277 1.368392,-0.34313 1.368392,-0.34313 0,0 0.137745,-4.03558 -0.275435,-6.83111 -0.05047,-0.34154 -1.016475,-0.25941 -1.016475,-0.25941 z"
       sodipodi:nodetypes="sssssssscscssccssscscsscsssccccccccccccsccccscsssccccccscscscscccccccccccscccsccscscssccssscscccs"
       inkscape:label="caminhão-fundo-preto" /><path
       style="display:inline;fill:#7b2c23;fill-opacity:1;stroke:none;stroke-width:0.3;stroke-dasharray:none;stroke-opacity:1"
       d="m 120.37863,133.33746 c 2.14768,0.44486 6.1915,0.71964 10.08588,-0.36676 1.31642,-0.36724 0.66013,-5.50365 0.40752,-7.88532 -0.1341,-1.26423 -0.47804,-1.26837 -3.60647,-1.97643 -3.18544,-0.72096 -4.29991,-0.79413 -5.21614,-0.20376 -0.89065,0.57389 -1.22253,2.93408 -1.22253,2.93408 0,0 -0.45223,2.21648 -0.52977,3.34159 -0.0953,1.38252 -0.5839,4.01877 0.0815,4.1566 z"
       id="path17"
       sodipodi:nodetypes="ssssscss"
       inkscape:label="lateral-direita-vermelha" /><path
       style="display:inline;fill:#7b2c23;fill-opacity:1;stroke:none;stroke-width:0.3;stroke-dasharray:none;stroke-opacity:1"
       d="m 92.376218,130.87582 c -0.272293,0.31101 0.870255,0.004 0.985516,0.7527 0.11526,0.7492 -0.403416,1.61366 -1.037352,1.72892 -0.633939,0.11526 -7.722516,-0.23053 -7.722516,-0.23053 0,0 -0.749199,-0.74919 -0.749199,-1.84418 0,-1.09498 0.461047,-5.87833 0.461047,-5.87833 0,0 0.102471,-1.61458 2.708643,-2.0747 1.545981,-0.27294 2.08705,-0.34507 2.99174,-0.42404 0.420401,-0.0367 0.727043,-0.11967 0.760048,-0.31877 0.946856,-5.71193 1.262082,-17.00745 1.262082,-17.00745 0,0 -0.03795,-3.31619 6.915684,-2.99679 1.550459,0.0712 10.142999,0 10.142999,0 l 8.99039,-0.0576 c 0,0 2.82391,-0.23052 2.9968,2.42049 0.17289,2.65102 0.99815,4.88299 0.92209,9.04802 -0.007,0.40335 -0.8956,-0.25248 -1.21024,0 -0.70782,0.568 -0.0505,2.45037 -0.58969,2.658 -0.52454,0.20201 -0.73698,-1.94343 -2.98342,-1.85117 -3.06261,0.12578 -9.02764,-0.4133 -9.02764,-0.4133 0,0 -1.09081,-0.57766 -2.03745,-0.0611 -1.43685,0.78401 -10.949833,1.28125 -10.949833,1.28125 0,0 -1.325507,0.1729 -1.210247,2.36286 0.115263,2.18997 -0.0844,8.20394 -0.0844,8.20394 l 0.02677,2.97642 -0.115263,1.38314 c 0,0 -1.200657,0.0614 -1.44656,0.34224 z"
       id="path18"
       sodipodi:nodetypes="ssscscssscsccssasscscscccs"
       inkscape:label="direita-frente-vermelha" /><path
       style="display:inline;fill:#7b2c23;fill-opacity:1;stroke:none;stroke-width:0.3;stroke-dasharray:none;stroke-opacity:1"
       d="m 94.868464,102.04065 c 0,0 2.078304,-0.73352 3.545344,-0.77427 0.81502,0.0408 4.197362,-0.0815 4.197362,-0.0815 l 8.47622,-0.0815 c 0,0 3.8306,-0.24451 4.31961,-0.44827 0.48901,-0.20375 1.9968,-0.93727 1.9968,-0.93727 0,0 0.40751,-1.222531 -1.95605,-1.059526 -2.36356,0.163004 -6.39792,0.122253 -6.39792,0.122253 l -5.58289,-0.163004 c 0,0 -5.012402,-0.532452 -7.172188,0.244505 -0.925422,0.33291 -1.630043,1.059527 -1.589292,2.485812 0.04075,1.42629 0.163004,0.69277 0.163004,0.69277 z"
       id="path19"
       sodipodi:nodetypes="ccccscsccsscc"
       inkscape:label="teto-vermelho" /><path
       style="display:inline;fill:#9a9b96;fill-opacity:1;stroke:none;stroke-width:0.3;stroke-dasharray:none;stroke-opacity:1"
       d="m 94.623958,132.76695 c 8.820712,0 13.566222,0.97843 22.698332,0.44826 0.68856,-0.04 1.57414,0.13938 2.03512,-0.37365 0.37174,-0.41372 0.12469,-1.6639 0.12469,-1.6639 l -0.163,-12.83658 c 0,0 0.11353,-0.98334 -0.24447,-1.67082 -0.31185,-0.59887 -1.06014,-0.90444 -1.54858,-1.01876 -2.27806,-0.53319 -4.40312,-0.29364 -6.59793,-0.51578 -1.20466,-0.12192 -2.39418,-0.476 -3.60467,-0.44825 -1.2876,0.0295 -2.53092,0.48829 -3.80842,0.65201 -2.13903,0.27412 -6.446008,0.55158 -6.446008,0.55158 0,0 -1.495042,0.1851 -1.936907,0.71234 -0.519744,0.62017 -0.426655,2.38969 -0.426655,2.38969 0,0 -1.147457,13.77386 -0.0815,13.77386 z"
       id="path20"
       sodipodi:nodetypes="ssaccssaaacacss"
       inkscape:label="grade-externa" /><path
       style="display:inline;fill:#000000;fill-opacity:1;stroke:none;stroke-width:0.3;stroke-dasharray:none;stroke-opacity:1"
       d="m 98.6266,131.42012 c 0,0 -1.329063,0.19406 -1.766843,-0.20584 -0.531791,-0.48577 -0.442753,-2.11493 -0.442753,-2.11493 v -9.37274 c 0,0 0.09635,-1.25486 0.525749,-1.63207 0.447252,-0.39289 1.756312,-0.32398 1.756312,-0.32398 h 17.685955 c 0,0 1.04415,0.0453 1.35269,0.40009 0.29002,0.33354 0.19585,1.31145 0.19585,1.31145 l -0.0815,9.78026 c 0,0 0.043,1.34732 -0.36965,1.79999 -0.37233,0.40845 -1.5864,0.48207 -1.5864,0.48207 z"
       id="path21"
       sodipodi:nodetypes="caccaccaccacc"
       inkscape:label="fundo-grade" /><g
       id="g26"
       inkscape:label="grade-interna"
       style="display:inline;fill:#9a9b96;fill-opacity:1"><path
         style="fill:#9a9b96;fill-opacity:1;stroke:none;stroke-width:0.3;stroke-dasharray:none;stroke-opacity:1"
         d="m 98.662834,118.81772 c 0.01193,-0.54772 1.401216,-1.13855 1.738316,0.11284 0.38815,1.44093 0.22653,8.24465 0.0358,11.17321 -0.0365,0.55974 -1.011783,1.1892 -1.663801,0.25192 -0.622566,-0.89493 -0.199214,-7.45653 -0.110315,-11.53797 z"
         id="path22"
         sodipodi:nodetypes="sssss" /><path
         style="fill:#9a9b96;fill-opacity:1;stroke:none;stroke-width:0.3;stroke-dasharray:none;stroke-opacity:1"
         d="m 102.52501,129.55381 c 0,0 0.005,-6.59702 -0.0864,-10.43115 -0.0142,-0.59739 0.89989,-1.49 1.74332,-0.41779 0.28793,0.36602 0.12968,10.9066 0.12968,10.9066 0,0 0.14622,1.28721 -1.48399,0.80683 -0.25945,-0.0764 -0.30257,-0.86446 -0.30257,-0.86446 z"
         id="path23"
         sodipodi:nodetypes="csscscc" /><path
         style="fill:#9a9b96;fill-opacity:1;stroke:none;stroke-width:0.3;stroke-dasharray:none;stroke-opacity:1"
         d="m 107.87026,129.82756 c -0.0987,0.80528 -0.87887,1.19583 -1.4984,-0.0144 -0.34802,-0.67984 0.0864,-10.79135 0.0864,-10.79135 0,0 0.43223,-1.12379 1.26788,-0.21612 0.0921,0.0251 0.21059,10.47956 0.14412,11.02187 z"
         id="path24"
         sodipodi:nodetypes="ssccs" /><path
         style="fill:#9a9b96;fill-opacity:1;stroke:none;stroke-width:0.3;stroke-dasharray:none;stroke-opacity:1"
         d="m 110.00748,118.99309 c 0,0 0.52948,-1.18047 1.46704,-0.44826 0.83847,0.65483 0.34179,11.00928 0.12228,11.59367 -0.31462,0.83759 -1.29127,1.11566 -1.63004,-0.0203 -0.45593,-1.52887 -0.0246,-10.57552 0.0407,-11.12509 z"
         id="path25"
         sodipodi:nodetypes="cssscc" /><path
         style="fill:#9a9b96;fill-opacity:1;stroke:none;stroke-width:0.3;stroke-dasharray:none;stroke-opacity:1"
         d="m 113.81771,119.13572 c 0,0 0.89652,-1.95605 1.73192,0 0.51728,1.21118 0.0733,10.74725 -0.0407,10.94166 -0.27491,0.46872 -1.0799,1.01878 -1.63005,-0.0204 -0.46116,-0.87109 -0.0611,-10.92128 -0.0611,-10.92128 z"
         id="path26"
         sodipodi:nodetypes="cssscc" /></g><path
       style="display:inline;fill:#000000;fill-opacity:1;stroke:none;stroke-width:0.3"
       d="m 93.727436,113.08419 c 0,0 8.929954,-0.85044 13.407104,-0.81502 4.44114,0.0351 13.28484,1.01877 13.28484,1.01877 0,0 0.13595,-2.85164 0.0963,-4.27718 -0.0356,-1.28084 -0.30005,-3.83228 -0.30005,-3.83228 0,0 -8.41487,-0.707 -12.63282,-0.73352 -4.48716,-0.0282 -13.447853,0.61127 -13.447853,0.61127 0,0 -0.479126,2.4341 -0.550914,3.66859 -0.08441,1.45146 0.143403,4.35937 0.143403,4.35937 z"
       id="path1"
       sodipodi:nodetypes="cacacacac"
       inkscape:label="vidro-fundo" /><path
       style="display:inline;fill:#ffffff;fill-opacity:1;stroke:none;stroke-width:0.3"
       d="m 94.216449,112.51368 c -0.61132,0.0202 -0.395086,-6.1254 0.0815,-6.80543 0.43867,-0.62594 10.943911,-0.71387 12.714331,-0.12225 0.29007,0.0969 0.52059,5.68563 0.12225,6.19415 -0.56772,0.72475 -6.02053,0.50531 -12.918084,0.73353 z"
       id="path2"
       sodipodi:nodetypes="sssss"
       inkscape:label="vidro-brilho" /><path
       style="display:inline;fill:#727272;fill-opacity:0.577519;stroke:none;stroke-width:0.3"
       d="m 94.827716,112.39142 11.430664,-5.52177 0.0815,4.89013 z"
       id="path3"
       sodipodi:nodetypes="cccc"
       inkscape:label="vidro-reflexo" /><path
       id="path10"
       style="display:inline;fill:#908f8a;fill-opacity:1;stroke:none;stroke-width:0.3"
       d="m 82.887447,133.66346 -0.162781,4.23798 10.10636,3.01584 28.362614,0.0817 9.78028,-2.93419 -0.0816,-4.15685 z m 35.206123,2.18591 a 0.69276798,1.2632829 0 0 1 0.69298,1.26297 0.69276798,1.2632829 0 0 1 -0.69298,1.26349 0.69276798,1.2632829 0 0 1 -0.69247,-1.26349 0.69276798,1.2632829 0 0 1 0.69247,-1.26297 z m -22.083926,0.0625 a 0.81502116,1.2225318 0 0 1 0.814937,1.22215 0.81502116,1.2225318 0 0 1 -0.814937,1.22266 0.81502116,1.2225318 0 0 1 -0.814938,-1.22266 0.81502116,1.2225318 0 0 1 0.814938,-1.22215 z m 16.708026,0.27802 0.0811,3.01583 -11.49181,0.16278 v -3.09696 z"
       inkscape:label="parachoque" /><g
       id="g9"
       style="display:inline;fill:#c6c6c3;fill-opacity:0.77907"
       inkscape:label="reflexos-metal"><path
         style="fill:#c6c6c3;fill-opacity:0.77907;stroke:none;stroke-width:0.3"
         d="m 92.093858,103.33185 0.979723,-0.89328 0.02882,-7.607253 -1.411952,-1.72892 -0.518675,0.922092 0.60512,0.432228 -0.11526,8.385263 z"
         id="path4" /><path
         style="fill:#c6c6c3;fill-opacity:0.77907;stroke:none;stroke-width:0.3"
         d="m 122.40761,102.75554 -0.77802,0.0576 -0.51867,-0.89328 0.2017,-7.693694 1.1238,-1.411954 0.43223,0.547492 -0.60512,0.835646 z"
         id="path5" /><path
         style="fill:#c6c6c3;fill-opacity:0.77907;stroke:none;stroke-width:0.3"
         d="m 95.764989,132.19644 -0.652018,-0.73352 0.244507,-12.06232 0.0815,-1.63004 c 0,0 1.54854,-0.81502 2.200558,-0.81502 0.652016,0 4.156604,-0.48901 4.156604,-0.48901 l 5.05314,-0.48901 h 0.97802 l 6.76468,0.73351 3.34159,0.32601 h 0.89652 l -1.22253,-0.73352 -7.5797,-0.65201 -3.34159,-0.32601 -2.93407,0.2445 -4.890133,0.73352 h -2.852573 l -1.059529,0.65202 -0.326007,15.15939 z"
         id="path6" /><path
         style="fill:#c6c6c3;fill-opacity:0.77907;stroke:none;stroke-width:0.3"
         d="M 84.273191,138.22759 V 134.723 l 46.537709,0.16301 v -0.97803 l -47.515734,0.16301 -0.407511,3.74909 z"
         id="path7" /><path
         style="fill:#c6c6c3;fill-opacity:0.77907;stroke:none;stroke-width:0.3"
         d="m 95.235224,138.5536 c 0,0 0.326009,0.73352 1.263285,-0.0815 0.937274,-0.81502 -1.263285,0.0815 -1.263285,0.0815 z"
         id="path8" /><path
         style="fill:#c6c6c3;fill-opacity:0.77907;stroke:none;stroke-width:0.3"
         d="m 118.01507,138.71661 c 0,0 1.05953,0.89652 1.50779,0.69276 0.44826,-0.20375 0.2445,-1.22253 -0.0815,-1.22253 -0.32601,0 -1.42629,0.52977 -1.42629,0.52977 z"
         id="path9" /></g><g
       id="g30"
       inkscape:label="farol-fundo"
       style="fill:#000000;fill-opacity:1"><path
         style="display:inline;fill:#000000;fill-opacity:1;stroke:none;stroke-width:0.3"
         d="m 85.034098,130.79287 c 0,0 2.627993,0.29596 3.947756,0.30266 1.376527,0.007 4.120543,-0.27386 4.120543,-0.27386 0,0 0.392384,-1.38938 0.403409,-2.10311 0.01127,-0.72959 -0.345779,-2.16156 -0.345779,-2.16156 0,0 -2.686706,-0.27951 -4.035433,-0.3031 -1.325935,-0.0232 -3.975235,0.15902 -3.975235,0.15902 0,0 -0.319792,1.35586 -0.343551,2.04749 -0.02682,0.78074 0.22829,2.33246 0.22829,2.33246 z"
         id="path13"
         sodipodi:nodetypes="cacacacac" /><path
         style="display:inline;fill:#000000;fill-opacity:1;stroke:none;stroke-width:0.3"
         d="m 120.99566,130.79287 c 0,0 2.62799,0.29596 3.94775,0.30266 1.37653,0.007 4.12054,-0.27386 4.12054,-0.27386 0,0 0.39239,-1.38938 0.40341,-2.10311 0.0113,-0.72959 -0.34578,-2.16156 -0.34578,-2.16156 0,0 -2.6867,-0.27951 -4.03543,-0.3031 -1.32593,-0.0232 -3.97523,0.15902 -3.97523,0.15902 0,0 -0.3198,1.35586 -0.34355,2.04749 -0.0268,0.78074 0.22829,2.33246 0.22829,2.33246 z"
         id="path14"
         sodipodi:nodetypes="cacacacac" /></g><g
       id="g29"
       inkscape:label="farol-luz"><path
         style="fill:#ffffff;fill-opacity:1;stroke:none;stroke-width:0.3"
         d="m 85.821731,127.26556 c -0.653266,0.72158 -0.36415,1.48243 -0.122254,2.24131 0,0 0.27787,0.28013 0.458942,0.29328 0.204174,0.0148 0.559834,-0.25248 0.559834,-0.25248 0,0 0.313399,-0.58284 0.316969,-1.21851 0.0034,-0.61104 -0.316969,-1.18581 -0.316969,-1.18581 0,0 -0.301969,-0.14439 -0.459418,-0.12467 -0.166039,0.0208 -0.437104,0.24688 -0.437104,0.24688 z"
         id="path15"
         sodipodi:nodetypes="ccacscac" /><path
         style="fill:#ffffff;fill-opacity:1;stroke:none;stroke-width:0.3"
         d="m 87.771556,127.17655 c 0,0 -0.451086,0.32349 -0.446636,1.41195 0.0056,1.37232 0.446641,1.39755 0.446641,1.39755 0,0 1.353205,0.12472 2.03095,0.10826 0.685489,-0.0166 2.04642,-0.20908 2.04642,-0.20908 0,0 0.659766,-0.0897 0.619838,-1.36847 -0.03639,-1.16553 -0.677463,-1.3978 -0.677463,-1.3978 0,0 -1.351973,-0.18234 -2.031475,-0.17198 -0.667084,0.0102 -1.988275,0.22957 -1.988275,0.22957 z"
         id="path27"
         sodipodi:nodetypes="cscacscac" /><path
         style="fill:#ffffff;fill-opacity:1;stroke:none;stroke-width:0.3"
         d="m 128.55898,127.23674 c 0.65326,0.72158 0.36415,1.48243 0.12225,2.24131 0,0 -0.27787,0.28013 -0.45894,0.29328 -0.20417,0.0148 -0.55983,-0.25248 -0.55983,-0.25248 0,0 -0.3134,-0.58284 -0.31697,-1.21851 -0.003,-0.61104 0.31697,-1.18581 0.31697,-1.18581 0,0 0.30196,-0.14439 0.45941,-0.12467 0.16604,0.0208 0.43711,0.24688 0.43711,0.24688 z"
         id="path28"
         sodipodi:nodetypes="ccacscac" /><path
         style="fill:#ffffff;fill-opacity:1;stroke:none;stroke-width:0.3"
         d="m 126.60915,127.14773 c 0,0 0.45109,0.32349 0.44664,1.41195 -0.006,1.37232 -0.44664,1.39755 -0.44664,1.39755 0,0 -1.35321,0.12472 -2.03095,0.10826 -0.68549,-0.0166 -2.04642,-0.20908 -2.04642,-0.20908 0,0 -0.65977,-0.0897 -0.61984,-1.36847 0.0364,-1.16553 0.67746,-1.3978 0.67746,-1.3978 0,0 1.35198,-0.18234 2.03148,-0.17198 0.66708,0.0102 1.98827,0.22957 1.98827,0.22957 z"
         id="path29"
         sodipodi:nodetypes="cscacscac" /></g></g><g
     inkscape:groupmode="layer"
     id="layer6"
     inkscape:label="texto"
     style="display:inline"><path
       style="display:inline;fill:#24292e;fill-opacity:1;fill-rule:evenodd;stroke:#131313;stroke-width:1.03848;stroke-dasharray:none;stroke-opacity:1"
       d="m 43.127988,146.40032 0.345676,32.94589 c 0,0 46.315907,-6.88511 67.867256,-6.56143 21.55135,0.32367 60.95469,7.73807 60.95469,7.73807 l 0.11523,-33.6813 z"
       id="path59"
       sodipodi:nodetypes="cczccc"
       inkscape:label="letreiro" /><path
       style="font-size:22.0236px;font-family:'American Captain';-inkscape-font-specification:'American Captain';display:inline;fill:url(#linearGradient137);fill-opacity:1;fill-rule:evenodd;stroke-width:0.919909;filter:url(#filter164)"
       d="m 46.069518,174.98505 c 1.132371,0.004 3.396433,-0.0392 3.396433,-0.0392 0,-7.46819 0,-22.40009 0,-22.40009 -1.132371,0.005 -3.396433,0.007 -3.396433,0.007 z m 9.861366,-18.61538 c 0.234236,-0.005 0.327931,0.1759 0.327931,0.4506 0,2.23872 0,6.71483 0,6.71483 0,0.33574 -0.07027,0.46087 -0.327931,0.47137 -0.554472,0.0226 -1.663082,0.0633 -1.663082,0.0633 0,-2.55595 0,-7.66631 0,-7.66631 0.554318,-0.0104 1.108764,-0.0217 1.663082,-0.0337 z m 3.677516,-1.08792 c 0,-1.72322 -0.70271,-2.83035 -2.29552,-2.80915 -2.1476,0.0286 -6.441511,0.0653 -6.441511,0.0653 0,7.45632 0,22.36449 0,22.36449 1.132371,-0.0408 3.396433,-0.16119 3.396433,-0.16119 0,-2.36169 0,-7.08366 0,-7.08366 0.14838,-0.006 0.445051,-0.0195 0.445051,-0.0195 0.546662,2.33491 1.639657,6.97006 1.639657,6.97006 1.171418,-0.0812 3.513551,-0.27193 3.513551,-0.27193 -0.593518,-2.27614 -1.780199,-6.87106 -1.780199,-6.87106 0.983794,-0.0563 1.522538,-1.05814 1.522538,-2.02554 z m 6.886548,16.89335 c 0.71847,-2.92107 2.154978,-8.6912 2.154978,-8.6912 0,3.33458 0,10.00175 0,10.00175 1.101093,-0.11549 3.302738,-0.34992 3.302738,-0.34992 0,-6.97325 0,-20.91558 0,-20.91558 -1.202656,0.023 -3.607246,0.0687 -3.607246,0.0687 -0.616947,2.99886 -1.85047,9.06068 -1.85047,9.06068 -0.616947,-2.9762 -1.85047,-8.99279 -1.85047,-8.99279 -1.194847,0.0212 -3.583823,0.0607 -3.583823,0.0607 0,7.27313 0,21.81502 0,21.81502 1.101133,-0.0979 3.302738,-0.30979 3.302738,-0.30979 0,-3.39095 0,-10.17081 0,-10.17081 0.710902,2.83359 1.420653,5.63866 2.131555,8.42327 z m 12.437961,-2.29206 c 0.101523,0.83164 0.304508,2.49137 0.304508,2.49137 1.14018,-0.11451 3.419857,-0.33241 3.419857,-0.33241 -1.023039,-6.59686 -3.068502,-20.02101 -3.068502,-20.02101 -1.210465,0.0215 -3.630669,0.0661 -3.630669,0.0661 -1.023038,6.89517 -3.068501,20.94885 -3.068501,20.94885 1.14018,-0.12137 3.419856,-0.36127 3.419856,-0.36127 0.101523,-0.86059 0.304508,-2.57797 0.304508,-2.57797 0.773451,-0.0723 1.545492,-0.14355 2.318943,-0.21366 z M 77.78515,159.45812 c 0.257712,2.41861 0.772981,7.23147 0.772981,7.23147 -0.523233,0.0408 -1.569386,0.12368 -1.569386,0.12368 8.62e-4,-0.008 0.795543,-7.34717 0.796405,-7.35515 z m 2.529757,-11.82497 c 0.04685,0.75239 -0.351355,1.19993 -0.8901,1.20255 -0.819829,0.004 -1.7802,-1.20255 -3.068502,-1.20255 -1.475691,0 -2.529756,1.40321 -2.459485,3.66273 0.491995,-0.008 1.475691,-0.0226 1.475691,-0.0226 0,-0.82472 0.327932,-1.19778 0.866676,-1.20325 1.194607,-0.0121 1.827047,1.13439 3.232467,1.11419 1.756776,-0.0252 2.48291,-1.47323 2.318945,-3.55108 z m 8.338836,7.73096 c 0.234237,-0.006 0.304508,0.12752 0.304508,0.37056 0,3.97955 0,11.93625 0,11.93625 0,0.29706 -0.04685,0.408 -0.327931,0.42646 -0.42952,0.0282 -1.288302,0.0869 -1.288302,0.0869 -0.281085,0.0195 -0.327932,-0.0859 -0.327932,-0.38484 0,-4.00506 0,-12.0128 0,-12.0128 0,-0.2446 0.07027,-0.38237 0.304508,-0.3885 -0.0068,1.8e-4 1.341949,-0.0342 1.335149,-0.034 z m 3.747788,-0.96725 c 0,-1.52386 -0.70271,-2.50564 -2.29552,-2.48511 -1.405702,0.0181 -4.216262,0.0596 -4.216262,0.0596 -1.592809,0.0244 -2.295519,1.05447 -2.295519,2.62277 0,4.8434 0,14.52729 0,14.52729 0,1.51327 0.538745,2.78004 2.436062,2.61925 1.311988,-0.11118 3.935177,-0.30948 3.935177,-0.30948 1.897317,-0.13693 2.436062,-1.44844 2.436062,-2.91882 0,-4.70517 0,-9.41035 0,-14.11553 z m 6.441529,16.54361 c 1.94417,-0.0721 2.60003,-0.86986 2.60003,-2.97172 0,-2.09354 0,-6.27935 0,-6.27935 0,-1.41875 -0.60902,-1.93698 -1.686511,-1.91837 -0.710659,0.0123 -2.13155,0.042 -2.13155,0.042 -0.351355,0.008 -0.515321,-0.0941 -0.515321,-0.4908 0,-1.16384 0,-3.49084 0,-3.49084 0,-0.29091 0.140542,-0.42525 0.421626,-0.42924 1.280751,-0.0182 3.841486,-0.044 3.841486,-0.044 -0.19524,-1.18095 -0.58559,-3.54432 -0.58559,-3.54432 -1.561892,0.008 -4.68474,0.0327 -4.68474,0.0327 -1.59281,0.014 -2.29552,1.00762 -2.29552,2.52597 0,2.18471 0,6.55282 0,6.55282 0,1.91791 0.8901,2.15005 1.897318,2.11672 0.585709,-0.0194 1.756776,-0.0539 1.756776,-0.0539 0.468473,-0.0132 0.632439,0.009 0.632439,0.53704 0,1.16177 0,3.48462 0,3.48462 0,0.29038 -0.09369,0.39903 -0.398203,0.40987 -1.218275,0.0434 -3.654093,0.15367 -3.654093,0.15367 0.203046,1.18843 0.609016,3.56 0.609016,3.56 1.398506,-0.0764 2.794331,-0.14089 4.192837,-0.19278 z m 12.01634,-15.80568 c 0.23424,10e-4 0.30451,0.13296 0.30451,0.36908 0,1.37328 0,4.11902 0,4.11902 0,0.34106 -0.18739,0.49654 -0.42164,0.49439 -0.53104,-0.005 -1.5928,-0.0115 -1.5928,-0.0115 0,-1.65986 0,-4.97858 0,-4.97858 0.57003,0.002 1.1399,0.004 1.70993,0.008 z m 0.35136,11.96604 c 0,0.2886 -0.0703,0.39225 -0.35136,0.38802 -0.57009,-0.009 -1.70993,-0.02 -1.70993,-0.02 0,-1.49387 0,-4.48072 0,-4.48072 0.51542,0.003 1.54596,0.0136 1.54596,0.0136 0.30451,0.003 0.51533,0.13732 0.51533,0.55711 z m 3.20904,-12.96345 c 0,-1.39565 -0.67929,-2.32196 -2.01444,-2.32788 -2.21008,-0.01 -6.6289,-0.0112 -6.6289,-0.0112 0,6.33193 0,18.992 0,18.992 2.05389,-0.0121 6.16043,0.0513 6.16043,0.0513 1.94417,0.0437 2.64687,-0.76745 2.64687,-2.87458 0,-1.65092 0,-4.95177 0,-4.95177 0,-0.84285 -0.3982,-1.64214 -1.33515,-1.7104 0.89011,-0.24803 1.17119,-0.97924 1.17119,-1.92722 0,-1.74675 0,-3.49349 0,-5.24023 z m 1.5694,16.83239 c 2.15541,0.0876 6.46493,0.35107 6.46493,0.35107 0.19524,-1.19291 0.5856,-3.58348 0.5856,-3.58348 -1.18704,-0.07 -3.56041,-0.18904 -3.56041,-0.18904 0,-1.40063 0,-4.20106 0,-4.20106 0.93714,0.0348 2.81085,0.11499 2.81085,0.11499 0,-1.1162 0,-3.34795 0,-3.34795 -0.93714,-0.033 -2.81085,-0.0907 -2.81085,-0.0907 0,-1.52473 0,-4.5733 0,-4.5733 1.2339,0.0228 3.70095,0.0775 3.70095,0.0775 -0.19524,-1.21316 -0.5856,-3.63237 -0.5856,-3.63237 -2.20226,-0.0269 -6.60547,-0.0649 -6.60547,-0.0649 z m 13.42178,-15.49342 c 0.23424,0.007 0.32793,0.17444 0.32793,0.42156 0,2.01397 0,6.04069 0,6.04069 0,0.30204 -0.0703,0.4079 -0.32793,0.39367 -0.55447,-0.0306 -1.66309,-0.0893 -1.66309,-0.0893 0,-2.27188 0,-6.81427 0,-6.81427 0.0113,3.2e-4 1.65184,0.0473 1.66309,0.0477 z m 3.67751,-0.80387 c 0,-1.58595 -0.7027,-2.62862 -2.29552,-2.65583 -2.1476,-0.0367 -6.44151,-0.0987 -6.44151,-0.0987 0,6.51381 0,19.53752 0,19.53752 1.13237,0.0843 3.39643,0.27295 3.39643,0.27295 0,-2.09921 0,-6.29638 0,-6.29638 0.14838,0.009 0.44505,0.0285 0.44505,0.0285 0.54666,2.13787 1.63966,6.45385 1.63966,6.45385 1.17142,0.10812 3.51355,0.34067 3.51355,0.34067 -0.59352,-2.2052 -1.7802,-6.56441 -1.7802,-6.56441 0.9838,0.0705 1.52254,-0.77916 1.52254,-1.6695 z m 6.51177,1.14305 c 0.23424,0.008 0.32793,0.18372 0.32793,0.44158 0,2.10149 0,6.30322 0,6.30322 0,0.31516 -0.0703,0.42501 -0.32793,0.40761 -0.55447,-0.0374 -1.66308,-0.11137 -1.66308,-0.11137 0,-2.3673 0,-7.10047 0,-7.10047 0.0429,0.002 1.62021,0.0579 1.66308,0.0594 z m 3.67752,-0.82571 c 0,-1.65745 -0.70271,-2.74772 -2.29552,-2.77992 -2.1476,-0.0434 -6.44151,-0.12611 -6.44151,-0.12611 0,6.76594 0,20.29377 0,20.29377 1.13237,0.11755 3.39643,0.36286 3.39643,0.36286 0,-2.18738 0,-6.56083 0,-6.56083 0.14838,0.012 0.44506,0.0361 0.44506,0.0361 0.54666,2.23606 1.63965,6.75545 1.63965,6.75545 1.17138,0.13085 3.51355,0.39587 3.51355,0.39587 -0.59352,-2.30911 -1.7802,-6.87319 -1.7802,-6.87319 0.9838,0.082 1.52254,-0.80339 1.52254,-1.73387 z m 1.45225,18.5122 c 2.15541,0.24333 6.46494,0.70976 6.46494,0.70976 0.19524,-1.33283 0.58559,-4.00737 0.58559,-4.00737 -1.18703,-0.10386 -3.56039,-0.3226 -3.56039,-0.3226 0,-1.56475 0,-4.69331 0,-4.69331 0.93713,0.0689 2.81083,0.20235 2.81083,0.20235 0,-1.2522 0,-3.75585 0,-3.75585 -0.93713,-0.0519 -2.81083,-0.15956 -2.81083,-0.15956 0,-1.70339 0,-5.10916 0,-5.10916 1.23389,0.0451 3.70093,0.13145 3.70093,0.13145 -0.19524,-1.36378 -0.58559,-4.08139 -0.58559,-4.08139 -2.20225,-0.0413 -6.60548,-0.1303 -6.60548,-0.1303 z m 8.78389,-21.04589 c -0.29676,1.36001 -0.8901,4.06544 -0.8901,4.06544 0.75752,0.0255 2.2721,0.0738 2.2721,0.0738 0,5.99636 0,17.98548 0,17.98548 1.1558,0.10875 3.4667,0.30288 3.4667,0.30288 0,-6.06375 0,-18.18762 0,-18.18762 0.75752,0.0201 2.2721,0.0561 2.2721,0.0561 -0.28114,-1.40245 -0.84326,-4.19807 -0.84326,-4.19807 -2.08946,-0.0274 -4.18808,-0.061 -6.27754,-0.0981 z m 12.22716,20.04502 c 0.10152,0.94295 0.30451,2.829 0.30451,2.829 1.14018,0.0369 3.41985,0.0624 3.41985,0.0624 -1.02304,-7.59373 -3.0685,-22.77576 -3.0685,-22.77576 -1.21047,-0.006 -3.63067,-0.0281 -3.63067,-0.0281 -1.02304,7.52332 -3.0685,22.39746 -3.0685,22.39746 1.14018,0.0836 3.41986,0.21777 3.41986,0.21777 0.10152,-0.93044 0.30451,-2.79268 0.30451,-2.79268 0.77289,0.0356 1.54605,0.0658 2.31894,0.0899 z m -1.14776,-11.67235 c 0.25771,2.68458 0.77298,8.06017 0.77298,8.06017 -0.52323,-0.0151 -1.56938,-0.0521 -1.56938,-0.0521 0.01,-0.0996 0.78648,-7.9085 0.7964,-8.00808 z"
       id="text32"
       aria-label="IRMÃOS BERRETA"
       inkscape:path-effect="#path-effect135"
       inkscape:original-d="m 46.069518,167.89437 h 3.396433 v -16.61695 h -3.396433 z m 9.861366,-13.70611 c 0.234236,0 0.327931,0.13751 0.327931,0.34379 v 5.04238 c 0,0.25212 -0.07027,0.34381 -0.327931,0.34381 h -1.663082 v -5.72998 z M 59.6084,153.4319 c 0,-1.30645 -0.70271,-2.15448 -2.29552,-2.15448 h -6.441511 v 16.61695 h 3.396433 v -5.2945 h 0.445051 l 1.639657,5.2945 h 3.513551 l -1.780199,-5.2945 c 0.983794,0 1.522538,-0.73344 1.522538,-1.46687 z m 6.886548,13.27063 2.154978,-6.64677 v 7.83861 h 3.302738 v -16.61695 h -3.607246 l -1.85047,7.0135 -1.85047,-7.0135 h -3.583823 v 16.61695 h 3.302738 v -7.83861 z m 12.437961,-0.87095 0.304508,2.06279 h 3.419857 l -3.068502,-16.66279 h -3.630669 l -3.068501,16.66279 h 3.419856 l 0.304508,-2.06279 z m -1.147759,-8.57206 0.772981,5.93627 h -1.569386 z m 2.529757,-9.62637 c 0.04685,0.61883 -0.351355,0.98555 -0.8901,0.98555 -0.819829,0 -1.7802,-0.98555 -3.068502,-0.98555 -1.475691,0 -2.529756,1.12307 -2.459485,2.93375 h 1.475691 c 0,-0.66468 0.327932,-0.96263 0.866676,-0.96263 1.194607,0 1.827047,0.93971 3.232467,0.93971 1.756776,0 2.48291,-1.19183 2.318945,-2.91083 z m 8.338836,6.55511 c 0.234237,0 0.304508,0.11459 0.304508,0.32087 v 10.13061 c 0,0.25212 -0.04685,0.3438 -0.327931,0.3438 h -1.288302 c -0.281085,0 -0.327932,-0.0917 -0.327932,-0.3438 v -10.13061 c 0,-0.20628 0.07027,-0.32087 0.304508,-0.32087 z m 3.747788,-0.75636 c 0,-1.30645 -0.70271,-2.15448 -2.29552,-2.15448 h -4.216262 c -1.592809,0 -2.295519,0.84803 -2.295519,2.15448 v 12.10172 c 0,1.2606 0.538745,2.36075 2.436062,2.36075 h 3.935177 c 1.897317,0 2.436062,-1.10015 2.436062,-2.36075 z m 6.441529,14.46247 c 1.94417,0 2.60003,-0.6876 2.60003,-2.52119 v -5.47787 c 0,-1.23767 -0.60902,-1.69607 -1.686511,-1.69607 h -2.13155 c -0.351355,0 -0.515321,-0.0917 -0.515321,-0.43548 v -3.02543 c 0,-0.25212 0.140542,-0.36671 0.421626,-0.36671 h 3.841486 l -0.58559,-3.0942 h -4.68474 c -1.59281,0 -2.29552,0.84803 -2.29552,2.15448 v 5.63829 c 0,1.65024 0.8901,1.87944 1.897318,1.87944 h 1.756776 c 0.468473,0 0.632439,0.0229 0.632439,0.48132 v 3.02543 c 0,0.25212 -0.09369,0.3438 -0.398203,0.3438 h -3.654093 l 0.609016,3.09419 z m 12.01634,-13.70611 c 0.23424,0 0.30451,0.11459 0.30451,0.32087 v 3.59843 c 0,0.29796 -0.18739,0.43548 -0.42164,0.43548 h -1.5928 v -4.35478 z m 0.35136,10.45148 c 0,0.25212 -0.0703,0.3438 -0.35136,0.3438 h -1.70993 v -3.9193 h 1.54596 c 0.30451,0 0.51533,0.11459 0.51533,0.48131 z m 3.20904,-11.34536 c 0,-1.21476 -0.67929,-2.01696 -2.01444,-2.01696 h -6.6289 v 16.61695 h 6.16043 c 1.94417,0 2.64687,-0.73344 2.64687,-2.56703 v -4.30895 c 0,-0.73344 -0.3982,-1.42103 -1.33515,-1.46687 0.89011,-0.22921 1.17119,-0.87096 1.17119,-1.69608 z m 1.5694,14.59999 h 6.46493 l 0.5856,-3.09419 h -3.56041 v -3.62135 h 2.81085 v -2.86499 h -2.81085 v -3.94222 h 3.70095 l -0.5856,-3.0942 h -6.60547 z m 13.42178,-13.70611 c 0.23424,0 0.32793,0.13751 0.32793,0.34379 v 5.04238 c 0,0.25212 -0.0703,0.34381 -0.32793,0.34381 h -1.66309 v -5.72998 z m 3.67751,-0.75636 c 0,-1.30645 -0.7027,-2.15448 -2.29552,-2.15448 h -6.44151 v 16.61695 h 3.39643 v -5.2945 h 0.44505 l 1.63966,5.2945 h 3.51355 l -1.7802,-5.2945 c 0.9838,0 1.52254,-0.73344 1.52254,-1.46687 z m 6.51177,0.75636 c 0.23424,0 0.32793,0.13751 0.32793,0.34379 v 5.04238 c 0,0.25212 -0.0703,0.34381 -0.32793,0.34381 h -1.66308 v -5.72998 z m 3.67752,-0.75636 c 0,-1.30645 -0.70271,-2.15448 -2.29552,-2.15448 h -6.44151 v 16.61695 h 3.39643 v -5.2945 h 0.44506 l 1.63965,5.2945 h 3.51355 l -1.7802,-5.2945 c 0.9838,0 1.52254,-0.73344 1.52254,-1.46687 z m 1.45225,14.46247 h 6.46494 l 0.58559,-3.09419 h -3.56039 v -3.62135 h 2.81083 v -2.86499 h -2.81083 v -3.94222 h 3.70093 l -0.58559,-3.0942 h -6.60548 z m 8.78389,-16.61695 -0.8901,3.0942 h 2.2721 v 13.52275 h 3.4667 v -13.52275 h 2.2721 l -0.84326,-3.0942 z m 12.22716,14.55416 0.30451,2.06279 h 3.41985 l -3.0685,-16.61695 h -3.63067 l -3.0685,16.61695 h 3.41986 l 0.30451,-2.06279 z m -1.14776,-8.52621 0.77298,5.89042 h -1.56938 z"
       transform="matrix(1,0,0,0.94127964,0,8.343062)"
       inkscape:label="IB" /></g><metadata
     id="metadata164"><rdf:RDF><cc:Work
         rdf:about=""><dc:title>Logo Projeto Integrador FATEC - DSM sem. 1</dc:title><dc:date>30-05-2026</dc:date><dc:creator><cc:Agent><dc:title>Mateus Strozzi</dc:title></cc:Agent></dc:creator><dc:rights><cc:Agent><dc:title>CC BY NC</dc:title></cc:Agent></dc:rights><dc:publisher><cc:Agent><dc:title>Inkscape</dc:title></cc:Agent></dc:publisher><dc:language>PT-br</dc:language><dc:subject><rdf:Bag><rdf:li>Mecânica</rdf:li><rdf:li>logo</rdf:li><rdf:li>FATEC</rdf:li><rdf:li>Strozzi</rdf:li><rdf:li>Irmão Berreta</rdf:li></rdf:Bag></dc:subject><dc:description>Logo criada a partir de prompt sobre a empresa com o GEMINI e vetorizada à mão usando Inkscape</dc:description><cc:license
           rdf:resource="http://creativecommons.org/licenses/by-nc-sa/4.0/" /></cc:Work><cc:License
         rdf:about="http://creativecommons.org/licenses/by-nc-sa/4.0/"><cc:permits
           rdf:resource="http://creativecommons.org/ns#Reproduction" /><cc:permits
           rdf:resource="http://creativecommons.org/ns#Distribution" /><cc:requires
           rdf:resource="http://creativecommons.org/ns#Notice" /><cc:requires
           rdf:resource="http://creativecommons.org/ns#Attribution" /><cc:prohibits
           rdf:resource="http://creativecommons.org/ns#CommercialUse" /><cc:permits
           rdf:resource="http://creativecommons.org/ns#DerivativeWorks" /><cc:requires
           rdf:resource="http://creativecommons.org/ns#ShareAlike" /></cc:License></rdf:RDF></metadata></svg>
